<svg class="animated" id="freepik_stories-evil-ghost" xmlns="http://www.w3.org/2000/svg" viewBox="0 0 500 500" version="1.1" xmlns:xlink="http://www.w3.org/1999/xlink" xmlns:svgjs="http://svgjs.com/svgjs"><style>svg#freepik_stories-evil-ghost:not(.animated) .animable {opacity: 0;}svg#freepik_stories-evil-ghost.animated #freepik--ghost-3--inject-2 {animation: 1s 1 forwards cubic-bezier(.36,-0.01,.5,1.38) slideUp;animation-delay: 0s;}svg#freepik_stories-evil-ghost.animated #freepik--ghost-2--inject-2 {animation: 1s 1 forwards cubic-bezier(.36,-0.01,.5,1.38) lightSpeedLeft;animation-delay: 0s;}svg#freepik_stories-evil-ghost.animated #freepik--ghost-1--inject-2 {animation: 1s 1 forwards ease-in lightSpeedRight;animation-delay: 0s;}            @keyframes slideUp {                0% {                    opacity: 0;                    transform: translateY(30px);                }                100% {                    opacity: 1;                    transform: inherit;                }            }                    @keyframes lightSpeedLeft {              from {                transform: translate3d(-50%, 0, 0) skewX(20deg);                opacity: 0;              }              60% {                transform: skewX(-10deg);                opacity: 1;              }              80% {                transform: skewX(2deg);              }              to {                opacity: 1;                transform: translate3d(0, 0, 0);              }            }                    @keyframes lightSpeedRight {              from {                transform: translate3d(50%, 0, 0) skewX(-20deg);                opacity: 0;              }              60% {                transform: skewX(10deg);                opacity: 1;              }              80% {                transform: skewX(-2deg);              }              to {                opacity: 1;                transform: translate3d(0, 0, 0);              }            }        </style><g id="freepik--background-simple--inject-2" style="transform-origin: 245.126px 240.896px 0px;" class="animable"><path d="M417,72.43a134.93,134.93,0,0,0-33.51-14.21c-39.08-10.83-180.22-48.89-194-37.71-16,13-162.75,182.62-155.87,203.25s78.7,232.28,97,239.16S436.21,385,450.73,378.87s0-264.38-9.93-284.24C436.38,85.8,426.53,78.18,417,72.43Z" style="fill: rgb(255, 121, 85); transform-origin: 245.126px 240.896px 0px;" id="eluu8caxjf51" class="animable"></path><g id="elz0j5d15qrum"><path d="M417,72.43a134.93,134.93,0,0,0-33.51-14.21c-39.08-10.83-180.22-48.89-194-37.71-16,13-162.75,182.62-155.87,203.25s78.7,232.28,97,239.16S436.21,385,450.73,378.87s0-264.38-9.93-284.24C436.38,85.8,426.53,78.18,417,72.43Z" style="fill: rgb(255, 255, 255); opacity: 0.7; transform-origin: 245.126px 240.896px 0px;" class="animable"></path></g></g><g id="freepik--Shapes--inject-2" style="transform-origin: 251.444px 244.905px 0px;" class="animable"><path d="M132.91,430.54s-38-18.14-53.54-56.13-3.45-70.79-3.45-70.79-19.86,31.94-16.4,70.79S132.91,430.54,132.91,430.54Z" style="fill: rgb(255, 121, 85); transform-origin: 96.0126px 367.08px 0px;" id="elvhueys6t6xa" class="animable"></path><path d="M37.07,328.65s-3.46-45.76,29.35-88.93S192.9,180.07,244.5,165.86s67.13-79,60.22-106.59c0,0,24.18,68.21-10.36,115.7S131.18,221.59,90.6,251,37.07,328.65,37.07,328.65Z" style="fill: rgb(255, 121, 85); transform-origin: 174.957px 193.96px 0px;" id="elvm5y5ygukyc" class="animable"></path><path d="M20.66,206.92s17.22-50.83,70.8-97.57C91.46,109.35,37.93,120.58,20.66,206.92Z" style="fill: rgb(255, 121, 85); transform-origin: 56.06px 158.135px 0px;" id="el101c8bubtcf" class="animable"></path><path d="M334.94,289.8S394.52,302.75,442,269.94s43.17-95.83,35.4-128.64-38.85-54.4-38.85-54.4,19,20.72,24.17,75.12S442.87,284.62,334.94,289.8Z" style="fill: rgb(255, 121, 85); transform-origin: 408.584px 189.61px 0px;" id="elpb19t4v8bi" class="animable"></path></g><g id="freepik--ghost-3--inject-2" style="transform-origin: 261.58px 362.873px 0px;" class="animable animator-active"><path d="M189.53,343.43s4,9.16,1.84,12.52-3.67,3.66-7.94,1.53-8.55-4.89-8.55-4.89,3.05,6.11,3.36,8.24a29.29,29.29,0,0,1,.3,3.67s-4.58-5.8-7.63-6.11a11.07,11.07,0,0,1-5.5-2.44s.31,3.66.61,7.33a57.62,57.62,0,0,0,1.53,8.24L160.22,363a166.65,166.65,0,0,0,2.44,29.62c2.75,15,13.74,29.32,17.41,35.12s5.49,14.66,5.19,16.18-2.44,7.33-5.8,8.86-7.64,2.44-6.72,3.36,1.83,4.27,1.83,4.27-7,6.11-9.77,7.64-3.05,0-2.75,1.52,4.28,9.47,9.16,12.83,8.86,5.49,8.86,5.49-7.94-10.38-6.41-13.74a34.82,34.82,0,0,1,5.19-7.32s1.83,6.1,1.22,8.85l-.61,2.75s4.58,3.36,6.41,4.88,3,3.67,7.33,5.2,10.08,1.22,10.08,1.22-8.25-9.47-12.83-15.58-6.41-13.13-4.27-15,5.8-6.11,7,.31a74.2,74.2,0,0,0,6.11,17.1c1.22,2.13,5.19,4.27,7.94,4.88s11.9-1.52,11.9-1.52-10.38-7.33-12.82-9.17-5.19-12.52-4.28-15.26,8.55-10.08,8.55-10.08,8.86,0,12.83,1.83,6.41,8.86,6.41,8.86,2.14-7.64-.61-12.83-13.13-10.38-14-9.16-.62,3.67-5.81,4.89-9.77.3-11.3-1.22-5.49-23.82-6.71-32.07S197.78,381,204.8,375.8s19.55-7.94,22-6.42,7.63,17.1,11.3,28.1,7,22.29,13.13,26.56,17.4,13.13,17.4,13.13a174.39,174.39,0,0,0,16.49-22c7.64-12.22,5.19-14.35,11-23.82S306.18,370.3,309.85,366s6.41-12.22,8.24-19.55.61-9.77.61-9.77l-4,2.14s-1.52-10.69-3.36-18.63-4.27-16.49-4.27-16.49,6.11-3.05,12.21-11.91,10.08-9.77,14.36-10.07,25,19.84,32.67,26.56,4.89,16.19,4.27,19.24-1.83,4.58-3.66,5.5-4.58,2.44-5.5,1.52,3.36,7.33,5.5,12.52a16.39,16.39,0,0,0,5.5,7.33s-3.06-11-.61-14.66,12.82-8.24,12.82-8.24.92,4.58,1.22,7.33-.3,7.63-1.83,9.46a21.92,21.92,0,0,1-4.58,3.67s8.24-1.22,9.16-2.44,4-12.83,4-12.83,4.89,7.94,4.89,11.3-3.36,11-4.28,11.91,7-5.8,8.86-10.38a48.41,48.41,0,0,0,2.44-7.64s-4.58-3.36-4.89-6.11.31-7.32,1.84-7.63,7.94,7,8.24,9.47-2.14,11.3-2.14,11.3,8.25-13.44,8.55-15.58l.31-2.14s-4.89-2.44-5.8-4.88-5.5-11.61-5.5-11.61-12.21,7-15.27,6.72-8.85-3.05-9.16-5.49-19.24-34.2-19.24-34.2-14.65-16.19-18.32-22-12.21-13.13-16.18-15,2.14,9.16,2.14,9.16-9.78-3.36-12.52-4a58.35,58.35,0,0,0-5.81-.92l4.89,5.5s-14-2.14-15.27-1.83,6.72,5.49,7,7,.31,4.58-1.22,5.8-7,5.19-11.6,6.72-8.36-3.8-9.58-3.8-.92-5.19-9.78-10.69-16.65-11.06-16.65-11.06a2.88,2.88,0,0,1-2.14,4c-3.36.92-9.46-6.1-15-9.46a38,38,0,0,0-17.1-5.19,42.75,42.75,0,0,0-9.77.61s4.27,2.74,1.22,3.66-7.78,5-16,2.2-12.21-4-18.32-3.35a40.86,40.86,0,0,0-12.22,3.66l4.58,4.27s-12.21,0-17.71,2.75-10.07,12.22-11.6,14-19.76,13.64-21.9,22.19-3,16.42-5.47,20.7-9.22,8.12-9.52,19.72-.86,21.19-.86,21.19l1.22-8.24s1.53,11.6,2.45,14.35a27,27,0,0,0,3,5.8l1.83-10.38s.31,15,6.11,19.85,15,9.47,15,9.47-1.83-17.72,1.22-24.43a72.64,72.64,0,0,1,6.11-11l-.31,7.33s16.49-15.88,29.32-17.4S189.53,343.43,189.53,343.43Z" style="fill: rgb(38, 50, 56); transform-origin: 261.58px 362.824px 0px;" id="elj0vq6okre0r" class="animable"></path><path d="M202,490.22A28.86,28.86,0,0,1,193,489a15.1,15.1,0,0,1-6.2-4.07c-.43-.43-.84-.84-1.28-1.21-1.8-1.5-6.34-4.84-6.39-4.87l-.26-.19.68-3.07c.44-2-.5-6-1-7.72a31.74,31.74,0,0,0-4.5,6.51c-1.15,2.53,4.2,10.41,6.36,13.23l1.41,1.85-2-1.1s-4.05-2.19-8.9-5.53-9-11.48-9.37-13.14c-.12-.59-.17-.86,0-1.12a.78.78,0,0,1,.68-.24,4.25,4.25,0,0,0,2.28-.7c2.39-1.33,8.19-6.29,9.44-7.37a12.55,12.55,0,0,0-1.61-3.75.83.83,0,0,1-.26-.78c.17-.74,1.32-1.19,3.71-2.05,1.08-.39,2.31-.83,3.41-1.34,3.15-1.43,5.24-7.1,5.52-8.5s-1.51-10.09-5.12-15.81c-.57-.89-1.3-2-2.15-3.25-4.86-7.21-13-19.28-15.33-32.05A169.93,169.93,0,0,1,159.72,363l0-1.31,6.82,8a49,49,0,0,1-1-6.29l-.71-8.56.93.81a10.66,10.66,0,0,0,5.22,2.32c2.37.24,5.47,3.41,7,5.16,0-.59-.11-1.32-.23-2.15-.29-2-3.28-8-3.31-8.09l-.81-1.63,1.53,1s4.3,2.76,8.5,4.86,5.29,1.8,7.29-1.35c1.64-2.57-.79-9.57-1.86-12.05l0,0c-.16-.47-4-11.5-16.26-10-12.51,1.49-28.86,17.11-29,17.27l-.9.87.29-6.79a79,79,0,0,0-5.08,9.43c-3,6.52-1.2,24-1.18,24.17l.09.91-.81-.41c-.09,0-9.28-4.66-15.06-9.53-4-3.39-5.48-11.27-6-16.14l-1.34,7.57-.69-1A27.76,27.76,0,0,1,110,354a98.39,98.39,0,0,1-2-11l-.71,4.8-1-.1c0-.1.55-9.72.86-21.18.23-8.73,4-13.09,7-16.6a23.33,23.33,0,0,0,2.58-3.36c1.61-2.82,2.55-7.32,3.63-12.54.54-2.58,1.09-5.25,1.79-8,1.67-6.69,12.7-15.13,18.62-19.66a36.25,36.25,0,0,0,3.37-2.72,24.52,24.52,0,0,0,1.6-2.45c2.21-3.59,5.89-9.59,10.17-11.72,4.55-2.28,13.4-2.71,16.68-2.79l-4.19-3.92.64-.32a41,41,0,0,1,12.39-3.71c6.19-.62,10.15.59,18.53,3.38,6.26,2.09,10.39.16,13.4-1.24a18.16,18.16,0,0,1,2.31-1c.22-.06.71-.24.75-.5.07-.55-1.17-1.67-2.09-2.26l-1-.67,1.21-.24a42.66,42.66,0,0,1,9.9-.62,38.62,38.62,0,0,1,17.33,5.26,59,59,0,0,1,6,4.51c3.26,2.67,6.63,5.43,8.54,4.9a2.59,2.59,0,0,0,1.76-1.24,2.76,2.76,0,0,0,0-2.06l-.61-1.57,1.37,1c.08,0,7.89,5.61,16.63,11,6.26,3.89,8,7.59,9,9.57A4,4,0,0,0,285,268h0c.5,0,1.11.49,2,1.23,1.75,1.42,4.41,3.57,7.34,2.58,4.44-1.47,9.77-5.29,11.45-6.63,1.25-1,1.37-3.71,1-5.31-.11-.59-2.47-2.51-3.88-3.66-2.72-2.22-3.4-2.86-3.26-3.47a.62.62,0,0,1,.49-.48c1.09-.27,10.19,1,14.1,1.62l-4.82-5.42,1.27.12s3.12.32,5.86.93c2.2.49,8.65,2.65,11.37,3.57-1.51-2.83-3.7-7.49-2.61-8.66.37-.4.95-.43,1.73-.07,4.25,2,12.82,9.49,16.39,15.15s18.13,21.76,18.27,21.92c2,3.34,19.06,32,19.37,34.47.26,2.11,5.78,4.77,8.71,5.07,2.35.22,11.61-4.73,15-6.66l.46-.26.24.47c.18.38,4.6,9.21,5.51,11.65.7,1.85,4.25,4,5.56,4.62l.32.16-.35,2.49c-.31,2.18-7.77,14.38-8.62,15.77l-1.85,3,.94-3.41c.84-3,2.36-9.25,2.13-11.1-.29-2.3-6.33-9-7.63-9h0c-1,.2-1.76,4.1-1.43,7.09.23,2.07,3.46,4.86,4.69,5.76l.25.19L405,342a48.86,48.86,0,0,1-2.47,7.72c-1.57,3.93-8.59,10.78-9.39,10.78h-.33l-.13-.3a.56.56,0,0,1,.18-.64c.86-.85,4.13-8.37,4.13-11.55,0-2.49-2.92-7.79-4.21-10-.83,3.07-2.95,10.78-3.75,11.85-1,1.28-7.51,2.34-9.49,2.63l-2.48.37,2.15-1.29a21.73,21.73,0,0,0,4.46-3.56c1.35-1.62,2-6.22,1.72-9.09-.24-2.1-.84-5.32-1.1-6.66-2.19,1-10,4.78-12,7.8-2.29,3.43.65,14.14.68,14.25l.35,1.25-1.1-.7a16.71,16.71,0,0,1-5.69-7.56c-.95-2.29-2.35-5.26-3.47-7.64-2.45-5.2-2.43-5.22-2-5.54a.57.57,0,0,1,.76.12c.57.58,3.07-.69,4.41-1.37l.51-.25c1.84-.92,2.86-2.46,3.39-5.15.05-.22.1-.47.16-.75.78-3.58,2.6-12-4.27-18-1.58-1.39-3.7-3.34-6.16-5.59-8.52-7.82-22.73-20.86-26.07-20.86h-.08c-4.28.31-8,1.23-14,9.87-5.33,7.73-10.6,11.06-12,11.87.5,1.76,2.58,9.22,4.17,16.13,1.55,6.7,2.89,15.44,3.26,18l3.8-2,.23.46c.05.1,1.28,2.69-.57,10.11-1.61,6.45-4.37,15.1-8.35,19.75-1.92,2.24-4,6.58-6.48,11.61-2.12,4.34-4.51,9.25-7.22,13.67A41.17,41.17,0,0,0,292,401.69a53.81,53.81,0,0,1-6.47,13.76A176.09,176.09,0,0,1,269,437.51l-.31.35-.37-.29c-.11-.09-11.35-8.9-17.38-13.12-5.79-4.05-9.05-13.92-12.51-24.37l-.81-2.44c-3.29-9.88-8.8-26.4-11.09-27.83-2.12-1.33-14.35,1.16-21.42,6.39s-14.42,21.5-13.24,29.45c1.5,10.13,5.31,30.51,6.58,31.78,1.45,1.45,5.89,2.25,10.83,1.09,3.78-.89,4.43-2.4,4.95-3.61a4.34,4.34,0,0,1,.57-1.09,1.2,1.2,0,0,1,1.15-.37c2.89.23,11.25,4.91,13.73,9.6,2.81,5.31.74,12.87.65,13.19l-.43,1.54-.52-1.51c0-.07-2.42-6.84-6.15-8.56-3.5-1.62-11.09-1.77-12.42-1.79-2.2,2.13-7.57,7.62-8.27,9.73-.84,2.53,1.76,13,4.1,14.71s12.71,9.08,12.81,9.16l.91.64-1.08.25c-.38.09-9.3,2.16-12.13,1.53s-7-2.87-8.27-5.13a74.87,74.87,0,0,1-6.16-17.25c-.33-1.7-.85-2.72-1.53-2.95-1.06-.35-2.71,1.15-3.91,2.24l-.77.69c-1.75,1.5-.2,8.21,4.35,14.28s12.72,15.45,12.8,15.55l.68.77-1,.06C203.24,490.2,202.75,490.22,202,490.22Zm-22-12c1,.74,4.58,3.38,6.17,4.71.48.4.9.82,1.35,1.27a14,14,0,0,0,5.83,3.83,28.51,28.51,0,0,0,8.83,1.22c-2.09-2.42-8.39-9.78-12.15-14.8-4.68-6.24-6.64-13.54-4.2-15.64l.75-.67c1.46-1.33,3.28-3,4.9-2.44,1.07.35,1.78,1.56,2.19,3.7a73.49,73.49,0,0,0,6.05,16.95c1.11,1.94,4.93,4.05,7.61,4.64,2.06.46,8.1-.74,10.59-1.28-2.6-1.84-9.92-7-11.91-8.51-2.68-2-5.42-12.93-4.45-15.83s8.36-10,8.68-10.28l.14-.14h.2c.37,0,9,0,13,1.88,3,1.37,5.08,5.38,6.06,7.61.45-2.46,1-7.32-.91-10.89-2.72-5.13-12.23-9.52-13.25-9.06a6.82,6.82,0,0,0-.4.84c-.58,1.35-1.37,3.19-5.64,4.19-5.48,1.29-10.15.27-11.77-1.35-1.79-1.8-6-26.26-6.86-32.34-1.22-8.22,6.3-25,13.64-30.41,6.83-5,19.65-8.24,22.54-6.43,2.4,1.5,6.64,13.73,11.51,28.36l.81,2.45c3.4,10.29,6.62,20,12.13,23.86s15.06,11.3,17.06,12.86a176.19,176.19,0,0,0,16.13-21.57,53.06,53.06,0,0,0,6.37-13.54,41.7,41.7,0,0,1,4.62-10.27c2.68-4.38,5.07-9.27,7.17-13.59,2.48-5.09,4.61-9.48,6.62-11.82,3.85-4.5,6.55-13,8.14-19.34,1.3-5.22,1-7.89.79-8.92l-4.06,2.19-.1-.71c0-.11-1.55-10.76-3.35-18.59s-4.25-16.38-4.27-16.46l-.12-.4.38-.19c.05,0,6.07-3.11,12-11.74,6.2-9,10.34-10,14.73-10.29,3.37-.23,14.62,9.85,26.9,21.11,2.45,2.25,4.57,4.19,6.14,5.58,7.31,6.43,5.41,15.22,4.59,19-.06.28-.11.52-.16.74-.59,3-1.8,4.78-3.93,5.84l-.5.26c-1.57.79-3.3,1.68-4.53,1.6.4.92,1.1,2.41,1.79,3.87,1.12,2.39,2.53,5.36,3.48,7.68a17.58,17.58,0,0,0,4.18,6.18c-.75-3.17-2.18-10.58-.17-13.59,2.49-3.75,12.61-8.24,13-8.43l.57-.25.12.61c0,.05.93,4.63,1.23,7.37s-.29,7.85-1.95,9.84a16.32,16.32,0,0,1-2.77,2.48c3.18-.58,6.18-1.35,6.57-1.87.63-.84,2.72-8.21,3.89-12.66l.29-1.13.62,1c.2.33,5,8.1,5,11.56,0,2.37-1.58,6.73-2.91,9.59,2.22-2.14,5.45-5.57,6.52-8.25a51.2,51.2,0,0,0,2.35-7.24c-1-.79-4.54-3.69-4.82-6.26s.21-7.78,2.23-8.18a2.36,2.36,0,0,1,1.72.66c2.35,1.69,6.84,7,7.12,9.23.19,1.55-.63,5.39-1.31,8.21,3.06-5.11,6.55-11.24,6.73-12.49l.25-1.79c-1.13-.6-4.88-2.74-5.72-5-.78-2.07-4.29-9.17-5.24-11.08-2.48,1.41-12.21,6.82-15.11,6.52s-9.25-3.07-9.6-5.93c-.22-1.72-11.59-21.28-19.18-34-.54-.58-14.67-16.2-18.31-22-3.77-6-12.29-13.08-16-14.78-.44-.2-.59-.15-.59-.15-.45.53,1.12,4.56,3.37,8.61l.64,1.14-1.24-.42c-.09,0-9.77-3.36-12.46-4-1.6-.36-3.31-.61-4.45-.76l4.93,5.55-1.37-.21c-4.76-.72-12.26-1.77-14.49-1.85.56.56,1.7,1.49,2.58,2.21,2.52,2.06,4.06,3.37,4.23,4.24.36,1.79.29,4.95-1.39,6.29s-7.19,5.28-11.76,6.8c-3.45,1.15-6.48-1.29-8.29-2.75a6.19,6.19,0,0,0-1.46-1c-.69,0-1-.64-1.45-1.61-.89-1.89-2.56-5.42-8.58-9.15-6.93-4.31-13.28-8.7-15.68-10.37a3.19,3.19,0,0,1-.32,1.57,3.51,3.51,0,0,1-2.4,1.76c-2.4.66-5.66-2-9.44-5.08a57.7,57.7,0,0,0-5.91-4.44,37.71,37.71,0,0,0-16.87-5.12,44.36,44.36,0,0,0-8.49.41c.78.65,1.68,1.62,1.56,2.53-.09.61-.58,1.06-1.45,1.32a17.2,17.2,0,0,0-2.18.91c-3,1.4-7.5,3.5-14.14,1.29-8.23-2.75-12.13-3.94-18.11-3.34A39.52,39.52,0,0,0,170.14,243l5,4.63h-1.27c-.12,0-12.16,0-17.48,2.7-4,2-7.62,7.86-9.76,11.35a27.3,27.3,0,0,1-1.69,2.57,32.22,32.22,0,0,1-3.53,2.88c-5.83,4.45-16.67,12.75-18.26,19.11-.69,2.76-1.25,5.42-1.78,8-1.1,5.29-2,9.87-3.74,12.82a24.26,24.26,0,0,1-2.69,3.52c-2.92,3.39-6.55,7.61-6.77,16-.11,4.07-.25,7.92-.38,11.18l.27-1.86.47,3.54c0,.12,1.53,11.59,2.42,14.26a23.2,23.2,0,0,0,2.31,4.63l1.61-9.14,1,.08c0,.15.37,14.79,5.93,19.48a87.45,87.45,0,0,0,14.06,9c-.34-3.76-1.36-17.81,1.35-23.77a74,74,0,0,1,6.15-11.08l1-1.37-.32,7.79c3.64-3.34,17.42-15.36,28.7-16.7,12.81-1.52,17.11,10.09,17.32,10.7s4,9.47,1.79,13-4.12,3.94-8.59,1.7c-2.73-1.37-5.49-3-7.12-4a35.36,35.36,0,0,1,2.65,6.83,28.36,28.36,0,0,1,.31,3.74v1.44l-.89-1.13c-1.24-1.57-5-5.69-7.29-5.92A11,11,0,0,1,166,357l.52,6.23a57.56,57.56,0,0,0,1.51,8.15l.57,2.12-7.89-9.2a168,168,0,0,0,2.44,28.19c2.31,12.56,10.37,24.53,15.18,31.67.86,1.28,1.6,2.38,2.16,3.27,3.62,5.74,5.61,14.79,5.26,16.55-.22,1.1-2.28,7.48-6.09,9.21-1.14.52-2.38,1-3.48,1.37a15.7,15.7,0,0,0-3,1.27c.95,1.09,1.78,4.06,1.87,4.41l.09.3-.24.21c-.29.25-7.09,6.16-9.86,7.69a5.53,5.53,0,0,1-2.53.83c0,.05,0,.1,0,.17.31,1.52,4.29,9.3,9,12.51,2.72,1.87,5.17,3.37,6.79,4.32C176,483,172,476.65,173.2,473.92a34.91,34.91,0,0,1,5.28-7.46l.59-.65.26.84c.07.26,1.86,6.27,1.23,9.11Z" style="fill: rgb(38, 50, 56); transform-origin: 261.58px 362.873px 0px;" id="el76z8z4i1egs" class="animable"></path><path d="M233.63,357.05a10,10,0,0,0-.62,5.83,22.3,22.3,0,0,0,2.77,6.76l4-4s.61,5.53,2.15,8.29a24.86,24.86,0,0,0,3.68,4.92l4-4.92s2.15,6.45,2.77,8.6,3.68,4.91,3.68,4.91l3.69-4.91s4.91,6.76,7.06,8.6,8.6,6.45,8.6,6.45l17.5-15.05v5.53s8.9-8.29,11.05-10.44,5.53-6.45,5.53-6.45l.61,2.76a70.18,70.18,0,0,0,4.3-10.74c1.23-4.61-1.84-15.05-1.84-15.05" style="fill: rgb(38, 50, 56); transform-origin: 273.759px 372.86px 0px;" id="elal3cz7py94b" class="animable"></path><path d="M275.42,398.21l-.32-.23c-.27-.18-6.49-4.64-8.64-6.47-1.83-1.57-5.51-6.48-6.74-8.14l-3.6,4.81-.41-.36c-.13-.12-3.19-2.89-3.83-5.15-.47-1.65-1.87-5.88-2.47-7.71l-3.77,4.63-.39-.39a18.88,18.88,0,0,1-5.84-12.49l-3.72,3.72-.34-.53a22.89,22.89,0,0,1-2.83-6.93,10.5,10.5,0,0,1,.66-6.15l.9.45a9.5,9.5,0,0,0-.57,5.52,20.77,20.77,0,0,0,2.37,6l4.27-4.28.12,1c0,.05.62,5.46,2.08,8.1a25.55,25.55,0,0,0,3.22,4.4l4.21-5.18.29.87c0,.06,2.16,6.48,2.77,8.61.44,1.55,2.31,3.5,3.14,4.31l3.75-5,.4.55c.05.06,4.91,6.73,7,8.51,1.83,1.57,6.92,5.24,8.24,6.19l18-15.5v5.47c2.27-2.12,8.47-7.92,10.2-9.64,2.1-2.11,5.45-6.36,5.49-6.41l.65-.83.53,2.39a63.79,63.79,0,0,0,3.64-9.36c1.18-4.42-1.81-14.67-1.84-14.78l1-.28c.13.43,3.1,10.63,1.85,15.32a70.21,70.21,0,0,1-4.34,10.84l-.63,1.26-.69-3.12c-1.09,1.36-3.32,4.08-4.91,5.67-2.13,2.13-11,10.37-11.07,10.45l-.84.79v-5.59Z" style="fill: rgb(38, 50, 56); transform-origin: 273.762px 373.07px 0px;" id="el9gq3vhdvsk" class="animable"></path><path d="M275.39,397.58s-6.45-4.61-8.6-6.45-7.06-8.6-7.06-8.6L256,387.44s-3.07-2.76-3.68-4.91-2.77-8.6-2.77-8.6l-4,4.92a24.86,24.86,0,0,1-3.68-4.92c-1.54-2.76-2.15-8.29-2.15-8.29L236,369.38a68.89,68.89,0,0,0,2.51,14.38l3.38-.61s-1.23,6.44-.62,8,2.77,6.14,2.77,6.14l3.38-4.61s-.31,7.37-.31,9.22,3.38,11.05,3.38,11.05l2.76-5.53s1.53,7.68,2.15,8.91,5.83,6.14,5.83,6.14l.62-5.22s4.3,6.45,5.52,7.06a2.58,2.58,0,0,0,3.38-1.23c.62-1.22,4.61-7.37,4.61-7.37v4.92s5.52-9.83,5.83-10.75,3.07-7.68,3.07-7.68l.31,4.61s1.84-7.06,1.84-8.91-.31-4.6-.31-4.6h2.15s1.23-5.22,1.54-6.76A14.09,14.09,0,0,0,290,385Z" style="fill: rgb(255, 121, 85); transform-origin: 263px 395.089px 0px;" id="eluck2y8p5ej" class="animable"></path><path d="M268.43,425a2.73,2.73,0,0,1-1.25-.29c-1-.51-3.6-4.13-5-6.12l-.58,4.87-.72-.68c-.54-.51-5.3-5-5.94-6.28a60.86,60.86,0,0,1-1.9-7.61l-2.64,5.27-.39-1.09c-.35-1-3.41-9.35-3.41-11.22,0-1.31.15-5.31.24-7.6l-2.91,4-.36-.77c-.08-.19-2.16-4.63-2.77-6.17-.54-1.35.14-5.75.46-7.54l-3.11.56-.13-.42a70,70,0,0,1-2.52-14.49l0-.23,4.63-4.64.12,1c0,.05.62,5.46,2.08,8.1a25.55,25.55,0,0,0,3.22,4.4l4.21-5.18.29.87c0,.06,2.16,6.48,2.77,8.61.44,1.54,2.31,3.5,3.14,4.31l3.75-5,.4.55c.05.06,4.91,6.73,7,8.51,1.83,1.57,6.92,5.24,8.24,6.19l15.19-13.06-.08,1.19a12.81,12.81,0,0,1-.16,1.55c-.31,1.53-1.49,6.56-1.54,6.77l-.09.39h-2c.09.91.25,2.74.25,4.1,0,1.89-1.78,8.74-1.86,9l-.77,3-.37-5.52c-.84,2.06-2.05,5.06-2.24,5.64-.32.94-5.31,9.82-5.88,10.83l-.93,1.67v-5.13c-1.22,1.88-3.25,5.07-3.66,5.9a3.21,3.21,0,0,1-1.73,1.55A3.06,3.06,0,0,1,268.43,425Zm-6.89-9.21.75,1.13c1.64,2.45,4.53,6.49,5.34,6.89a1.87,1.87,0,0,0,1.52.06,2.19,2.19,0,0,0,1.18-1.06c.62-1.24,4.47-7.17,4.64-7.42l.92-1.41v4.68c2.12-3.79,4.67-8.43,4.86-9,.31-.92,3-7.43,3.08-7.71l.82-2,.23,3.55a38.18,38.18,0,0,0,1.06-5.67c0-1.79-.3-4.52-.3-4.55l-.06-.55h2.31c.29-1.24,1.19-5.09,1.44-6.36,0-.05,0-.12,0-.2l-13.94,12-.32-.23c-.27-.18-6.49-4.64-8.64-6.47-1.83-1.57-5.51-6.48-6.74-8.14l-3.6,4.81-.41-.36c-.13-.12-3.19-2.89-3.83-5.15-.47-1.65-1.87-5.88-2.47-7.71l-3.77,4.63-.39-.39a18.88,18.88,0,0,1-5.84-12.49l-2.86,2.86a69.48,69.48,0,0,0,2.34,13.62l3.66-.67-.14.72c-.47,2.44-1,6.68-.64,7.7s1.76,4,2.39,5.35L248,391l-.07,1.65c0,.07-.3,7.38-.3,9.19,0,1.26,1.87,6.75,3,9.79l2.89-5.79.29,1.43a81.62,81.62,0,0,0,2.11,8.77,43.19,43.19,0,0,0,5,5.32Z" style="fill: rgb(38, 50, 56); transform-origin: 263.02px 394.775px 0px;" id="elxob3fpv4qgo" class="animable"></path><g id="elp88bakwdnmb"><path d="M274.27,399.75s-5-3.31-6.62-4.64a58.88,58.88,0,0,1-5.45-6.17l-2.84,3.53s-4-1.17-4.52-2.71-4.26-6.48-4.26-6.48l-.17,3.92a23.34,23.34,0,0,0-1.94-4.44c-1.18-2-2.34-1.65-2.34-1.65l-2.87,2.68c.23,2.88,1.44,2.53,2.61,6l2.6-.44a44.19,44.19,0,0,0,1.09,5.83,19,19,0,0,1,.57,4.32l2.6-3.31s-.23,5.29-.23,6.61,2.6,7.94,2.6,7.94l2.13-4a59.12,59.12,0,0,0,1.66,6.4c.47.88,4.49,4.41,4.49,4.41l.48-3.75s3.31,4.63,4.26,5.08a2,2,0,0,0,2.6-.89c.48-.88,3.55-5.29,3.55-5.29v3.53s4.26-7.06,4.5-7.72,2.37-5.51,2.37-5.51l.23,3.3a48.85,48.85,0,0,0,1.42-6.39c0-1.33-.23-3.31-.23-3.31h1.65s1-3.75,1.19-4.85a8.75,8.75,0,0,0,.12-1.07Z" style="fill: rgb(255, 255, 255); opacity: 0.5; transform-origin: 264.39px 400.073px 0px;" class="animable"></path></g><path d="M277,399.81l-3.92,1.37s-10.23-7-10.57-5.8,7.84,11.59,10.23,10.91S277,399.81,277,399.81Z" style="fill: rgb(255, 255, 255); transform-origin: 269.75px 400.782px 0px;" id="elztoo1bg0i3n" class="animable"></path><path d="M266.48,361s-2.76-9.83-8.29-13.82-17.81-7.06-17.81-7.06-.92,8.6,4.61,14.12S266.48,361,266.48,361Z" style="fill: rgb(255, 121, 85); transform-origin: 253.401px 350.56px 0px;" id="elr4xpllxvrv" class="animable"></path><path d="M267.16,361.59l-.72,0c-.66-.05-16.21-1.31-21.8-6.9s-4.79-14.17-4.75-14.54l.06-.57.55.14c.51.13,12.44,3.14,18,7.14s8.36,13.69,8.47,14.09Zm-26.32-20.8c-.08,2,0,8.67,4.5,13.14,4.67,4.66,17.26,6.22,20.44,6.54-.74-2.3-3.4-9.61-7.88-12.85C253.19,344.23,243.34,341.46,240.84,340.79Z" style="fill: rgb(38, 50, 56); transform-origin: 253.494px 350.585px 0px;" id="elwvty9dp46va" class="animable"></path><path d="M292.28,361.34s.82-.55,2.06-1.45c3.1-2.26,8.77-6.7,10.53-10.21a54.79,54.79,0,0,0,3.68-9.83s-.92,11.67-1.84,16S292.28,361.34,292.28,361.34Z" style="fill: rgb(255, 121, 85); transform-origin: 300.415px 350.595px 0px;" id="elcur7a7ddoyp" class="animable"></path><path d="M290.36,362l1.64-1.09s.82-.55,2.05-1.44c3.14-2.29,8.67-6.64,10.37-10a53.73,53.73,0,0,0,3.64-9.72l1,.16c0,.48-.94,11.75-1.85,16-1,4.53-13.46,5.79-14.88,5.92Zm17.29-17.64a49.72,49.72,0,0,1-2.34,5.52c-1.79,3.59-7.46,8.05-10.67,10.39l-.45.33c4.35-.61,11.44-2.15,12-4.91C306.75,353.21,307.3,348.13,307.65,344.38Z" style="fill: rgb(38, 50, 56); transform-origin: 299.71px 350.875px 0px;" id="elj8l8wsn9yb" class="animable"></path></g><g id="freepik--ghost-2--inject-2" style="transform-origin: 359.668px 191.985px 0px;" class="animable"><path d="M312.77,131.63s-27.87,3.77-35.37,8.15-16,12.6-18.08,12.9-4.13-5.1-3.88-8.41l.26-3.32s-14.79.06-19.57,4.25-8.29,12.63-8.29,12.63,9.49-8.06,12.39-9.22a30.32,30.32,0,0,1,6-1.62,49.51,49.51,0,0,0,2.56,4.49,25.39,25.39,0,0,1,2,3.72l-8.87.77-3.33-3s-5.83,5.4-8.23,11.35-3.77,11.76-3.47,13.83,1.54,8.33,1.77,7,3.62-12.79,4.95-14.57,4.58-3.48,4.58-3.48-1.45,10.42.15,12.72,8.73,7.6,8.73,7.6-7.19-13.14-5.21-15.42,5.51-7,7.19-7.07a47.8,47.8,0,0,1,6.84,1.22s6.77,7.25,6,9.8-8.81,9.85-8.81,9.85,10-5.27,13.46-7.68,6.07-7.65,6.07-7.65l-5.81-1.37s-1.92-8.07-.8-10.56,10.21-4.56,14.68-5.11,17.06.35,17.06.35Z" style="fill: rgb(38, 50, 56); transform-origin: 269.81px 159.525px 0px;" id="elq5gu1bbten" class="animable"></path><path d="M248.62,189.21l-1.83-1.36c-.3-.22-7.2-5.37-8.84-7.71-1.42-2-.7-9.3-.37-12.08a13.5,13.5,0,0,0-3.55,2.85c-1.22,1.64-4.58,12.83-4.86,14.36-.1.55-.46.57-.59.59-1,0-1.83-5.35-2.16-7.64s1.17-8.32,3.49-14.08c2.42-6,8.12-11.31,8.36-11.53l.33-.31,3.51,3.15,7.95-.69a23.51,23.51,0,0,0-1.68-3,42.61,42.61,0,0,1-2.43-4.22,30,30,0,0,0-5.53,1.53c-2.79,1.13-12.16,9.06-12.26,9.14l-1.58,1.34.8-1.92c.14-.35,3.62-8.6,8.42-12.81s19.28-4.36,19.9-4.37h.54l-.3,3.85c-.19,2.48,1,6.18,2.39,7.47a1.15,1.15,0,0,0,.92.42c.86-.13,3.53-2.25,6.36-4.5a104.3,104.3,0,0,1,11.54-8.34c7.5-4.38,34.42-8.06,35.56-8.21l1.11-.15L298,154.33l-.29,0c-.13,0-12.6-.89-17-.35-5.36.65-13.39,2.81-14.29,4.82-.82,1.83.22,7.52.77,9.93l6.11,1.44-.28.57c-.1.22-2.71,5.39-6.22,7.84s-13.1,7.5-13.51,7.71l-3.47,1.83,2.9-2.64c2.2-2,8.05-7.65,8.66-9.63.51-1.63-3.22-6.46-5.76-9.2a45.76,45.76,0,0,0-6.57-1.17c-1.13,0-3.9,3.37-5.55,5.37-.46.56-.9,1.09-1.27,1.52-1.21,1.4,2.35,9.53,5.26,14.86Zm-9.78-23-.14,1c-.39,2.85-1.15,10.61.07,12.36,1,1.5,4.6,4.39,6.81,6.1-2.08-4-5.79-12-4.08-14,.37-.43.8-.95,1.26-1.51,2.67-3.22,4.82-5.7,6.3-5.73a47.56,47.56,0,0,1,7,1.23l.14,0,.1.11c.72.76,7,7.54,6.1,10.29-.52,1.68-3.78,5.09-6.23,7.49,3.23-1.75,8-4.39,10.12-5.88,2.65-1.85,4.83-5.51,5.6-6.91l-5.47-1.29-.07-.3c-.08-.33-1.95-8.26-.78-10.87,1.4-3.12,12.25-5.06,15.08-5.41,4.13-.5,14.92.2,16.87.33l14.24-21c-5.26.76-27.6,4.15-34.08,7.93a106,106,0,0,0-11.42,8.26c-3.75,3-5.76,4.55-6.84,4.71a2.1,2.1,0,0,1-1.75-.67c-1.59-1.5-2.91-5.52-2.69-8.28l.21-2.77c-2.69.06-14.62.54-18.7,4.11-3.22,2.83-5.9,7.71-7.23,10.45,2.88-2.39,8.61-7,10.81-7.87a29.82,29.82,0,0,1,6.11-1.65l.36-.06.16.33a50.4,50.4,0,0,0,2.53,4.42,26.77,26.77,0,0,1,2.07,3.81l.28.63-9.78.86-3.15-2.83c-1.25,1.23-5.77,5.88-7.78,10.85-2.49,6.17-3.7,11.74-3.44,13.57.22,1.46.73,4.09,1.13,5.67.94-3.44,3.48-11.81,4.69-13.44a16.84,16.84,0,0,1,4.76-3.62Z" style="fill: rgb(38, 50, 56); transform-origin: 270.097px 160.1px 0px;" id="elz0tj7xtox7" class="animable"></path><path d="M307.81,133.1A134,134,0,0,1,321,117.32c6.93-6.83,23.47-13,23.47-13l-6.2,10.32s19.29-4.63,22.66-4.7,11.36.34,11.36.34l-8.54,10.24s20.06.55,21.89,1.55,22.48,7.69,22.48,7.69l-12,1.23a131.6,131.6,0,0,1,13.31,15.8c5.88,8.44,20.55,39.26,18.93,57.78s-10.75,28.32-10.75,28.32l-.12-8.76s-5.65,24.19-18.67,31.27a74.34,74.34,0,0,1-24.66,8.38l6.72-7.54a61.07,61.07,0,0,1-23.42,3.22s10.92-14.18,5.46-26.9-30.34-23.88-30.34-23.88l.55,4.47s-22.43-9.76-35.19-23.06C283.86,175.4,291.76,144,307.81,133.1Z" style="fill: rgb(38, 50, 56); transform-origin: 359.559px 184.05px 0px;" id="elupn1ej6uaxk" class="animable"></path><path d="M373,264.46l6.34-7.11A62.74,62.74,0,0,1,357.49,260l-.93-.07.57-.73c.1-.14,10.67-14.1,5.39-26.41-4.76-11.11-25-21.19-29.27-23.23l.54,4.43-.8-.34c-.23-.1-22.67-10-35.35-23.17-5.79-6-8.35-15.21-7.24-25.85,1.39-13.24,8.08-25.74,17.06-31.89A133.63,133.63,0,0,1,320.68,117c6.92-6.82,23-12.81,23.64-13.06l1.34-.5-6.32,10.52c4.25-1,18.67-4.38,21.61-4.44,3.36-.07,11.32.34,11.4.34l1,.06-8.52,10.21c4.41.13,19.38.65,21.08,1.58,1.42.77,15.27,5.34,22.4,7.66l2.25.73-13.3,1.36a132.9,132.9,0,0,1,12.64,15.13c6.4,9.17,20.6,40,19,58.11-1.61,18.47-10.79,28.51-10.88,28.61l-.85.91-.09-6.45c-2.09,7-7.76,22.59-18,28.15a75.27,75.27,0,0,1-24.85,8.43Zm9.69-9.38-7.16,8A76.73,76.73,0,0,0,398.65,255c12.66-6.89,18.36-30.7,18.41-30.94l.93-4,.16,11.48c2.29-3,8.48-12.21,9.77-27,1.56-17.85-12.5-48.36-18.84-57.45a133.22,133.22,0,0,0-13.26-15.74l-.75-.74,10.68-1.1c-5.43-1.77-18.81-6.18-20.31-7-1.27-.68-14-1.27-21.67-1.48l-1,0,8.55-10.26c-2.25-.1-7.72-.35-10.32-.29-3.28.07-22.37,4.64-22.56,4.69l-1.16.27,6.07-10.08c-4.08,1.62-16.32,6.77-21.94,12.31a134.45,134.45,0,0,0-13.16,15.72l-.13.12c-8.64,5.88-15.35,18.43-16.7,31.22-1.08,10.35,1.39,19.24,7,25.05,11.19,11.67,30.11,20.7,34.22,22.59L332,207.9l.8.37c1,.45,25.13,11.37,30.6,24.13,4.8,11.17-2.84,23.53-5,26.66a61.06,61.06,0,0,0,22.31-3.25Z" style="fill: rgb(38, 50, 56); transform-origin: 359.586px 183.95px 0px;" id="elll36kfulmk" class="animable"></path><path d="M310.57,189.33s-3.34,3,2.4,7.59,14.83,6.57,14.83,6.57Z" style="fill: rgb(255, 121, 85); transform-origin: 318.702px 196.41px 0px;" id="el5fm8uv517bs" class="animable"></path><path d="M329.73,204.43l-2-.45c-.38-.09-9.27-2.1-15-6.67-2.3-1.82-3.5-3.65-3.56-5.44a3.92,3.92,0,0,1,1.14-2.91l.32-.29ZM310.64,190a3,3,0,0,0-.54,1.83c.06,1.45,1.16,3.07,3.18,4.67,3.88,3.07,9.39,5,12.42,5.88Z" style="fill: rgb(38, 50, 56); transform-origin: 319.449px 196.55px 0px;" id="elxixahjp1zs" class="animable"></path><path d="M314.4,186.8s3.83,7.59,17.7,13.66,18.66,9.6,13.4-1-20.57-17.7-25.36-18.21S308.66,176.69,314.4,186.8Z" style="fill: rgb(255, 121, 85); transform-origin: 329.885px 193.134px 0px;" id="elazavt835qdn" class="animable"></path><path d="M346.45,206.74c-1.64,0-4.54-1.32-9.18-3.42-1.6-.73-3.39-1.54-5.37-2.41-13.74-6-17.71-13.41-17.94-13.87-2.14-3.77-2.72-5.82-1.94-6.86s2.77-.62,5-.07a25.66,25.66,0,0,0,3.16.64c5.09.53,20.4,7.67,25.75,18.47,2.12,4.28,2.59,6.2,1.73,7.08A1.57,1.57,0,0,1,346.45,206.74Zm-32.77-26.22c-.41,0-.72.07-.86.27-.27.35-.36,1.57,2,5.77l0,0c0,.07,3.94,7.51,17.45,13.42,2,.86,3.78,1.68,5.39,2.41,4.6,2.09,8.58,3.9,9.27,3.2.31-.33.23-1.62-1.91-5.94-5.25-10.59-20.6-17.47-25-17.93a25,25,0,0,1-3.3-.66A15.47,15.47,0,0,0,313.68,180.52Z" style="fill: rgb(38, 50, 56); transform-origin: 329.878px 193.143px 0px;" id="eliqf4wm3w01" class="animable"></path><path d="M339.28,185.79a109.16,109.16,0,0,0,11.48,16.69c7.17,8.59,7.65-5.56,3.83-11.63S340.23,170.12,339.28,185.79Z" style="fill: rgb(255, 121, 85); transform-origin: 348.119px 191.981px 0px;" id="elesk4u27il2" class="animable"></path><path d="M354.59,205.68c-1,0-2.38-.68-4.21-2.88A110.8,110.8,0,0,1,338.84,186l-.07-.13v-.14c.27-4.48,1.33-6.9,3.24-7.39,4.11-1.05,10.45,8.19,13,12.21s3.49,12.74.81,14.69A2,2,0,0,1,354.59,205.68Zm-14.8-20a110.11,110.11,0,0,0,11.35,16.48c1,1.23,2.92,3.16,4.09,2.31,1.91-1.4,1.63-9.08-1.07-13.35-3.89-6.17-9.06-12.51-11.9-11.78C340.89,179.69,340,181.88,339.79,185.68Z" style="fill: rgb(38, 50, 56); transform-origin: 348.1px 191.969px 0px;" id="elu3gp1pqu3mn" class="animable"></path><path d="M356,185.79s1.91,11.13,6.7,16.18S364.63,182.76,356,185.79Z" style="fill: rgb(255, 121, 85); transform-origin: 360.505px 194.096px 0px;" id="elzuubjr4ye3" class="animable"></path><path d="M363.88,203.17a2.23,2.23,0,0,1-1.53-.85c-4.83-5.11-6.74-16-6.82-16.44l-.07-.42.39-.14c2.76-1,5.32.51,7.22,4.17,2.47,4.76,3.28,12.18,1.48,13.46A1.1,1.1,0,0,1,363.88,203.17Zm-7.28-17c.41,2.09,2.39,11.16,6.48,15.49.31.33.71.64.89.51,1-.72.7-7.39-1.79-12.19C361.08,187.82,359.22,185.5,356.6,186.14Z" style="fill: rgb(38, 50, 56); transform-origin: 360.492px 194.094px 0px;" id="ell9v7aaml5o8" class="animable"></path><path d="M331.62,159.85a6.78,6.78,0,1,0,7.86-5.48A6.79,6.79,0,0,0,331.62,159.85Z" style="fill: rgb(255, 121, 85); transform-origin: 338.294px 161.046px 0px;" id="el5p6b59t9t3x" class="animable"></path><path d="M338.31,168.32a7,7,0,0,1-1.29-.11,7.28,7.28,0,1,1,2.55-14.33,7.28,7.28,0,0,1-1.26,14.44Zm0-13.56a6.28,6.28,0,0,0-6.17,5.18h0a6.28,6.28,0,0,0,1,4.7,6.29,6.29,0,0,0,8.74,1.55,6.28,6.28,0,0,0-2.49-11.33A7.17,7.17,0,0,0,338.28,154.76Z" style="fill: rgb(38, 50, 56); transform-origin: 338.182px 161.026px 0px;" id="eliea070l30ok" class="animable"></path><path d="M299.68,158a6.78,6.78,0,1,0,7.86-5.49A6.79,6.79,0,0,0,299.68,158Z" style="fill: rgb(255, 121, 85); transform-origin: 306.356px 159.186px 0px;" id="el9y9636l1wol" class="animable"></path><path d="M306.36,166.49a7,7,0,0,1-1.28-.12A7.28,7.28,0,0,1,307.63,152a7.28,7.28,0,0,1-1.27,14.45Zm0-13.56a6.28,6.28,0,0,0-6.17,5.18h0a6.28,6.28,0,1,0,7.29-5.09A7.14,7.14,0,0,0,306.34,152.93Z" style="fill: rgb(38, 50, 56); transform-origin: 306.353px 159.188px 0px;" id="el4wv1p9468an" class="animable"></path><path d="M397.23,168.5s16.84,1.65,21.95,1.22a48.7,48.7,0,0,0,11.44-2c2.51-.89-2.9-8.24-2.9-8.24l8.36,5.86L432.36,158c-1.49-3,2.68-1.88,15.42,11.47s14.49,22.4,17.9,33.42,4.2,33,4.2,33,1.82,3,7.83,5.09,9.35.32,9.35.32,6,15.18,5.22,19.73-1.45,8.14-1.45,8.14-2.19-8.45-3.36-11.34-10.77-9.31-10.77-9.31l8.22,14.23s-.52,2.93-3.88,6.7-9.78,9.67-9.78,9.67,3.14-13.88,3.18-17.9-7-13.67-7-13.67-.82,10.27-2.11,13.73-15.52,8-15.52,8l-4.68-.16s11.43-5.7,12.54-8.18.05-19.14-1-21-13-2.32-13-2.32-3.86,4.69-3.79,8.06-1.08-10.94-.26-15.5a16.81,16.81,0,0,1,3.34-7.46l1.18,6.59s9.25-1,11.38-1.67,4.93-3.15,4.93-3.15S446.29,191,443.27,189.12s-23.9-1.57-32.74.89" style="fill: rgb(38, 50, 56); transform-origin: 444.79px 217.873px 0px;" id="el0fsg5k5he2l" class="animable"></path><path d="M470.41,280.53l.36-1.57c0-.13,3.13-13.87,3.17-17.8,0-3-4.28-9.62-6.09-12.25-.27,2.93-1,9.74-2,12.5-1.33,3.59-14.36,7.81-15.84,8.28l-.08,0-6.74-.23,1.77-.88c4.53-2.26,11.54-6.23,12.31-7.94,1-2.29,0-18.83-.95-20.55-.54-1-6.77-1.82-12.35-2.05-.7.9-3.58,4.76-3.52,7.54,0,.57,0,.81-.28,1l-.28.15-.25-.19c-.72-.52-.93-13.79-.45-16.49a17.3,17.3,0,0,1,3.46-7.71l.69-.79,1.28,7.16c1.9-.22,9-1.07,10.83-1.6a15.38,15.38,0,0,0,4.46-2.81c-5.69-13.38-14.78-33.44-16.88-34.75-2.85-1.77-23.63-1.47-32.34,1l-.27-1c8.46-2.36,29.83-2.89,33.13-.84,3.07,1.91,16,32.11,17.43,35.54l.13.33-.26.24c-.12.11-2.91,2.61-5.12,3.26s-11.09,1.64-11.47,1.69l-.46.05-1.06-5.91a17,17,0,0,0-2.56,6.32c-.48,2.66-.27,8.54-.05,12.33a23.55,23.55,0,0,1,3.22-5.3l.16-.19h.24c2.89.11,12.38.62,13.45,2.58s2.13,18.86,1,21.44c-.92,2.05-7.72,5.8-11.05,7.54l2.66.09c4-1.26,14.15-5,15.12-7.65,1.25-3.36,2.07-13.5,2.08-13.6l.11-1.35.8,1.1c.29.4,7.11,9.82,7.06,14,0,3.27-2,12.67-2.85,16.44,2-1.88,6.14-5.81,8.58-8.55a16,16,0,0,0,3.72-6.28l-9.19-15.91,1.78,1.19c.4.26,9.75,6.53,11,9.53.8,2,2.06,6.5,2.79,9.22l1.06-5.91c.69-3.93-4-16.4-5-19-1.19.43-4.36,1.18-9.23-.5-6.12-2.11-8-5.17-8.09-5.3l-.07-.11v-.13c0-.22-.82-22-4.18-32.86-.34-1.1-.66-2.18-1-3.25-2.9-9.68-5.41-18-16.8-30-10-10.45-14-12.67-14.84-12.68a1.92,1.92,0,0,0,.23.63l4.62,9.16-7.79-5.46c1.16,1.88,2.48,4.44,2.06,5.81a1.4,1.4,0,0,1-.91.95,49.34,49.34,0,0,1-11.57,2c-5.09.43-21.35-1.16-22-1.23l.1-1c.17,0,16.85,1.64,21.86,1.22a48.27,48.27,0,0,0,11.31-2,.39.39,0,0,0,.29-.3c.4-1.3-1.89-5.09-3.42-7.17l-1.81-2.46,9.23,6.47-2.83-5.61c-.58-1.15-.3-1.67,0-1.9,2.14-1.52,12.05,8.45,16.2,12.81,11.56,12.11,14.1,20.57,17,30.38.32,1.06.64,2.13,1,3.23,3.25,10.49,4.14,31.05,4.22,33,.37.51,2.36,3,7.49,4.77,5.7,2,8.92.37,9,.35l.49-.25.2.51c.25.63,6.08,15.37,5.25,20l-1.85,10.4-.58-2.22c0-.09-2.19-8.45-3.33-11.29-.74-1.84-5.58-5.56-8.76-7.81l7.19,12.46,0,.18c0,.12-.58,3.11-4,6.94s-9.75,9.65-9.82,9.71Z" style="fill: rgb(38, 50, 56); transform-origin: 445.13px 218.302px 0px;" id="el0jsdq8rixos" class="animable"></path></g><g id="freepik--ghost-1--inject-2" style="transform-origin: 145.862px 135.41px 0px;" class="animable"><path d="M283.49,55.76c-.91-3.29-3.24-13.86-3.24-13.86l-1.93,11.16a56.1,56.1,0,0,0-2.52-7,32.52,32.52,0,0,0-3-5.37s.72,6.88.48,8.13-.65,7.26-2.69,8.41-20.7,5.14-23.4,5-5.61-6.41-4.58-12.3,6.25-9.4,6.25-9.4a15.78,15.78,0,0,0-6.61.65c-4.11,1.14-12.17,7.2-12.17,7.2a28.77,28.77,0,0,1,5.34,6.49c2.23,3.81.08,14.14.87,26.6s-16.6,33.81-16.6,33.81-1.39,2.45-6.8,1c-4.22-1.13-13.16-8.44-17.08-12.14-2.17-5.82-4.41-11.64-6.42-16.55l-7.11-17.34s4.26-5.69,3.13-12.51-8-8.82-8-8.82-.56,11.94-5.68,12.8c0,0-12.8-11.38-27.3-11.66s-27,10.52-31.56,16.49a39.51,39.51,0,0,0-6.25,13.08s-7.68,2-10.24.57a11.08,11.08,0,0,1-4-4.55s-4,11.37,0,13.65S107,93,107,93s1.42,30.42,1.14,35.26-1.14,6.54-1.14,7.67-9.66,15.93-14.5,18.77-6.82.85-6.82.85-22.46-15.92-25-28.14-7.39-21.61-6.26-25.88a28.94,28.94,0,0,1,3.42-7.67s-9.39-3.7-13.65-3.7a15.73,15.73,0,0,0-6.54,1.14s6,2,8.53,7.39,1.42,12.22-1.14,13.08-21.61,2-23.88,1.42-4.27-6.26-4.84-7.39-1.7-8-1.7-8a33,33,0,0,0-1.42,6,55.3,55.3,0,0,0-.57,7.39L7.74,101s.57,10.81.57,14.22,3.13,13.65,3.13,13.65l5.4-3.7a13.18,13.18,0,0,0,6.54,7.11c5.12,2.56,6.26,4.55,6.26,4.55s8.53-9.1,12.51-10.24,11.09,1.14,11.94,2.56,11.37,28.15,17.06,37.82,17.34,16.77,17.34,16.77l1.42-7.11,3.42,5.69s3.12-5.69,10.8-10.81a65.61,65.61,0,0,0,11.94-9.95s2.28,14.5,10.81,27l8.52,12.51s.86-6.25.29-10A49.42,49.42,0,0,0,134,184s12.51,14.51,15.36,20.76a104.74,104.74,0,0,1,4.26,10.8l10.24-10.23a70.68,70.68,0,0,1,.57,15.64l-.57,9.66s21.32-21.32,27.58-33.55,5.68-20.18,5.68-20.18L200,191.1s6.25-17.34,7.39-26.44c.92-7.39-.22-23.24-.68-28.91,8.43,2.89,12.8,7.35,12.8,7.35l1.77-6.39,3.27,6.47s9.34-10,12.24-20.79,5.91-39.4,6.35-41,6.69-5.68,10.83-5.65,14.79,6.53,14.79,6.53.56-2.22,4.81-6a13.22,13.22,0,0,0,4.41-8.6l6.19,2.12S284.4,59,283.49,55.76Z" style="fill: rgb(38, 50, 56); transform-origin: 145.968px 135.529px 0px;" id="elmjgixs88koq" class="animable"></path><path d="M163.26,231.91l.65-11a75.45,75.45,0,0,0-.42-14.56l-10.12,10.12-.25-.79A102.54,102.54,0,0,0,148.88,205c-2.19-4.82-10.34-14.77-13.75-18.84a48.36,48.36,0,0,1,1.05,4.91c.58,3.72-.24,9.83-.28,10.09l-.18,1.29-9.26-13.58c-7.22-10.59-10-22.74-10.7-26.23a71.65,71.65,0,0,1-11.35,9.3,34.81,34.81,0,0,0-10.65,10.63l-.42.76L90.15,178l-1.31,6.54-.61-.37c-.12-.07-11.83-7.29-17.51-16.95-4.09-6.95-10.52-22.33-14.36-31.51-1.38-3.31-2.48-5.93-2.7-6.3-.68-1.13-7.49-3.45-11.37-2.34s-12.2,10-12.29,10.1l-.46.49-.34-.58s-1.18-1.92-6-4.35a14,14,0,0,1-6.56-6.79l-5.44,3.72L11,129c-.13-.42-3.15-10.34-3.15-13.79S7.25,101.11,7.25,101l-.14-2.54,5,10.65c.07-1.43.21-3.41.51-5.37a32.86,32.86,0,0,1,1.45-6.07l.66-1.75.3,1.84a60,60,0,0,0,1.66,7.82c.1.2.25.54.43,1,.73,1.72,2.44,5.75,4.08,6.16,2.17.55,21.14-.59,23.6-1.41a2.89,2.89,0,0,0,1.49-1.74c1-2.43,1.15-6.86-.64-10.65-2.44-5.13-8.18-7.11-8.24-7.13L36.3,91.4l1.08-.54a16.09,16.09,0,0,1,6.76-1.19c4.31,0,13.44,3.58,13.83,3.73l.57.23-.34.51a29,29,0,0,0-3.34,7.53c-.62,2.32.71,6.49,2.4,11.77a135.71,135.71,0,0,1,3.86,13.87c2.49,11.9,24.59,27.69,24.82,27.85.07.06,1.89,1.7,6.28-.88,4.58-2.7,14-17,14.25-18.37a8.29,8.29,0,0,1,.28-1.65,33.15,33.15,0,0,0,.86-6c.26-4.45-1-31.13-1.12-34.79-2-.29-10.65-1.63-14.27-3.7C87.93,87.3,91.83,76,92,75.5l.41-1.17.52,1.13a10.63,10.63,0,0,0,3.77,4.32c1.87,1,7.29,0,9.58-.54a39.84,39.84,0,0,1,6.27-13c5.22-6.86,18-17,32-16.69,13.56.27,25.76,10.21,27.43,11.62,4.46-1.1,5-12.17,5-12.28l0-.64.6.18c.08,0,7.14,2.16,8.32,9.21,1,6.26-2.25,11.5-3.05,12.66l7,17.09c1.8,4.39,4,9.93,6.39,16.45,3.89,3.67,12.69,10.85,16.78,11.94,4.91,1.32,6.23-.74,6.24-.77.22-.27,17.31-21.39,16.54-33.51a137.92,137.92,0,0,1,0-14.41c.22-5.53.39-9.91-.82-12a28.9,28.9,0,0,0-5.23-6.36l-.47-.4.49-.38c.34-.25,8.18-6.13,12.34-7.28a16.11,16.11,0,0,1,6.83-.66l1.19.23-1,.67c-.05,0-5.06,3.48-6,9.08-.72,4.12.57,8.37,2.22,10.43a2.89,2.89,0,0,0,1.9,1.28c2.56.13,21.17-3.83,23.12-4.94,1.48-.83,2.05-5.18,2.29-7,.06-.46.11-.82.16-1a60,60,0,0,0-.49-8l-.2-1.85,1.1,1.5a33.68,33.68,0,0,1,3,5.47,52.91,52.91,0,0,1,1.92,5l2-11.6.55,2.48c0,.11,2.34,10.59,3.23,13.83s.66,13.7.65,14.14l0,.68-6.24-2.14a13.87,13.87,0,0,1-4.5,8.29c-4,3.64-4.67,5.79-4.67,5.81L269,83l-.57-.34c-.1-.07-10.57-6.43-14.53-6.46h0c-4,0-9.94,4-10.29,5.29-.11.42-.47,3.22-.92,6.78-1.25,9.88-3.34,26.42-5.43,34.21-2.9,10.83-12.26,20.9-12.36,21l-.48.53-3-6-1.66,6-.61-.62a34.43,34.43,0,0,0-11.88-7c.53,6.69,1.5,21.2.61,28.25-1.13,9.05-7.35,26.38-7.41,26.55l-.61,1.69-2.44-12.16a51.49,51.49,0,0,1-5.51,16.5c-6.22,12.16-27.46,33.46-27.67,33.68Zm.89-27.61.18.93A71.45,71.45,0,0,1,164.9,221l-.49,8.34c4.18-4.26,21.16-21.92,26.56-32.48,6.11-11.94,5.64-19.85,5.63-19.93l1-.13,2.49,12.43c1.59-4.6,5.85-17.35,6.76-24.62s-.17-22.57-.68-28.81l-.06-.77.72.25a37.36,37.36,0,0,1,12.38,6.9l1.9-6.84,3.52,7c1.94-2.2,9.18-10.86,11.64-20,2.07-7.73,4.24-24.87,5.4-34.08.55-4.34.82-6.45,1-6.92.54-2,7.1-6.06,11.31-6,3.75,0,12.34,5,14.54,6.3a19.39,19.39,0,0,1,4.73-5.7,12.9,12.9,0,0,0,4.24-8.24l0-.67,6.18,2.12c.05-2.4.13-10.46-.62-13.16-.63-2.28-1.95-8.08-2.7-11.41l-1.88,10.86-.59-2.15a55.48,55.48,0,0,0-2.5-6.9,37.29,37.29,0,0,0-1.8-3.53,39.71,39.71,0,0,1,.27,6.17c0,.21-.09.55-.14,1-.31,2.34-.88,6.69-2.79,7.78-2.1,1.18-20.92,5.19-23.67,5.06a3.83,3.83,0,0,1-2.63-1.65c-1.79-2.24-3.19-6.82-2.42-11.24A15.7,15.7,0,0,1,247.57,41a18.77,18.77,0,0,0-5.15.73c-3.4.94-9.71,5.45-11.51,6.76a29.39,29.39,0,0,1,5,6.2c1.36,2.32,1.2,6.6,1,12.52a138.41,138.41,0,0,0,0,14.3c.8,12.52-16,33.28-16.71,34.15,0,0-1.6,2.7-7.32,1.17-4.54-1.22-13.77-8.93-17.29-12.26l-.08-.08-.05-.11c-2.45-6.56-4.61-12.12-6.42-16.53l-7.21-17.61.17-.22c0-.06,4.12-5.61,3-12.13-.87-5.26-5.38-7.54-7-8.2-.21,2.61-1.29,11.79-6.06,12.59l-.24,0-.17-.16c-.13-.11-12.83-11.25-27-11.53-13.56-.27-26.05,9.6-31.15,16.29a39.6,39.6,0,0,0-6.17,12.9l-.07.29-.29.07c-.32.09-7.9,2-10.6.52a10.46,10.46,0,0,1-3.62-3.72c-1.1,3.59-2.53,10.43.13,11.95,3.85,2.2,14.22,3.62,14.32,3.64l.41,0,0,.42c.06,1.24,1.42,30.5,1.14,35.31a35.61,35.61,0,0,1-.88,6.19,7.33,7.33,0,0,0-.26,1.45c0,1.37-9.8,16.29-14.74,19.2-5.11,3-7.34.87-7.43.78-.86-.6-22.59-16.13-25.16-28.4a133.5,133.5,0,0,0-3.84-13.78c-1.8-5.65-3.1-9.73-2.41-12.33A29.41,29.41,0,0,1,57,94.11c-2.08-.78-9.37-3.44-12.9-3.44a18.37,18.37,0,0,0-5.16.67,15.77,15.77,0,0,1,7.6,7.14A15.06,15.06,0,0,1,47.24,110a3.8,3.8,0,0,1-2.09,2.29c-2.63.88-21.83,2-24.16,1.43-2.13-.53-3.84-4.57-4.76-6.74-.17-.4-.31-.72-.4-.91a39.62,39.62,0,0,1-1.39-6,37.29,37.29,0,0,0-.8,3.88,56.44,56.44,0,0,0-.56,7.32v2.23l-4.71-10c.17,3.42.44,9.36.44,11.72C8.81,118,11,125.74,11.72,128l5.4-3.69.2.64a12.77,12.77,0,0,0,6.29,6.81A19.44,19.44,0,0,1,29.68,136c1.77-1.85,8.72-8.92,12.33-10,4.07-1.16,11.46,1,12.51,2.78.25.42,1.07,2.38,2.76,6.43,3.58,8.56,10.24,24.5,14.3,31.39,4.82,8.19,14.11,14.61,16.57,16.22l1.53-7.66,3.65,6.08a37.17,37.17,0,0,1,10.52-10.25,66.71,66.71,0,0,0,11.85-9.87l.7-.79.17,1.05c0,.14,2.35,14.54,10.72,26.8l7.77,11.41a38.87,38.87,0,0,0,.14-8.49,50.11,50.11,0,0,0-1.69-7l-.8-2.4,1.65,1.92c.51.59,12.59,14.62,15.43,20.87,2.15,4.73,3.5,8.52,4,10.09Z" style="fill: rgb(38, 50, 56); transform-origin: 145.862px 135.41px 0px;" id="ell6o6qqub92" class="animable"></path><path d="M111.81,98.13s-2.28,1.42,2,4l4.26,2.56,2.56-8.25,5.69,2.85,1.42-11.38,7.39,1.43L136,79.08l11.66,5.12,6.26-11.09,5.68,7.11,8.53-4.55,3.13,6.82,6-6.25s.85,9.38-.57,14.78a43,43,0,0,1-3.69,9.38l-2.85-4.54-4.55,17.91-4.83-4.55s-.57,8-3.41,12.79-10.81-.57-12.51-2.56-4-4.26-4-4.26l.57,5.4-13.65-9.38V116S116.07,114.34,111.81,98.13Z" style="fill: rgb(255, 121, 85); transform-origin: 144.358px 98.5282px 0px;" id="elzovxrxwr24" class="animable"></path><path d="M153.77,124.47c-3.7,0-8.2-3.33-9.36-4.69-1-1.13-2.14-2.37-3-3.21l.54,5.05-13.76-9.46v4.46l-.57-.08c-.11,0-10.26-1.66-15.2-14.73a3.56,3.56,0,0,1-1.76-2.57,1.85,1.85,0,0,1,.84-1.53l.58-.36.17.65c.3,1.13.63,2.19,1,3.19.22.15.48.32.76.49l3.72,2.23,2.55-8.2,5.58,2.79,1.4-11.2,7.37,1.42.86-10.38,11.89,5.22,6.39-11.34,5.89,7.36,8.63-4.6,3,6.63,6.22-6.51.1,1.09c0,.39.84,9.53-.59,15a43.22,43.22,0,0,1-3.74,9.5l-.42.73-2.66-4.27-4.47,17.6-4.71-4.43c-.26,2.34-1.09,8.09-3.38,12a4.27,4.27,0,0,1-3.46,2.18Zm-13.61-10.63,1,1s2.31,2.31,4,4.29c1.22,1.42,5.75,4.61,9,4.32a3.28,3.28,0,0,0,2.69-1.69c2.75-4.68,3.34-12.5,3.34-12.58l.08-1.05,5,4.69L169.9,94.6l3,4.81a44.2,44.2,0,0,0,3.25-8.52c1.1-4.16.81-10.86.63-13.49l-5.7,6-3.21-7-8.43,4.49L154,74l-6.12,10.84-11.43-5-.84,10.09-7.41-1.42L126.72,100l-5.8-2.9-2.57,8.3-4.43-2.66c4.16,9.63,11.25,12.12,13.31,12.65v-5.16l13.53,9.3Z" style="fill: rgb(38, 50, 56); transform-origin: 144.258px 98.36px 0px;" id="els4tgqt1ko8g" class="animable"></path><g id="elmdh28yb2z7a"><path d="M123.7,98.26s-1.56,1,1.36,2.73l2.93,1.76,1.76-5.66,3.9,2,1-7.81,5.07,1,.59-7,8,3.52,4.29-7.61,3.9,4.87,5.86-3.12,2.14,4.69,4.1-4.3s.59,6.44-.39,10.15a29.6,29.6,0,0,1-2.54,6.44l-2-3.12L160.58,109l-3.32-3.12s-.39,5.46-2.34,8.78-7.41-.39-8.59-1.76S143.6,110,143.6,110l.39,3.7-9.36-6.43v3.31S126.63,109.38,123.7,98.26Z" style="fill: rgb(255, 255, 255); opacity: 0.5; transform-origin: 146.03px 98.5967px 0px;" class="animable"></path></g><path d="M153.19,93.12s-8.45,2.37-10.48,5.08,4.39,2,7.44,1S158.94,92.78,153.19,93.12Z" style="fill: rgb(255, 255, 255); transform-origin: 148.984px 96.599px 0px;" id="el72sdgezsd4y" class="animable"></path><path d="M128.58,72.83s-3.41-1.71-8.53,1.13-5.68,5.69-5.68,5.69,4.54,1.14,7.1.28S128.58,72.83,128.58,72.83Z" style="fill: rgb(255, 121, 85); transform-origin: 121.475px 76.2853px 0px;" id="elsbgm3fievvn" class="animable"></path><path d="M119.06,80.75a22.21,22.21,0,0,1-4.82-.62l-.46-.11.1-.47c0-.12.67-3.1,5.93-6s8.85-1.23,9-1.15l.53.26-.34.48c-.19.26-4.68,6.39-7.36,7.29A8.37,8.37,0,0,1,119.06,80.75Zm-4-1.46c1.26.26,4.4.8,6.28.17s5-4.42,6.47-6.4c-1.13-.32-3.82-.69-7.49,1.34S115.43,78.4,115,79.29Z" style="fill: rgb(38, 50, 56); transform-origin: 121.56px 76.3019px 0px;" id="elpsshnxqtwlc" class="animable"></path><path d="M148.77,64s2.56-7.39,8.81-7.11,6.26,3.7,6.26,3.7S157.3,69.7,148.77,64Z" style="fill: rgb(255, 121, 85); transform-origin: 156.305px 61.3789px 0px;" id="elplx6upvjwus" class="animable"></path><path d="M154.43,66.38a10.61,10.61,0,0,1-5.94-1.95l-.32-.22.13-.36c0-.08,2.73-7.75,9.3-7.45s6.74,4,6.74,4.2v.16l-.1.13C164.19,61,160.21,66.38,154.43,66.38Zm-5.05-2.57c7.38,4.6,13.06-2.21,13.94-3.36-.09-.6-.78-2.82-5.76-3.05S150,62.38,149.38,63.81Z" style="fill: rgb(38, 50, 56); transform-origin: 156.255px 61.3857px 0px;" id="eld9dv0gjs7r7" class="animable"></path></g><defs>     <filter id="active" height="200%">         <feMorphology in="SourceAlpha" result="DILATED" operator="dilate" radius="2"></feMorphology>                <feFlood flood-color="#32DFEC" flood-opacity="1" result="PINK"></feFlood>        <feComposite in="PINK" in2="DILATED" operator="in" result="OUTLINE"></feComposite>        <feMerge>            <feMergeNode in="OUTLINE"></feMergeNode>            <feMergeNode in="SourceGraphic"></feMergeNode>        </feMerge>    </filter>    <filter id="hover" height="200%">        <feMorphology in="SourceAlpha" result="DILATED" operator="dilate" radius="2"></feMorphology>                <feFlood flood-color="#ff0000" flood-opacity="0.5" result="PINK"></feFlood>        <feComposite in="PINK" in2="DILATED" operator="in" result="OUTLINE"></feComposite>        <feMerge>            <feMergeNode in="OUTLINE"></feMergeNode>            <feMergeNode in="SourceGraphic"></feMergeNode>        </feMerge>            <feColorMatrix type="matrix" values="0   0   0   0   0                0   1   0   0   0                0   0   0   0   0                0   0   0   1   0 "></feColorMatrix>    </filter></defs></svg>