<svg class="animated" id="freepik_stories-zombies" xmlns="http://www.w3.org/2000/svg" viewBox="0 0 500 500" version="1.1" xmlns:xlink="http://www.w3.org/1999/xlink" xmlns:svgjs="http://svgjs.com/svgjs"><style>svg#freepik_stories-zombies:not(.animated) .animable {opacity: 0;}svg#freepik_stories-zombies.animated #freepik--character-2--inject-56 {animation: 1.5s Infinite  linear shake;animation-delay: 0s;}            @keyframes shake {                10%, 90% {                    transform: translate3d(-1px, 0, 0);                  }                  20%, 80% {                    transform: translate3d(2px, 0, 0);                  }                  30%, 50%, 70% {                    transform: translate3d(-3px, 0, 0);                  }                  40%, 60% {                    transform: translate3d(3px, 0, 0);                  }            }        </style><g id="freepik--background-simple--inject-56" style="transform-origin: 246.905px 247.604px 0px;" class="animable"><path d="M282.85,26.34S200,13.11,131.92,71.23,41.5,223.8,21.42,299.86,33.54,443.55,97.78,465.2s94.95-33.51,176.2-51,105.37-9.86,164.59-68.56S489.85,175.73,421.44,105,282.85,26.34,282.85,26.34Z" style="fill: #FF7955; transform-origin: 246.905px 247.604px 0px;" id="elsshmwqolb5" class="animable"></path><g id="eliw6lyglv11"><path d="M282.85,26.34S200,13.11,131.92,71.23,41.5,223.8,21.42,299.86,33.54,443.55,97.78,465.2s94.95-33.51,176.2-51,105.37-9.86,164.59-68.56S489.85,175.73,421.44,105,282.85,26.34,282.85,26.34Z" style="fill: rgb(255, 255, 255); opacity: 0.7; transform-origin: 246.905px 247.604px 0px;" class="animable" id="eluhgisn65a1a"></path></g></g><g id="freepik--Moon--inject-56" style="transform-origin: 241.51px 110.44px 0px;" class="animable"><circle cx="241.51" cy="110.44" r="78.56" style="fill: rgb(242, 242, 242); stroke: rgb(255, 255, 255); stroke-miterlimit: 10; stroke-width: 2px; transform-origin: 241.51px 110.44px 0px;" id="elygrnho29dc" class="animable"></circle><ellipse cx="194.46" cy="107.82" rx="20.56" ry="21.82" style="fill: rgb(227, 227, 227); transform-origin: 194.46px 107.82px 0px;" id="elvf4nx9mk6s8" class="animable"></ellipse><g id="el18k80isvoto"><circle cx="229.71" cy="63.76" r="17.2" style="fill: rgb(227, 227, 227); transform-origin: 229.71px 63.76px 0px; transform: rotate(-45deg);" class="animable" id="elze73t9rw0in"></circle></g><ellipse cx="229.71" cy="131.32" rx="8.81" ry="10.07" style="fill: rgb(227, 227, 227); transform-origin: 229.71px 131.32px 0px;" id="eli0fcqev0oa" class="animable"></ellipse><ellipse cx="197.82" cy="148.94" rx="7.13" ry="6.71" style="fill: rgb(227, 227, 227); transform-origin: 197.82px 148.94px 0px;" id="el379e2n1zcyz" class="animable"></ellipse><ellipse cx="255.73" cy="85.58" rx="9.65" ry="8.81" style="fill: rgb(227, 227, 227); transform-origin: 255.73px 85.58px 0px;" id="elsb3xw7p4y" class="animable"></ellipse><circle cx="259.51" cy="54.95" r="5.04" style="fill: rgb(227, 227, 227); transform-origin: 259.51px 54.95px 0px;" id="elo7f96tg52q" class="animable"></circle><path d="M198.24,70.47c0,3.94-3.57,7.14-8,7.14s-8-3.2-8-7.14,3.56-7.13,8-7.13S198.24,66.53,198.24,70.47Z" style="fill: rgb(227, 227, 227); transform-origin: 190.24px 70.475px 0px;" id="el1u815arvr0e" class="animable"></path><ellipse cx="230.77" cy="98.9" rx="10.74" ry="11.54" style="fill: rgb(227, 227, 227); transform-origin: 230.77px 98.9px 0px;" id="elefjnyw1yax" class="animable"></ellipse><g id="el4f99t1kopka"><ellipse cx="221.81" cy="161.14" rx="10.52" ry="14.34" style="fill: rgb(227, 227, 227); transform-origin: 221.81px 161.14px 0px; transform: rotate(-64.17deg);" class="animable" id="el6foqsmjjh0y"></ellipse></g></g><g id="freepik--Clouds--inject-56" style="transform-origin: 226.214px 89.4681px 0px;" class="animable"><path d="M350.41,83.1c-4-2.16-5.78-.36-7.22-2.16s4-6.5-6.86-11.19c0,0-.72-10.1-15.51-10.46S310,69.39,306,71.92s-5-1.45-9,1.08-2.17,7.58-5.41,8.3S284,78.05,280,80.58s-4,4.69-5.77,4.69-5.42-1.44-7.58,0S262,88.52,262,88.52h91.29S354.38,85.27,350.41,83.1Z" style="fill: rgb(194, 194, 194); transform-origin: 307.714px 73.9005px 0px;" id="elb89qvys3age" class="animable"></path><g id="el89zlr9w6mvw"><g style="opacity: 0.5; transform-origin: 307.714px 73.9005px 0px;" class="animable" id="elo0jah01ev8j"><path d="M350.41,83.1c-4-2.16-5.78-.36-7.22-2.16s4-6.5-6.86-11.19c0,0-.72-10.1-15.51-10.46S310,69.39,306,71.92s-5-1.45-9,1.08-2.17,7.58-5.41,8.3S284,78.05,280,80.58s-4,4.69-5.77,4.69-5.42-1.44-7.58,0S262,88.52,262,88.52h91.29S354.38,85.27,350.41,83.1Z" style="fill: rgb(194, 194, 194); transform-origin: 307.714px 73.9005px 0px;" id="elmx15g4aqrk" class="animable"></path></g></g><path d="M376.14,64.77c-1.62-.88-2.37-.14-3-.88s1.63-2.67-2.81-4.6c0,0-.3-4.14-6.37-4.29s-4.44,4.15-6.07,5.18-2.08-.59-3.7.45-.89,3.11-2.23,3.4-3.11-1.33-4.74-.29-1.62,1.92-2.37,1.92-2.22-.59-3.11,0S339.86,67,339.86,67h37.47A1.93,1.93,0,0,0,376.14,64.77Z" style="fill: rgb(194, 194, 194); transform-origin: 358.619px 60.9981px 0px;" id="el6y3jms05h3p" class="animable"></path><g id="eloeqsv10vn6"><g style="opacity: 0.5; transform-origin: 358.619px 60.9981px 0px;" class="animable" id="el7civfolv7gf"><path d="M376.14,64.77c-1.62-.88-2.37-.14-3-.88s1.63-2.67-2.81-4.6c0,0-.3-4.14-6.37-4.29s-4.44,4.15-6.07,5.18-2.08-.59-3.7.45-.89,3.11-2.23,3.4-3.11-1.33-4.74-.29-1.62,1.92-2.37,1.92-2.22-.59-3.11,0S339.86,67,339.86,67h37.47A1.93,1.93,0,0,0,376.14,64.77Z" style="fill: rgb(194, 194, 194); transform-origin: 358.619px 60.9981px 0px;" id="elrg3fgq80mcj" class="animable"></path></g></g><path d="M214.37,115.41c-6.25-3.41-9.1-.57-11.37-3.41s6.26-10.24-10.8-17.63c0,0-1.14-15.92-24.46-16.49s-17.06,15.92-23.31,19.9-8-2.27-14.22,1.71-3.41,11.94-8.53,13.08-11.94-5.12-18.19-1.14-6.26,7.39-9.1,7.39-8.53-2.27-11.94,0-7.4,5.12-7.4,5.12H218.92S220.63,118.82,214.37,115.41Z" style="fill: rgb(194, 194, 194); transform-origin: 147.092px 100.903px 0px;" id="el84lgtz58fmt" class="animable"></path><g id="elnjdmtq9xj2"><g style="opacity: 0.5; transform-origin: 147.092px 100.903px 0px;" class="animable" id="elb5qtyx3nuya"><path d="M214.37,115.41c-6.25-3.41-9.1-.57-11.37-3.41s6.26-10.24-10.8-17.63c0,0-1.14-15.92-24.46-16.49s-17.06,15.92-23.31,19.9-8-2.27-14.22,1.71-3.41,11.94-8.53,13.08-11.94-5.12-18.19-1.14-6.26,7.39-9.1,7.39-8.53-2.27-11.94,0-7.4,5.12-7.4,5.12H218.92S220.63,118.82,214.37,115.41Z" style="fill: rgb(194, 194, 194); transform-origin: 147.092px 100.903px 0px;" id="elrcurnts26a" class="animable"></path></g></g></g><g id="freepik--Graves--inject-56" style="transform-origin: 243.39px 244.14px 0px;" class="animable"><path d="M39.24,387h403.2L457.5,219.28l-10-2-.77-44.09a14.15,14.15,0,0,0-14.15-13.91h0a14.16,14.16,0,0,0-14.13,15.06l6.05,94.94L356.88,272a6.82,6.82,0,0,0-6.55,6.65l-.83,31.61-16,1-1-82-18-1L316,197.22l-16.37.49.57-34.1a26.15,26.15,0,0,0,14.19-13.9l11.87,2.06L328,138l-11.85-2.73a26,26,0,0,0-13.28-18.63l1.63-13.36-18-2-2,12.93a26.08,26.08,0,0,0-19.06,18.48l-10.91-.41-2,11,12.42.86a26.09,26.09,0,0,0,15.13,19.16l-2.55,32h-13l-1,31-11,1v22h-46L205.32,234c-1.38-17.92-17.21-32.58-35.18-32.58h0a26.9,26.9,0,0,0-27.23,29.87l2.58,27.95-96,5.7A21.44,21.44,0,0,0,29.36,288.2ZM301.93,124.36a19,19,0,0,1,6.63,9.27L301,132Zm-1.43,22.92,6.75,1.18a19.14,19.14,0,0,1-6.9,7.25Zm-17.23-25.34-1.77,11.34-8.81-.32A19,19,0,0,1,283.27,121.94Zm-11,22.7,9.27.64-.84,10.44A19,19,0,0,1,272.23,144.64Z" style="fill: rgb(194, 194, 194); transform-origin: 243.39px 244.14px 0px;" id="el64ilpf5v1b5" class="animable"></path></g><g id="freepik--character-3--inject-56" style="transform-origin: 400.88px 258.003px 0px;" class="animable"><g id="elqv1yasfcczn"><ellipse cx="420" cy="434" rx="62" ry="10.5" style="opacity: 0.3; transform-origin: 420px 434px 0px;" class="animable" id="elqx35i5xpz3"></ellipse></g><path d="M349,87.68a91.09,91.09,0,0,0-11,13.68c-4.64,7.33-2.2,18.57-1.95,21s.73,6.84.73,6.84l3.42-6.35s1.71,12.71,1.71,15.64,1.22,14.66,1.22,14.66l4.89-7.33s2.69,6.35,2.93,8.79a43.57,43.57,0,0,0,2.2,7.58s11.24,9,11.48,10.75,2.2-4.15,2.2-4.15l7.82,5.62s2.2-8.07,4.4-13.69,12.95-13.19,14.66-23,4.64-17.35,1.71-26.64-17.59-24.19-27.12-24.92A74.86,74.86,0,0,0,349,87.68Z" style="fill: rgb(38, 50, 56); stroke: rgb(38, 50, 56); stroke-linecap: round; stroke-linejoin: round; transform-origin: 365.927px 130.236px 0px;" id="el98yyw41qdkh" class="animable"></path><path d="M368.61,209.49S367,222.87,367,224.26a4.12,4.12,0,0,1-2.54,3.92c-1.84.69-3.92.46-3.23,2.77s3,4.84,4.85,5.3,4.84-4.15,4.84-4.15,2.77,2.31,3,3,5.54-.23,6-2.54.93-3.69-.92-5.3-4.15-1.85-4.61-3.23.23-17.08.23-17.08l-5.54-1.15-.23,2.53Z" style="fill: rgb(255, 255, 255); stroke: rgb(38, 50, 56); stroke-linecap: round; stroke-linejoin: round; transform-origin: 370.715px 221.041px 0px;" id="elv52m0btv62c" class="animable"></path><path d="M450.52,375.86s1.85,3.23,3.46,4.38,2.54,1.85,4.85,1.85,5.08,0,6-.93,1.84,0,1.15.46a7.14,7.14,0,0,0-2.77,3.93,28,28,0,0,0-.69,6.23H460v4.61c0,.69,1.62,2.54,1.85,4.16s1.38,2.3.23,1.61-6.69-6.92-8.77-7.15a35.33,35.33,0,0,1-4.61-.93S443.6,380,440.83,374.7s-5.31-11.07-5.31-11.07,5.77-.7,6.46-.47,4.16,5.08,4.16,5.08Z" style="fill: rgb(38, 50, 56); stroke: rgb(38, 50, 56); stroke-linecap: round; stroke-linejoin: round; transform-origin: 450.87px 382.771px 0px;" id="elzvm1xs78n4" class="animable"></path><path d="M417.53,324.4s-1.16,11.08-.7,14.31,4.16,6.23,5.31,8.07,3,6.92,5.31,12.46,17.53,46.38,18,47.54-2.31,3.69-2.08,5.76.92,2.77.23,4.62-3.46,8.31-6.23,10.84-7.62,4.39-7.85,7.39,3,4.15,5.08,4.84,7.38.93,8.77-1.38,1.15-2.77,1.84-3.46,1.85-1.62,1.85.23-.69,3.69.69,4.38,4.62.46,5.54-.23a12.74,12.74,0,0,0,1.85-1.84,6.34,6.34,0,0,0,4.38,1.38c2.54-.23,3.46-3.23,3.46-3.23s.93,2.54,4.16.92a4.18,4.18,0,0,0,2.3-4.84l-.69,1.15s4.62.92,4.39-2.77-6.7-5.31-6.7-5.31a77.38,77.38,0,0,1-5.07-7.38c-1.85-3.23-3.69-7.15-3.69-7.15a5,5,0,0,0,0-3.46,17.38,17.38,0,0,0-3.24-4.39s-6.69-27.23-9-31.61-4.85-10.61-4.85-10.61-2.77-10.16-2.54-14.08,1.16-5.08-.69-7.15a27.29,27.29,0,0,1-3.92-5.31c-.7-1.38-1.62-2.77-2.54-4.38a17.2,17.2,0,0,0-3.46-4.39c-1.16-.92-2.54-2.54-4.85-2.77s-5.31.7-5.54,2.77" style="fill: rgb(191, 191, 191); stroke: rgb(38, 50, 56); stroke-linecap: round; stroke-linejoin: round; transform-origin: 444.935px 381.612px 0px;" id="elmh4r5bgskd" class="animable"></path><path d="M443.14,433.77s-5.08-3.46-8.54-1.84-1.61,2.3,2.77,3S443.83,437.46,443.14,433.77Z" style="fill: none; stroke: rgb(38, 50, 56); stroke-linecap: round; stroke-linejoin: round; transform-origin: 438.034px 433.752px 0px;" id="elvx8x5lc0dhe" class="animable"></path><path d="M452.6,435.16s-5.77.46-3.92,1.38S454.68,437,452.6,435.16Z" style="fill: none; stroke: rgb(38, 50, 56); stroke-linecap: round; stroke-linejoin: round; transform-origin: 450.742px 436.08px 0px;" id="elf90aa34ewvl" class="animable"></path><path d="M460.21,434.46c0,.64-1,1.16-2.19,1.16s-2.19-.52-2.19-1.16,1-1.15,2.19-1.15S460.21,433.83,460.21,434.46Z" style="fill: none; stroke: rgb(38, 50, 56); stroke-linecap: round; stroke-linejoin: round; transform-origin: 458.02px 434.465px 0px;" id="elvgp0w6j6ccm" class="animable"></path><path d="M463.91,433.77c0,.51.87.93,2,.93s2-.42,2-.93-.88-.92-2-.92S463.91,433.26,463.91,433.77Z" style="fill: none; stroke: rgb(38, 50, 56); stroke-linecap: round; stroke-linejoin: round; transform-origin: 465.91px 433.775px 0px;" id="elbloj27y8a55" class="animable"></path><path d="M469,429.73c0,.32.41.58.92.58s.93-.26.93-.58-.42-.57-.93-.57S469,429.42,469,429.73Z" style="fill: none; stroke: rgb(38, 50, 56); stroke-linecap: round; stroke-linejoin: round; transform-origin: 469.925px 429.735px 0px;" id="elfrn46r230w8" class="animable"></path><line x1="455.14" y1="437.93" x2="453.75" y2="432.16" style="fill: none; stroke: rgb(38, 50, 56); stroke-linecap: round; stroke-linejoin: round; transform-origin: 454.445px 435.045px 0px;" id="elhhalomubahr" class="animable"></line><line x1="462.98" y1="436.08" x2="461.37" y2="431.23" style="fill: none; stroke: rgb(38, 50, 56); stroke-linecap: round; stroke-linejoin: round; transform-origin: 462.175px 433.655px 0px;" id="elt67hcxir22" class="animable"></line><path d="M445.21,426.16s7.85-.46,11.31.46" style="fill: none; stroke: rgb(38, 50, 56); stroke-linecap: round; stroke-linejoin: round; transform-origin: 450.865px 426.333px 0px;" id="eljv0p0b4fiu" class="animable"></path><path d="M453.29,423.39s6-.46,9.23.92" style="fill: none; stroke: rgb(38, 50, 56); stroke-linecap: round; stroke-linejoin: round; transform-origin: 457.905px 423.813px 0px;" id="elfy32t5hsb6k" class="animable"></path><polygon points="392.02 301.72 395.32 316.19 403.69 311.11 408.26 285.98 398.36 290.05 392.02 301.72" style="fill: rgb(255, 255, 255); stroke: rgb(38, 50, 56); stroke-linecap: round; stroke-linejoin: round; transform-origin: 400.14px 301.085px 0px;" id="elonynmky5dut" class="animable"></polygon><path d="M377.61,386.93s-.46,8.08-2.08,11.77-5.31,7.84-5.31,11.07,1.39,5.31,1.62,7.16-2.54,11.54-3.46,13.84-2.31,5.77-1.16,7.39,1.85,2.53,3,1.61a3.19,3.19,0,0,0,1.16-2.31s.46,2.08,1.61,2.08,3.46-2.08,3.46-2.08,0,1.85,1.62,1.85,3.92-2.54,3.92-2.54,1.15,3.69,3.46,3a4.64,4.64,0,0,0,3-2.54s3,2.08,5.08,2.08,4.61-1.15,4.38-4.15-8.07-5.31-8.07-5.31a68.75,68.75,0,0,0-3-8.31,28.46,28.46,0,0,1-2.54-9.69c0-1.84-.23-9.92-.23-11.77S388,387.39,388,387.39s4.38-16.38,3.46-19.84-8.77-4.62-10.84,1.84S377.61,386.93,377.61,386.93Z" style="fill: rgb(191, 191, 191); stroke: rgb(38, 50, 56); stroke-linecap: round; stroke-linejoin: round; transform-origin: 382.355px 402.441px 0px;" id="elicpfm81ol6d" class="animable"></path><path d="M396.07,434.23s-.7-2.3-4.85-1.15-2.77,1.38-.46,2.54S397.45,435.85,396.07,434.23Z" style="fill: none; stroke: rgb(38, 50, 56); stroke-linecap: round; stroke-linejoin: round; transform-origin: 392.444px 434.448px 0px;" id="elhwi8jos5uvu" class="animable"></path><path d="M386.84,435.39s-5.77.46-3.7,1.38a4.9,4.9,0,0,0,3.93,0" style="fill: none; stroke: rgb(38, 50, 56); stroke-linecap: round; stroke-linejoin: round; transform-origin: 384.881px 436.286px 0px;" id="els3u68qndwug" class="animable"></path><path d="M380.38,435.16s-3-1.39-2.31.23S381.53,435.85,380.38,435.16Z" style="fill: none; stroke: rgb(38, 50, 56); stroke-linecap: round; stroke-linejoin: round; transform-origin: 379.312px 435.408px 0px;" id="elg9x4h27qcui" class="animable"></path><path d="M375.3,434.93s-4.62-.93-3,.69,3.46-.92,3-1.62" style="fill: none; stroke: rgb(38, 50, 56); stroke-linecap: round; stroke-linejoin: round; transform-origin: 373.664px 435.075px 0px;" id="elpimrgka8t2" class="animable"></path><path d="M370.22,434.7c-.55-.42-3.69,1.15-2.3,1.84S372.07,436.08,370.22,434.7Z" style="fill: none; stroke: rgb(38, 50, 56); stroke-linecap: round; stroke-linejoin: round; transform-origin: 369.203px 435.688px 0px;" id="el862rosua5a" class="animable"></path><line x1="388.45" y1="437.23" x2="385.22" y2="431.47" style="fill: none; stroke: rgb(38, 50, 56); stroke-linecap: round; stroke-linejoin: round; transform-origin: 386.835px 434.35px 0px;" id="elo2lrl39diir" class="animable"></line><line x1="381.99" y1="436.77" x2="381.3" y2="432.39" style="fill: none; stroke: rgb(38, 50, 56); stroke-linecap: round; stroke-linejoin: round; transform-origin: 381.645px 434.58px 0px;" id="elikxlj1zbkuo" class="animable"></line><line x1="376.45" y1="437.46" x2="376.22" y2="433.31" style="fill: none; stroke: rgb(38, 50, 56); stroke-linecap: round; stroke-linejoin: round; transform-origin: 376.335px 435.385px 0px;" id="elkshnl4fxny" class="animable"></line><path d="M393.3,252s-1.62,10.84-1.62,15.22-1.15,21.46-1.15,24.69V306.4a45.86,45.86,0,0,0,4.38-3.92c2.54-2.54,7.39-6.46,8.08-7.62a25.54,25.54,0,0,1,3.23-3.46s-11.77,23.31-12.46,24.46a3.5,3.5,0,0,0,0,2.77s3.92,10.85,3.46,11.77-2.77,4.84-2.08,6.23a22.76,22.76,0,0,1,1.16,2.77s-2.54-2.31-3.93-.23S391,344.7,391,344.7a27.44,27.44,0,0,0-7.15,8.54c-2.54,5.08-6,11.08-6,12.69s.69,2.54-.46,9.23-.7,20.77-1.85,23.54.23-1.15,2.08-4.38,3.46-4.62,3.92-8.08,3.69-11.08,3.69-11.08-.46,5.54-.46,9-1.15,6.46-1.62,8.31a8.56,8.56,0,0,0,0,4.84,29.72,29.72,0,0,1,1.85,4.85c.23,1.38.23,4.85.23,4.15s3.23-2.77,4.62-1.15S393.3,410,393.3,410s.23,3.23.23,2.53a37.84,37.84,0,0,1,1.15-8.07c.92-3.23,2.31-3.23,1.62-4.39s-4.85-5.07-5.77-7.38-2.31-.92-.69-3.69,1.38-2.31,3.23-5.77,2.53-3.92,3.23-5.54,1.84,1.62,1.84,1.62v6c0,.92,2.77,5.3,2.77,5.3a75.13,75.13,0,0,0,.23-7.61c0-5.77-1.15-4.62,0-10.15s2.31-8.31,3.23-11.77,5.31-10.39,6.93-16.39,1.61-9.46,1.61-15-.23-11.31,0-15,1.62-18.69,1.85-23.54,1.84-13.15,1.84-14.53V273.4S421,275,423.29,281s1.85,13.38.47,16.15-6.23,21-6.47,24.69a59.39,59.39,0,0,1-.69,6.23s3.23-1.15,4.85-.69,3,0,3.92,2.08a48.16,48.16,0,0,1,1.85,5.53s2.53-2.07,3.69-.69,2.54,2.31,3,3.23.46-.23.46,1.85v6.46c0,1.38,2.08,2.54,1.85,3.23s-2.77,2.31-3.23,3,.69-1.39-2.54,1.84-3,4.85-6,5.08-4.39-.46-4.16.23,6.47,8.08,7.85,12.69,3.92,9.46,3.92,11.77,4.62-2.08,5.31-2.77,2.54-3.69,3.23-4.15,2.08-.23,2.08-1.16a59.92,59.92,0,0,1,.69-6c.23-1.16,2.31.46,2.77,1.84s1.61.92,2.31,2.54a19.63,19.63,0,0,0,3.23,4.15s-4.85-9.69-6.47-15.46-2.07-16.61-1.38-18.46-3.69-2.07-3.69-2.07,2.31-2.77,1.38-4.62-4.38-1.38-5.3-3-3.23-5.77-3.23-5.77,4.15-3.92,14.3-29.07,9.23-31.38,9.23-41.77.55-23.41-6.14-27.57-6.78,13.27-15.55,13.27-26.07-.46-30.69-.46-4.38.23-6.46,1.38S393.3,252,393.3,252Z" style="fill: #FF7955; stroke: rgb(38, 50, 56); stroke-linecap: round; stroke-linejoin: round; transform-origin: 415.831px 321.164px 0px;" id="elc230fzammko" class="animable"></path><path d="M427.22,335a22.69,22.69,0,0,1-1.2-6.25c-.2-3.68,1.43-3.44,1.43-3.44a19.29,19.29,0,0,1-3.06.38c-1.23,0-4.91-2.46-4.91-2.46s.21,1.84-.82,1.84a14.93,14.93,0,0,0-3.67,1.23l-1.44,1.23,1.23,1.22s-.82,1.64-1.63,1.84-.41,1-1.23,1.84-1.64,5.72-1.64,5.72,3.07-3.68,4.71-4.49,5.72.41,5.72.41.41-2.05,1.84-1A20.26,20.26,0,0,0,427.22,335Z" style="fill: rgb(38, 50, 56); stroke: rgb(38, 50, 56); stroke-linecap: round; stroke-linejoin: round; transform-origin: 418.865px 330.69px 0px;" id="el7gy4o8o6wnf" class="animable"></path><path d="M436.22,349.09a10.51,10.51,0,0,1-1.21,3.17c-.81,1.23-.4,3.89-1.63,3.89a2.18,2.18,0,0,0-2,1.84c-.21.81-.82,4.49-.82,4.49s-2.45-2-3.68-1.84-4.29-1-4.29-1l-1.64-.61a49.81,49.81,0,0,0,7.16-3.48C430.45,353.93,433.53,349.18,436.22,349.09Z" style="fill: rgb(38, 50, 56); stroke: rgb(38, 50, 56); stroke-linecap: round; stroke-linejoin: round; transform-origin: 428.585px 355.785px 0px;" id="elncf9ljgwjba" class="animable"></path><line x1="412.74" y1="266.11" x2="414.53" y2="266.94" style="fill: none; stroke: rgb(38, 50, 56); stroke-linecap: round; stroke-linejoin: round; transform-origin: 413.635px 266.525px 0px;" id="el5l1wp2ax4j5" class="animable"></line><line x1="400.68" y1="260.48" x2="410.14" y2="264.9" style="fill: none; stroke: rgb(38, 50, 56); stroke-linecap: round; stroke-linejoin: round; transform-origin: 405.41px 262.69px 0px;" id="elvcy4bhud0e" class="animable"></line><path d="M416.6,273.4c-2.3-2.3-9.46-5.3-9.46-5.3l9.19,9.88Z" style="fill: rgb(38, 50, 56); stroke: rgb(38, 50, 56); stroke-linecap: round; stroke-linejoin: round; transform-origin: 411.87px 273.04px 0px;" id="elo1a450qye0h" class="animable"></path><path d="M441.56,263.83a21.53,21.53,0,0,0,2.27-2.65" style="fill: none; stroke: rgb(38, 50, 56); stroke-linecap: round; stroke-linejoin: round; transform-origin: 442.695px 262.505px 0px;" id="el6neewcqg0u" class="animable"></path><path d="M426.52,273.64a59.11,59.11,0,0,0,12.34-7.38" style="fill: none; stroke: rgb(38, 50, 56); stroke-linecap: round; stroke-linejoin: round; transform-origin: 432.69px 269.95px 0px;" id="elyt1hubj69ub" class="animable"></path><path d="M439.68,261.41a51.86,51.86,0,0,1-9.93,7.61" style="fill: none; stroke: rgb(38, 50, 56); stroke-linecap: round; stroke-linejoin: round; transform-origin: 434.715px 265.215px 0px;" id="elz9gish4xf5m" class="animable"></path><path d="M406.22,291.4a21.7,21.7,0,0,0-1.39,7.85c0,4.61,1.16,9.69.24,10.38s-1.85,0-1.39,2.77,1.39,6,1.39,6a12.34,12.34,0,0,0-2.54-.69c-.7,0-2.54,1.61-2.54,1.61l-.46,3.23s-3.23-3.69-4.16-2.53-.92,2.53-1.61,3.23-1.62,5.76-1.62,5.76-.69-6-.69-7.15a54.56,54.56,0,0,1,.92-5.54Z" style="fill: rgb(38, 50, 56); stroke: rgb(38, 50, 56); stroke-linecap: round; stroke-linejoin: round; transform-origin: 398.835px 310.205px 0px;" id="eltnvfmhzpyi" class="animable"></path><path d="M405.3,292.33a34.41,34.41,0,0,1-7.16,4.15,43,43,0,0,1-8.53,2.31l-.24,2.77a4.48,4.48,0,0,1-1.84,1.38,8.29,8.29,0,0,0-2.31,1.38l-.69,2.77,3.23,2.54,1.61,4.15,1.85-5.53.23-2.54Z" style="fill: rgb(38, 50, 56); stroke: rgb(38, 50, 56); stroke-linecap: round; stroke-linejoin: round; transform-origin: 394.915px 303.055px 0px;" id="elsa1889zpkwk" class="animable"></path><path d="M396.3,339.4a35.63,35.63,0,0,1,3.46,5.07" style="fill: none; stroke: rgb(38, 50, 56); stroke-linecap: round; stroke-linejoin: round; transform-origin: 398.03px 341.935px 0px;" id="elhepevvx3yc9" class="animable"></path><path d="M391,344.7s1.15,6.93,2.31,10.85" style="fill: none; stroke: rgb(38, 50, 56); stroke-linecap: round; stroke-linejoin: round; transform-origin: 392.155px 350.125px 0px;" id="el13i10xphpkw" class="animable"></path><path d="M366.11,151.69s-5.62,5.13-4.89,11,3.67,19.06,3.91,24.68,1.71,12.7.49,15.88-2.69,8.31-2.69,8.31,3.67,0,4.89.73a27.59,27.59,0,0,1,2.93,2.2l2.2-4.4s1.71,5.38,1.71,4.64a61.19,61.19,0,0,1,2-6.11l5.86,1.47.73-3.66,2.2,2.68,1.47-2.93-2.69-10.51s5.86,10.27,8.31,12.47,4.88,3.17,5.86,7.33,2.2,7.33,1,12.7A67.65,67.65,0,0,1,394,243.32c-1.78,3.35-4.38,9.34-4.82,10.36l-.06.15,8.55,1,4.64-6.6v5.86a45.53,45.53,0,0,1,5.87,1.22c5.13,1.23,6.1,1.47,8.06,1s5.62-.49,6.84-.73,6.84-2.69,6.84-3.42a36.29,36.29,0,0,1,1.71-4.89l1.22,3.67,3.91-4.4v10l2.69-2.69,3.42,1.71,2.93,2.69a8,8,0,0,1,.25-6.11c1.47-3.42,7.57-5.87,7.57-5.87s-.49-4.15-.49-4.88a13.69,13.69,0,0,1,.49-2.45l.49-1s1.71.73,2.2,3.66,2,10,2,10a40.59,40.59,0,0,1,1.46-7.58,15,15,0,0,1,3.91-5.13s-3.91-1.46-5.37-4.4-4.4-9.28-5.38-14.17-5.37-30.54-9.28-40.31S437,162,433.3,156.58s-12.46-14.66-23.21-22-17.59-2.2-20.52,2.69-3.67,10-6.36,12S371.73,146.07,366.11,151.69Z" style="fill: rgb(38, 50, 56); stroke: rgb(38, 50, 56); stroke-linecap: round; stroke-linejoin: round; transform-origin: 412.417px 194.581px 0px;" id="elm73c12tb8nl" class="animable"></path><path d="M375.88,151.45s6.84,5.86,8.31,8.31,3.42,8.06,4.4,6.84,2.69-7.58,2.2-14.17-1.71-11.73-3.91-14.42a40,40,0,0,0-4.16-4.4s-1,5.62-3.9,8.8a38.61,38.61,0,0,0-4.16,5.13Z" style="fill: none; stroke: rgb(38, 50, 56); stroke-linecap: round; stroke-linejoin: round; transform-origin: 382.768px 150.191px 0px;" id="elebhciiqs4j7" class="animable"></path><path d="M346.81,106.49s1.71,9.28,1.46,12-2.93,6.36-.49,9.53,6.36,2.93,7.09,5.87.49,6.1,1.71,8.55,2.69,1.22,4.15,6.35,2.69,7.82,4.89,8.55,4.89,1.71,7.09,0,6.59-6.11,8.3-7.82a19,19,0,0,0,4.16-9.77c.24-3.42,0-4.89,2.44-7.82s5.13-4.4,6.84-9.77-2.93-7.82-4.88-19.31-.25-18.08-7.82-20.76-10-6.11-18.57-.49-9.53,9-11.49,12.7A121.27,121.27,0,0,0,346.81,106.49Z" style="fill: rgb(191, 191, 191); stroke: rgb(38, 50, 56); stroke-linecap: round; stroke-linejoin: round; transform-origin: 370.792px 118.431px 0px;" id="elndhz1yq11wr" class="animable"></path><path d="M365,145a36.42,36.42,0,0,1,1.37,3.74c.59,2,.2,3.14.79,4.71a15.86,15.86,0,0,1,.59,4.33s-.59,5.5,0,6.88,2.36.59,2.36-1-.2-3.34.2-4.52a3.46,3.46,0,0,1,1.77-1.77s0,3.73,1,2.16.79-6.29.79-6.29l.19-1s.79,0,.59-1.37.59-1.38-.59-3-5.31-3.54-7.08-4.92S364.21,143.4,365,145Z" style="fill: rgb(255, 255, 255); stroke: rgb(38, 50, 56); stroke-linecap: round; stroke-linejoin: round; transform-origin: 369.726px 153.917px 0px;" id="eleavs47yolp" class="animable"></path><path d="M381.75,117.73a6.11,6.11,0,1,1-6.11-6.11A6.12,6.12,0,0,1,381.75,117.73Z" style="fill: rgb(255, 255, 255); stroke: rgb(38, 50, 56); stroke-linecap: round; stroke-linejoin: round; stroke-width: 2px; transform-origin: 375.64px 117.73px 0px;" id="eloy34x92ioal" class="animable"></path><circle cx="357.19" cy="117.61" r="3.3" style="fill: rgb(255, 255, 255); stroke: rgb(38, 50, 56); stroke-linecap: round; stroke-linejoin: round; stroke-width: 2px; transform-origin: 357.19px 117.61px 0px;" id="els602h4l47cl" class="animable"></circle><path d="M363.42,126.77s1,2-.24,2.93-3.18,1.22-1.22,2.2,2.68,2.93,3.9,2.93,5.38-2.2,5.14-3.66-2.2-1.47-2.94-3.42S364.64,124.82,363.42,126.77Z" style="fill: rgb(38, 50, 56); stroke: rgb(38, 50, 56); stroke-linecap: round; stroke-linejoin: round; transform-origin: 366.067px 130.269px 0px;" id="elg3xbge9wlfa" class="animable"></path><path d="M361.22,113.58s2.93,2.44,1.22,8.55-6.35,6.59-8.3,4.88" style="fill: none; stroke: rgb(38, 50, 56); stroke-linecap: round; stroke-linejoin: round; transform-origin: 358.558px 120.723px 0px;" id="el9tvmb8tbe9f" class="animable"></path><path d="M368.31,119.2s.49,10.26,8.55,10" style="fill: none; stroke: rgb(38, 50, 56); stroke-linecap: round; stroke-linejoin: round; transform-origin: 372.585px 124.202px 0px;" id="eliaw8y5chbmk" class="animable"></path><path d="M351,113.33a79,79,0,0,1,8.8-3.91" style="fill: none; stroke: rgb(38, 50, 56); stroke-linecap: round; stroke-linejoin: round; transform-origin: 355.4px 111.375px 0px;" id="el1npjuyluuah" class="animable"></path><path d="M369,108.69s7.09,0,11.24,3.17" style="fill: none; stroke: rgb(38, 50, 56); stroke-linecap: round; stroke-linejoin: round; transform-origin: 374.62px 110.275px 0px;" id="ellhcwb2hxgi" class="animable"></path><path d="M360.73,139.72s8.31,3.42,11.24,6.84,3.18,4.4.25,5.38-4.89-2.93-6.84-6.36A26.06,26.06,0,0,0,360.73,139.72Z" style="fill: rgb(38, 50, 56); stroke: rgb(38, 50, 56); stroke-linecap: round; stroke-linejoin: round; transform-origin: 367.513px 145.907px 0px;" id="elyeti3nxg8b9" class="animable"></path><path d="M386.39,129.7a69.28,69.28,0,0,1-7.82,2.93c-2.2.49-2.69,2.69-1.47,5.14s3.91,6.84,1.47,10.26" style="fill: none; stroke: rgb(38, 50, 56); stroke-linecap: round; stroke-linejoin: round; transform-origin: 381.419px 138.865px 0px;" id="eln7shlriuovm" class="animable"></path><path d="M364.89,109.67a3.29,3.29,0,0,1-2.69-2.94l-1.22-6.1" style="fill: none; stroke: rgb(38, 50, 56); stroke-linecap: round; stroke-linejoin: round; transform-origin: 362.935px 105.15px 0px;" id="eljvj0pzvp3wd" class="animable"></path><path d="M363.67,89.87a89.79,89.79,0,0,0,1.22,10.51,65.07,65.07,0,0,1,1,9.29,86.61,86.61,0,0,0,2.94-8.31c.73-2.93,6.59-15.4,6.59-15.4s-1,10.51.25,13.44,3.91,6.11,4.15,7.09,0-3.42.25-4.64a79.53,79.53,0,0,1,3.17-7.33s1.22,10.26,2.45,15.63,3.42,11,3.66,13.2.25,11.48.25,11.48l1.46,8.8,4.89-5.13s1.95,5.13,2.2,4.15,5.13-5.13,5.62-7.57a26.2,26.2,0,0,1,1.95-5.38l.25-8.31V119.2l3.42,4.64a165.17,165.17,0,0,0-1-18.08c-1-6.85-2.44-12-6.6-16.86s-17.1-15.4-18.08-16.37-12.95-1.71-19.3,0-9.53,3.42-14.91,8.3-1.46,11-2.2,11.49-2.19,8.31-2.68,9.77-.74,7.82-.74,9v8.07s3.67-10,4.4-11.49,8.07-9,9.29-10.51Z" style="fill: rgb(38, 50, 56); stroke: rgb(38, 50, 56); stroke-linecap: round; stroke-linejoin: round; transform-origin: 376.635px 107.568px 0px;" id="eleze4fi9bakj" class="animable"></path><path d="M398.36,174.66l11.73,1s3.67-5.13,5.13-5.87,4.89.25,6.35,2a50.07,50.07,0,0,0,5.14,5.13c1,.73.48,1.22,1,.73s1.23-4.64,2-6.11,3.17-.73,3.17-.73l-2.44-7.08a23.92,23.92,0,0,0-13.19-7.09c-8.07-1.22-15.15,1.47-15.89,5.38s-1,6.59-1.46,7.81S398.36,174.66,398.36,174.66Z" style="fill: rgb(38, 50, 56); stroke: rgb(38, 50, 56); stroke-linecap: round; stroke-linejoin: round; transform-origin: 415.62px 167.095px 0px;" id="elotdubkkt44a" class="animable"></path><path d="M343.87,170.75s-4.15,2.69-6.35,2.69-7.33-1.71-9.53-1.71-4.64,1.71-6.84,2.2-1.47,3.17,0,3.42,5.62-1.47,6.6-1.71,4.4,2,5.13,2a15.09,15.09,0,0,0,5.13-.49C340.94,176.37,343.87,170.75,343.87,170.75Z" style="fill: rgb(191, 191, 191); stroke: rgb(38, 50, 56); stroke-linecap: round; stroke-linejoin: round; transform-origin: 331.815px 174.217px 0px;" id="el852bjhtq40e" class="animable"></path><path d="M402,166.6l7.82,15.88a350.38,350.38,0,0,1-33-12.22c-18.33-7.82-22.23-12-27.85-9.28s-6.11,9-8.31,12-5.87,3.67-11,3.67-8.31-1.23-8.55.73-1,8.31-1,10.75,1.47,7.09,2.93,7.33,4.16-1.47,2.94-3.18a12.54,12.54,0,0,1-1.71-3.42l1.95-7.08,4.16,1s-1.47,8.07-1.47,8.8a25.5,25.5,0,0,0,3.18,6.35c.73.74,4.39.25,4.64-2.44s-2-2.93-2-2.93l.49-6.36s5.87-3.17,6.84-2.93,2.45,3.42,1.23,4.89-2.45,2.44-2.45,4.64,1.22,6.11,1.47,7.58,3.17,2.44,3.91,1.22,0-3.91,0-3.91-.74,0-.74-1.22,1.71-6.11,1.71-6.11,2.69-4.4,2.94-5.62a8.25,8.25,0,0,1,1.95-2.93,15.44,15.44,0,0,0,3.18-5.62c.73-2.94,1.95-8.07,1.95-8.07s14.42,10.27,21.51,15.4,29.07,14.66,33.47,18.57,15.15.49,18.57,1.46,6.6,2.2,7.09-1.46a13.57,13.57,0,0,0-2-8.8,111,111,0,0,1-5.62-11.73c-2.2-5.13-10-25.9-10-25.9s-11-1-15.39,2.69A8,8,0,0,0,402,166.6Z" style="fill: rgb(191, 191, 191); stroke: rgb(38, 50, 56); stroke-linecap: round; stroke-linejoin: round; transform-origin: 379.025px 180.047px 0px;" id="elqeef2p9s95" class="animable"></path><path d="M320.15,189s2.54-9.92,3-10.84a2.78,2.78,0,0,1,2.31-1.62" style="fill: none; stroke: rgb(38, 50, 56); stroke-linecap: round; stroke-linejoin: round; transform-origin: 322.805px 182.77px 0px;" id="elkep41uo8z5h" class="animable"></path><path d="M330.44,182.72s1-2.19,1.95-2.19a22.56,22.56,0,0,0,5.62-1c1-.49,3.18-2,3.18-2" style="fill: none; stroke: rgb(38, 50, 56); stroke-linecap: round; stroke-linejoin: round; transform-origin: 335.815px 180.125px 0px;" id="ellkjg1j7tykt" class="animable"></path><path d="M409.85,182.48a121.5,121.5,0,0,1,12.7,2.93c4.4,1.47,11.24,6.6,11.24,6.6" style="fill: none; stroke: rgb(38, 50, 56); stroke-linecap: round; stroke-linejoin: round; transform-origin: 421.82px 187.245px 0px;" id="elnw2gtfbsg1q" class="animable"></path><path d="M413.51,194c.73,0,17.35,5.38,18.57,3.18a4.85,4.85,0,0,0,0-4.4" style="fill: none; stroke: rgb(38, 50, 56); stroke-linecap: round; stroke-linejoin: round; transform-origin: 423.059px 195.244px 0px;" id="elbpyjloswija" class="animable"></path><path d="M409.6,136.54s-7.82-9-16.37-5.86-7.82,14.42-2.44,21.75,5.86,11,6.35,14.41,1.22,7.82,1.22,7.82,2.93-1.95,4.64-1.95,1.23-2,2.2-4.89,1.71-4.64,4.16-5.13,3.66-1.71,7.08-.49a18.64,18.64,0,0,1,5.62,3.18l-.49-4.65s4.65,2.69,4.89,3.42,3.91,4.16,3.91,4.16v-4.64l4.15,4.15s-11-13.93-15.14-19.3S409.6,136.54,409.6,136.54Z" style="fill: rgb(38, 50, 56); stroke: rgb(166, 166, 166); stroke-linecap: round; stroke-linejoin: round; transform-origin: 410.643px 152.338px 0px;" id="el0ae6c92cf9c" class="animable"></path></g><g id="freepik--character-2--inject-56" style="transform-origin: 255.958px 363.696px 0px;" class="animable"><path d="M347.94,379.52c-1.25-2.91-4.17,0-4.17,0s0-6.66-2.08-8.74-7.08,2.5-7.08,2.5-1.25-7.92-9.17-8.33c-.25,0-.48,0-.73,0a4.46,4.46,0,0,0-.8-1.17c-2.33-2.33-7.93,2.8-7.93,2.8s-1.4-8.86-10.25-9.32-9.33,7-9.33,7c-3.26-7.46-11.93-8.07-14.35-2.44a11.57,11.57,0,0,0-1,5.7,9.48,9.48,0,0,0-5.13-.93c-2.33.46-4.66,6.06-4.66,6.06a31.87,31.87,0,0,0-3.05-3.09,5.35,5.35,0,0,0-1.46-1.27l-.24-.1a11.68,11.68,0,0,0-4.1-2.07c-3.77-.83-5.66,3.2-6,4l-.12-.06a10.58,10.58,0,0,0-4.14-5.38c-3.73-2.79-7.92,3.73-7.92,3.73s-.94-5.59-4.2-7.46-8.39,4.67-8.39,4.67-3.73-5.13-9.79-2.8-4.2,8.39-4.2,8.39-7-5.59-9.32-1.86c-1.62,2.59-.54,7,.27,9.41h29.08a17.68,17.68,0,0,0,1,5.4H348.37A9,9,0,0,0,347.94,379.52Z" style="fill: rgb(38, 50, 56); stroke: rgb(38, 50, 56); stroke-linecap: round; stroke-linejoin: round; transform-origin: 277.994px 370.7px 0px;" id="elmcaklwgp248" class="animable"></path><path d="M314.43,378.83c-1.25-2.92-4.17,0-4.17,0s0-6.67-2.08-8.75-7.08,2.5-7.08,2.5-1.25-7.91-9.17-8.33h-.73a4.46,4.46,0,0,0-.8-1.17c-2.33-2.33-7.93,2.8-7.93,2.8s-1.4-8.86-10.25-9.32-9.33,7-9.33,7c-3.26-7.46-11.93-8.07-14.35-2.44a11.57,11.57,0,0,0-1,5.7,9.48,9.48,0,0,0-5.13-.93c-2.33.47-4.66,6.06-4.66,6.06a31.87,31.87,0,0,0-3.05-3.09,5.52,5.52,0,0,0-1.46-1.27l-.24-.09a11.71,11.71,0,0,0-4.1-2.08c-3.77-.83-5.66,3.21-6,4l-.12-.06c-.19-.7-1-3-4.14-5.37-3.73-2.8-7.92,3.73-7.92,3.73s-.94-5.6-4.2-7.46S198.1,365,198.1,365s-3.73-5.13-9.79-2.8-4.2,8.39-4.2,8.39-7-5.59-9.32-1.86c-1.62,2.59-.54,7,.27,9.41h29.08a17.63,17.63,0,0,0,1,5.4H314.86A9,9,0,0,0,314.43,378.83Z" style="fill: rgb(38, 50, 56); stroke: rgb(38, 50, 56); stroke-linecap: round; stroke-linejoin: round; transform-origin: 244.474px 370.04px 0px;" id="elwoj8twkhyal" class="animable"></path><path d="M315.43,396,192.09,383.16l9.44-90.51a62,62,0,0,1,68.1-55.24h0a62,62,0,0,1,55.24,68.1Z" style="fill: rgb(107, 107, 107); stroke: rgb(38, 50, 56); stroke-linecap: round; stroke-linejoin: round; transform-origin: 258.647px 316.538px 0px;" id="el1o9l1s1o1fs" class="animable"></path><path d="M304.7,381.49l-99.12-10.33,7.94-76.09a49.83,49.83,0,0,1,54.73-44.4h0a49.84,49.84,0,0,1,44.39,54.73Z" style="fill: rgb(107, 107, 107); stroke: rgb(38, 50, 56); stroke-linecap: round; stroke-linejoin: round; transform-origin: 259.246px 315.946px 0px;" id="elxedrpa5yqoq" class="animable"></path><path d="M239.78,314c-.2-.88-.33-1.42-.05-4.13l.54-5.22c.32-3.08-.6-4.33-3-4.58l-1.81-.19-1.41,13.53-5.22-.54,3.47-33.22,7.87.82c5.41.56,7.48,3.32,6.94,8.44l-.27,2.61c-.36,3.42-1.68,5.54-4.12,6.39,2.5,1.36,3.09,4,2.73,7.43l-.54,5.12a10.06,10.06,0,0,0,.15,4.1Zm-2.73-29.06L236,295.11l2,.21c1.94.2,3.22-.53,3.5-3.18l.34-3.28c.25-2.37-.45-3.5-2.3-3.69Z" style="fill: rgb(38, 50, 56); stroke: rgb(38, 50, 56); stroke-linecap: round; stroke-linejoin: round; transform-origin: 238.011px 297.105px 0px;" id="el5t7jb94ksf6" class="animable"></path><path d="M253.49,310.32l-.52,5-5-.53.52-5Z" style="fill: rgb(38, 50, 56); stroke: rgb(38, 50, 56); stroke-linecap: round; stroke-linejoin: round; transform-origin: 250.73px 312.555px 0px;" id="el05af16kdq8xh" class="animable"></path><path d="M260.23,282.52l5.22.55L262,316.29l-5.22-.54Z" style="fill: rgb(38, 50, 56); stroke: rgb(38, 50, 56); stroke-linecap: round; stroke-linejoin: round; transform-origin: 261.115px 299.405px 0px;" id="elbf4wtboumh" class="animable"></path><path d="M271.33,312.18l-.52,5-5-.52.53-5Z" style="fill: rgb(38, 50, 56); stroke: rgb(38, 50, 56); stroke-linecap: round; stroke-linejoin: round; transform-origin: 268.57px 314.42px 0px;" id="eltpw6cjuocu" class="animable"></path><path d="M292.68,294.21l-.45,4.32c-.55,5.31-3.42,7.94-8.64,7.4l-2.47-.26-1.3,12.48-5.22-.54,3.46-33.22,7.69.8C291,285.73,293.23,288.89,292.68,294.21Zm-9.89-4.53-1.17,11.24,2.47.26c1.66.17,2.64-.49,2.88-2.86l.52-5c.25-2.37-.57-3.22-2.23-3.4Z" style="fill: rgb(38, 50, 56); stroke: rgb(38, 50, 56); stroke-linecap: round; stroke-linejoin: round; transform-origin: 283.681px 301.27px 0px;" id="elnto09bjrfr" class="animable"></path><path d="M294.48,314.59l-.52,5-5-.52.52-5Z" style="fill: rgb(38, 50, 56); stroke: rgb(38, 50, 56); stroke-linecap: round; stroke-linejoin: round; transform-origin: 291.72px 316.83px 0px;" id="el2ud55g6p9jn" class="animable"></path><polygon points="274.21 263.22 268.27 262.6 268.89 256.66 262.41 255.98 261.79 261.92 255.85 261.31 255.17 267.79 261.11 268.4 260.5 274.35 266.98 275.02 267.6 269.08 273.54 269.7 274.21 263.22" style="fill: rgb(38, 50, 56); stroke: rgb(38, 50, 56); stroke-linecap: round; stroke-linejoin: round; transform-origin: 264.69px 265.5px 0px;" id="el76oydpnl0rc" class="animable"></polygon><path d="M240,312a10.29,10.29,0,0,1,0-4.13l.54-5.22c.32-3.08-.6-4.33-3-4.58l-1.8-.18-1.41,13.52-5.22-.54,3.46-33.22,7.88.82c5.41.56,7.47,3.32,6.94,8.45l-.27,2.61c-.36,3.41-1.68,5.53-4.12,6.38,2.49,1.36,3.09,4,2.73,7.43l-.54,5.13a9.85,9.85,0,0,0,.15,4.09Zm-2.72-29.06-1.06,10.2,2,.21c1.94.21,3.22-.53,3.49-3.18l.35-3.28c.24-2.37-.45-3.5-2.31-3.69Z" style="fill: rgb(107, 107, 107); stroke: rgb(38, 50, 56); stroke-linecap: round; stroke-linejoin: round; transform-origin: 238.29px 295.105px 0px;" id="elh2nxg6rbge" class="animable"></path><path d="M253.7,308.33l-.53,5-5-.52.53-5Z" style="fill: rgb(107, 107, 107); stroke: rgb(38, 50, 56); stroke-linecap: round; stroke-linejoin: round; transform-origin: 250.935px 310.57px 0px;" id="el27st8o8se9u" class="animable"></path><path d="M260.43,280.54l5.22.54-3.46,33.22-5.22-.54Z" style="fill: rgb(107, 107, 107); stroke: rgb(38, 50, 56); stroke-linecap: round; stroke-linejoin: round; transform-origin: 261.31px 297.42px 0px;" id="elp3rxe81pjf" class="animable"></path><path d="M271.54,310.19l-.53,5-5-.52.53-5Z" style="fill: rgb(107, 107, 107); stroke: rgb(38, 50, 56); stroke-linecap: round; stroke-linejoin: round; transform-origin: 268.775px 312.43px 0px;" id="elo0c806xzlh" class="animable"></path><path d="M292.89,292.22l-.45,4.32c-.56,5.31-3.42,7.94-8.64,7.4l-2.47-.26L280,316.16l-5.22-.54,3.46-33.22,7.69.8C291.18,283.74,293.44,286.91,292.89,292.22ZM283,287.69l-1.17,11.24,2.46.26c1.66.17,2.64-.49,2.89-2.86l.52-5c.25-2.37-.57-3.22-2.23-3.4Z" style="fill: rgb(107, 107, 107); stroke: rgb(38, 50, 56); stroke-linecap: round; stroke-linejoin: round; transform-origin: 283.875px 299.28px 0px;" id="elklrbhqsgt0l" class="animable"></path><path d="M294.69,312.61l-.52,5-5-.53.52-5Z" style="fill: rgb(107, 107, 107); stroke: rgb(38, 50, 56); stroke-linecap: round; stroke-linejoin: round; transform-origin: 291.93px 314.845px 0px;" id="elafsx9onj2l" class="animable"></path><polygon points="274.42 261.23 268.48 260.61 269.1 254.67 262.62 253.99 262 259.94 256.06 259.32 255.38 265.8 261.32 266.42 260.7 272.36 267.18 273.03 267.8 267.09 273.74 267.71 274.42 261.23" style="fill: rgb(107, 107, 107); stroke: rgb(38, 50, 56); stroke-linecap: round; stroke-linejoin: round; transform-origin: 264.9px 263.51px 0px;" id="ely285nyt379d" class="animable"></polygon><polyline points="310.32 281.64 310.27 282.08 307.61 284.86 305.62 287.7 302.95 290.47 302.16 294.8 300.54 297.34 298.99 299.22 298.18 300.49" style="fill: none; stroke: rgb(38, 50, 56); stroke-linecap: round; stroke-linejoin: round; transform-origin: 304.25px 291.065px 0px;" id="elsu5eg13vpvm" class="animable"></polyline><path d="M317.87,271,316,275.9l-5.38,2.83-.3,2.91,2.32-1.78h1.44s1.76,1.05,2.31-.05,1.44-2.73,1.78-3.27.88-1.49.88-1.49l.43-1.4Z" style="fill: rgb(38, 50, 56); stroke: rgb(38, 50, 56); stroke-linecap: round; stroke-linejoin: round; transform-origin: 314.9px 276.32px 0px;" id="elkx09mhwho1a" class="animable"></path><polyline points="305.62 287.7 306.68 291.88 309.84 296.9 307.86 303.06 307.67 308.07" style="fill: none; stroke: rgb(38, 50, 56); stroke-linecap: round; stroke-linejoin: round; transform-origin: 307.73px 297.885px 0px;" id="elk1bndolt4ah" class="animable"></polyline><path d="M207.92,271.53l2.83,5,4.51,8.17-2.14,4.47s.16,5,.4,5.91,3,6.51,3,6.51l-.33,6.34s.22,4.38,1.7,6.21a53.81,53.81,0,0,1,4.09,5.78c.56,1.07,2.83,5,2.69,6.32s1.6,7.2,1.6,7.2" style="fill: none; stroke: rgb(38, 50, 56); stroke-linecap: round; stroke-linejoin: round; transform-origin: 217.095px 302.485px 0px;" id="elb5115e67gvl" class="animable"></path><polyline points="219.04 315.92 218.88 323.95 216.26 329.71 218.12 337.61 219.85 343.49" style="fill: none; stroke: rgb(38, 50, 56); stroke-linecap: round; stroke-linejoin: round; transform-origin: 218.055px 329.705px 0px;" id="elrk0rbjtrg4e" class="animable"></polyline><path d="M255.07,237.23l-.52,5,3.07,2.66,1.14,5.15-3.14,4.36L251.23,258s-1.55,5.2-1.35,6.56a76.62,76.62,0,0,1-.5,8l-4.46,4.23" style="fill: none; stroke: rgb(38, 50, 56); stroke-linecap: round; stroke-linejoin: round; transform-origin: 251.84px 257.01px 0px;" id="elob05xlg2m1b" class="animable"></path><polygon points="218.88 323.95 221.89 320.59 218.73 315.37 218.88 323.95" style="fill: rgb(38, 50, 56); stroke: rgb(38, 50, 56); stroke-linecap: round; stroke-linejoin: round; transform-origin: 220.31px 319.66px 0px;" id="elb2ry2mhiipr" class="animable"></polygon><path d="M362,406l-24.52-3.2,10.33-3.92h17.32a9.09,9.09,0,0,0-.44-4.66c-1.25-2.92-4.16,0-4.16,0s0-6.67-2.09-8.75-7.08,2.5-7.08,2.5-1.25-7.92-9.16-8.33c-.26,0-.49,0-.73,0a4.49,4.49,0,0,0-.81-1.17c-2.33-2.33-7.92,2.8-7.92,2.8s-1.4-8.86-10.26-9.32-9.32,7-9.32,7c-3.26-7.46-11.94-8.07-14.35-2.44a11.43,11.43,0,0,0-1,5.7,9.48,9.48,0,0,0-5.13-.93c-2.33.47-4.66,6.06-4.66,6.06a31.34,31.34,0,0,0-3.06-3.09,5.21,5.21,0,0,0-1.46-1.27l-.23-.1a11.72,11.72,0,0,0-4.11-2.07,4.76,4.76,0,0,0-5,2.2,1.75,1.75,0,0,0-2.15-.32,11.68,11.68,0,0,0-1.76-2.09c-.24-2-.75-4.47-1.88-5.59-2.08-2.09-7.08,2.5-7.08,2.5s-1.25-7.92-9.16-8.33-8.33,6.24-8.33,6.24c-2.91-6.66-10.67-7.2-12.82-2.17a10.21,10.21,0,0,0-.92,5.09,8.46,8.46,0,0,0-4.58-.83c-2.09.41-4.17,5.41-4.17,5.41s-4.16-5-7.91-5.83S208,380.8,208,380.8s-.41-2.5-3.75-5-7.08,3.33-7.08,3.33-.83-5-3.74-6.66-7.5,4.16-7.5,4.16a7.61,7.61,0,0,0-8.75-2.5c-5.41,2.09-3.75,7.5-3.75,7.5s-6.24-5-8.33-1.66c-1.36,2.17-.58,5.75.12,8l-18.56,5.2,76.55-1.42-20.65,6.76h40.23L228.18,406ZM254.41,393.45v.07l-.65-.07Z" style="fill: rgb(38, 50, 56); stroke: rgb(38, 50, 56); stroke-linecap: round; stroke-linejoin: round; transform-origin: 255.958px 387.581px 0px;" id="elg4hpmjkwvq" class="animable"></path><path d="M337.46,411.64c-1.25-2.92-4.16,0-4.16,0s0-6.66-2.08-8.75-7.08,2.5-7.08,2.5-1.25-7.91-9.17-8.33h-.73a4.48,4.48,0,0,0-.8-1.16c-2.34-2.34-7.93,2.79-7.93,2.79s-1.4-8.85-10.25-9.32-9.33,7-9.33,7c-3.26-7.46-11.94-8.06-14.35-2.44a11.44,11.44,0,0,0-1,5.7,9.58,9.58,0,0,0-5.13-.93c-2.33.47-4.66,6.06-4.66,6.06a31.34,31.34,0,0,0-3.06-3.09,5.33,5.33,0,0,0-1.45-1.27l-.24-.09a11.55,11.55,0,0,0-4.11-2.07c-3.76-.84-5.65,3.2-6,4l-.12-.06c-.19-.7-1-3-4.14-5.37-3.73-2.8-7.93,3.73-7.93,3.73s-.93-5.6-4.19-7.46-8.39,4.66-8.39,4.66-3.73-5.13-9.79-2.8-4.2,8.39-4.2,8.39-7-5.59-9.32-1.86c-1.62,2.59-.54,7,.27,9.41h29.08a17.63,17.63,0,0,0,1,5.4H337.9A9,9,0,0,0,337.46,411.64Z" style="fill: rgb(38, 50, 56); stroke: rgb(38, 50, 56); stroke-linecap: round; stroke-linejoin: round; transform-origin: 267.518px 402.814px 0px;" id="elcokez65s8c6" class="animable"></path><path d="M261.81,407.23c-.21-1.9-.62-4-1.43-5-1.66-2.08-5.63,2.5-5.63,2.5s-1-7.91-7.29-8.33h-.58a4.55,4.55,0,0,0-.64-1.16c-1.85-2.33-6.3,2.79-6.3,2.79s-1.11-8.85-8.15-9.32-7.42,7-7.42,7c-2.59-7.45-9.49-8.06-11.4-2.43a14.13,14.13,0,0,0-.83,5.7s-2.22-1.4-4.07-.94-3.71,6.06-3.71,6.06a29.78,29.78,0,0,0-2.43-3.08,4.59,4.59,0,0,0-1.16-1.27.81.81,0,0,0-.18-.1,8.67,8.67,0,0,0-3.27-2.07c-3-.84-4.49,3.2-4.77,4l-.09-.05a10.79,10.79,0,0,0-3.29-5.38c-3-2.8-6.3,3.73-6.3,3.73s-.74-5.59-3.34-7.46-6.67,4.66-6.67,4.66-3-5.13-7.78-2.79-3.34,8.39-3.34,8.39-5.56-5.6-7.41-1.87c-.85,1.72-.76,4.23-.42,6.44Z" style="fill: rgb(38, 50, 56); stroke: rgb(38, 50, 56); stroke-linecap: round; stroke-linejoin: round; transform-origin: 207.737px 397.969px 0px;" id="eld0yt1vv94vo" class="animable"></path><path d="M244.35,372.65s-10.94-3.12-19.06,7.5,0,20.3,1.25,23.42,2.81,8.13,2.81,8.13v10.62h88.71A96.47,96.47,0,0,0,304,404.82c-8.44-8.12-10.31-8.12-15.93-8.12a67.64,67.64,0,0,1-12.5-1.56s-5.31-4.37-16.87-14.68S244.35,372.65,244.35,372.65Z" style="fill: #FF7955; stroke: rgb(38, 50, 56); stroke-linecap: round; stroke-linejoin: round; transform-origin: 269.893px 397.271px 0px;" id="elzh48rpzu29f" class="animable"></path><g id="elvli0jwv60nf"><path d="M227.18,410.9S152.91,437.68,158.24,443s60,15.34,64,17.34-2,5.34,1.33,9.34,13.5,8.86,13.5,8.86l35-11.91s2.24-7.62-3.76-9S243.61,459,243.61,459l-51.35-18,52.68-19.34" style="opacity: 0.3; transform-origin: 215.223px 444.72px 0px;" class="animable" id="elsw2kldzb7ee"></path></g><path d="M341.35,424.14,326,414.85l-.29,0c-.25-2-.77-4.27-1.84-5.35-2.09-2.08-7.08,2.5-7.08,2.5s-1.25-7.91-9.17-8.33-8.33,6.25-8.33,6.25c-2.91-6.67-10.66-7.21-12.82-2.18a10.21,10.21,0,0,0-.92,5.09A8.46,8.46,0,0,0,281,412c-2.09.42-4.17,5.41-4.17,5.41s-4.16-5-7.91-5.83-5.42,3.75-5.42,3.75-.41-2.5-3.74-5-7.08,3.34-7.08,3.34-.84-5-3.75-6.67-7.5,4.17-7.5,4.17a7.61,7.61,0,0,0-8.75-2.5c-5.41,2.08-3.74,7.5-3.74,7.5s-6.25-5-8.33-1.67c-1.51,2.41-.41,6.54.32,8.66h37.21l-18.48,4.2h65.47l-7.89-3.25Z" style="fill: rgb(38, 50, 56); stroke: rgb(38, 50, 56); stroke-linecap: round; stroke-linejoin: round; transform-origin: 280.602px 415.506px 0px;" id="el1a58ezq4gjw" class="animable"></path><path d="M275.27,348.6s1.87-4.69,3.12-4.38a5.3,5.3,0,0,1,3.75,5.94c-.62,3.75-2.81,5-2.81,7.81s1.25,3.12-1.25,3.75S275.27,354.22,275.27,348.6Z" style="fill: rgb(191, 191, 191); stroke: rgb(38, 50, 56); stroke-linecap: round; stroke-linejoin: round; transform-origin: 278.74px 352.98px 0px;" id="elc8jzx19b79d" class="animable"></path><path d="M280.67,348.67s-3.13,1.6-2.9,4.3" style="fill: none; stroke: rgb(38, 50, 56); stroke-linecap: round; stroke-linejoin: round; transform-origin: 279.214px 350.82px 0px;" id="el6cth5kx8cii" class="animable"></path><path d="M276.21,371.4s3.75,15.31,5.62,22.18,5.62,9.68,5.62,9.68-7.81,5-12.18,6.25-8.75-1.56-12.49-6.87a70.42,70.42,0,0,1-5-7.81S266.21,392,270,383.9a49.79,49.79,0,0,0,4.37-14.37Z" style="fill: rgb(191, 191, 191); stroke: rgb(38, 50, 56); stroke-linecap: round; stroke-linejoin: round; transform-origin: 272.615px 389.667px 0px;" id="elk13eklwcyic" class="animable"></path><path d="M276.13,398s1-17,1.05-22.62c-.59-2.36-1-3.93-1-3.93l-1.72-1.72h-.18A50.41,50.41,0,0,1,270,383.9c-3.75,8.12-12.18,10.93-12.18,10.93a70.42,70.42,0,0,0,5,7.81c3.69,5.24,8,8,12.31,6.91l-3.3-8.26,7.91,6.38,1.13-.57Z" style="fill: rgb(38, 50, 56); stroke: rgb(38, 50, 56); stroke-linecap: round; stroke-linejoin: round; transform-origin: 269.345px 389.758px 0px;" id="el18ifi22nus9" class="animable"></path><path d="M277.77,353s-3.49-10.55-8.42-18.18c-6.14-9.48-17.51-10.24-28.13-5.87s-10.93,9.37-10.93,16.55.31,9.37,1.87,11.56,1.57.31,2.19,4.06,0,5.31,2.81,7.5,1.88-.94,3.75,3.44,15.31,22.49,15.93,25,3.75,4.38,9.06,2.5,9.06-2.18,9.06-8.12-.63-7.49,1.56-13.12S280,369.21,280,366.4a29.46,29.46,0,0,0-.63-5.62Z" style="fill: rgb(191, 191, 191); stroke: rgb(38, 50, 56); stroke-linecap: round; stroke-linejoin: round; transform-origin: 255.145px 363.356px 0px;" id="elwgl7oe1gd4" class="animable"></path><path d="M272.22,356.56s-2.89-2.56-2.89.77,5,10.34,5,10.34Z" style="fill: rgb(38, 50, 56); transform-origin: 271.83px 361.645px 0px;" id="el2b3zw7nqokk" class="animable"></path><path d="M274.33,355.33l2.67,9.34S276.67,352.33,274.33,355.33Z" style="fill: rgb(38, 50, 56); transform-origin: 275.665px 359.765px 0px;" id="elpeub6lnbmg9" class="animable"></path><path d="M276.21,371.4l-.88-6.73,2.34,3.66S278.75,372.13,276.21,371.4Z" style="fill: rgb(38, 50, 56); transform-origin: 276.614px 368.082px 0px;" id="eloskfk3ba4b" class="animable"></path><polygon points="274.67 373 272.67 368.67 276.33 373.33 274.33 377.67 274.67 373" style="fill: rgb(38, 50, 56); transform-origin: 274.5px 373.17px 0px;" id="elp5yi9ciyqar" class="animable"></polygon><path d="M265.72,332s-6.18,2.18-3.63,6.42" style="fill: none; stroke: rgb(38, 50, 56); stroke-linecap: round; stroke-linejoin: round; transform-origin: 263.597px 335.21px 0px;" id="elwyh926zs3is" class="animable"></path><path d="M264.67,360.67s8.66,11,8.66,15,1.34,6.33-.66,10.33" style="fill: none; stroke: rgb(38, 50, 56); stroke-linecap: round; stroke-linejoin: round; transform-origin: 269.22px 373.335px 0px;" id="el8ieoii6p7b" class="animable"></path><path d="M256.33,391s7,4,12-3.67" style="fill: none; stroke: rgb(38, 50, 56); stroke-linecap: round; stroke-linejoin: round; transform-origin: 262.33px 389.686px 0px;" id="el3ekzq4abj7a" class="animable"></path><path d="M241.67,359.67s-1.67,4.66.66,8.33,5.34,8.33,6.34,12.67" style="fill: none; stroke: rgb(38, 50, 56); stroke-linecap: round; stroke-linejoin: round; transform-origin: 244.88px 370.17px 0px;" id="el0m1wn02walh9" class="animable"></path><path d="M254.63,349.18s5.22,4,9.7,0" style="fill: none; stroke: rgb(38, 50, 56); stroke-linecap: round; stroke-linejoin: round; transform-origin: 259.48px 350.069px 0px;" id="el9hgj04dmsa" class="animable"></path><path d="M241.69,352.16s1,5.47-3,8" style="fill: none; stroke: rgb(38, 50, 56); stroke-linecap: round; stroke-linejoin: round; transform-origin: 240.246px 356.16px 0px;" id="el9i3ldrhs9x4" class="animable"></path><path d="M271.21,348.29s.94,3.43-.63,3.74-5,1.57-5,3.75,1.25,4.38,2.5,6.25,3.43,5.62,3.43,5.62" style="fill: none; stroke: rgb(38, 50, 56); stroke-linecap: round; stroke-linejoin: round; transform-origin: 268.545px 357.97px 0px;" id="elnutsu8it95" class="animable"></path><path d="M267.15,370.15s-5-11.24-10.62-11.56-11.87,0-11.56,7.5,4.06,7.81,5.62,12.81,2.81,8.43,8.44,8.43,11.24-6.25,10.62-10.93S267.15,370.15,267.15,370.15Z" style="fill: rgb(38, 50, 56); stroke: rgb(38, 50, 56); stroke-linecap: round; stroke-linejoin: round; transform-origin: 257.328px 372.921px 0px;" id="elikcb0goe40b" class="animable"></path><path d="M262.4,375.46s-7.41,1.8-8.81,4-1.68,4.22,4.56,3.91,9.65-3.71,8.85-5.71S263.6,374.86,262.4,375.46Z" style="fill: #FF7955; stroke: rgb(38, 50, 56); stroke-linecap: round; stroke-linejoin: round; transform-origin: 259.939px 379.333px 0px;" id="elhv0tr91p16t" class="animable"></path><path d="M246.53,367.34l2.81,2.19s.94-3.44-.31-4.69S245.28,363.9,246.53,367.34Z" style="fill: rgb(255, 255, 255); stroke: rgb(38, 50, 56); stroke-linecap: round; stroke-linejoin: round; transform-origin: 247.934px 366.849px 0px;" id="ell818x8nxp7m" class="animable"></path><path d="M251.53,360.78l.31,4.69,3.13-.32-.63-5S251.84,359.22,251.53,360.78Z" style="fill: rgb(255, 255, 255); stroke: rgb(38, 50, 56); stroke-linecap: round; stroke-linejoin: round; transform-origin: 253.25px 362.672px 0px;" id="elsm071zz0xm" class="animable"></path><path d="M257.78,361.72l.31,3.43,2.5.63-.94-4.06S259,359.84,257.78,361.72Z" style="fill: rgb(255, 255, 255); stroke: rgb(38, 50, 56); stroke-linecap: round; stroke-linejoin: round; transform-origin: 259.185px 363.332px 0px;" id="eln70epv8ibvc" class="animable"></path><path d="M255.28,385.46l-.63-4.06,2.5-.63,1.25,4.06S257.78,387,255.28,385.46Z" style="fill: rgb(255, 255, 255); stroke: rgb(38, 50, 56); stroke-linecap: round; stroke-linejoin: round; transform-origin: 256.525px 383.391px 0px;" id="el1mabz3gpu0e" class="animable"></path><path d="M261.53,384.21l-1.25-3.13,3.12-.62.62,2.81A7.16,7.16,0,0,0,261.53,384.21Z" style="fill: rgb(255, 255, 255); stroke: rgb(38, 50, 56); stroke-linecap: round; stroke-linejoin: round; transform-origin: 262.15px 382.335px 0px;" id="el7eofwsdq33y" class="animable"></path><path d="M265.59,380.15,264,378l2.19-1.87s2.5,1.56,2.5,2.49S267.15,380.77,265.59,380.15Z" style="fill: rgb(255, 255, 255); stroke: rgb(38, 50, 56); stroke-linecap: round; stroke-linejoin: round; transform-origin: 266.345px 378.224px 0px;" id="els1nehl6qh4f" class="animable"></path><path d="M243.72,350.47s-2.19,5.31-.62,6.87,3.43,1.57,3.12-1.25S246.22,348.91,243.72,350.47Z" style="fill: rgb(38, 50, 56); stroke: rgb(38, 50, 56); stroke-linecap: round; stroke-linejoin: round; transform-origin: 244.394px 354.266px 0px;" id="el3eb9jy6uh5n" class="animable"></path><path d="M247.78,349.85s3.13,5.31,4.37,5.62,2.5-4.06,1.25-5S248.72,347.35,247.78,349.85Z" style="fill: rgb(38, 50, 56); stroke: rgb(38, 50, 56); stroke-linecap: round; stroke-linejoin: round; transform-origin: 250.848px 352.088px 0px;" id="el424tpvr6zr" class="animable"></path><path d="M248.75,345a26.8,26.8,0,0,1,15.47,1.63,7.84,7.84,0,0,0,.43-4c-1.25-2.18-8.85-7.48-14-5-5.74,2.74-4.7,4.38-2.83,6.56A4.52,4.52,0,0,0,248.75,345Z" style="fill: rgb(38, 50, 56); stroke: rgb(38, 50, 56); stroke-linecap: round; stroke-linejoin: round; transform-origin: 255.541px 341.807px 0px;" id="elcdrli1ht69b" class="animable"></path><path d="M256.84,332c-5.62-2.18-5.93,2.5-9.37,4.69s-6.56,1.25-9.68,2.5A6.06,6.06,0,0,0,234,343" style="fill: none; stroke: rgb(38, 50, 56); stroke-linecap: round; stroke-linejoin: round; transform-origin: 245.42px 337.218px 0px;" id="elsnhcmkkd8bn" class="animable"></path><path d="M253.72,329.23c-1.25.31-4.69,0-8.75,3.75" style="fill: none; stroke: rgb(38, 50, 56); stroke-linecap: round; stroke-linejoin: round; transform-origin: 249.345px 331.105px 0px;" id="el0c1gn3ybptg" class="animable"></path><path d="M241.92,348.55c1.25-4.16-1.13-6.57-1.45-5.93-2.18-.94-6.74,4.42-8.62,7.85-1.77,3.25.92,5.1,3.6,6.61A30.42,30.42,0,0,1,241.92,348.55Z" style="fill: rgb(38, 50, 56); stroke: rgb(38, 50, 56); stroke-linecap: round; stroke-linejoin: round; transform-origin: 236.781px 349.796px 0px;" id="elv6cqxvektw" class="animable"></path><path d="M260.06,344.45a3.94,3.94,0,1,1-3.94-3.94A3.93,3.93,0,0,1,260.06,344.45Z" style="fill: rgb(255, 255, 255); stroke: rgb(38, 50, 56); stroke-linecap: round; stroke-linejoin: round; stroke-width: 2px; transform-origin: 256.12px 344.45px 0px;" id="el4v0i9ojfst8" class="animable"></path><path d="M240.85,351.74a3.2,3.2,0,1,1-3.19-3.19A3.19,3.19,0,0,1,240.85,351.74Z" style="fill: rgb(255, 255, 255); stroke: rgb(38, 50, 56); stroke-linecap: round; stroke-linejoin: round; stroke-width: 2px; transform-origin: 237.65px 351.75px 0px;" id="elngkqz2ll87" class="animable"></path><path d="M213.08,410.92s25.6-10.39,29.5-16.7c1-1.55,7.82-9.25.71-18.13s-8.46-7.69-19.48-2-24.59,19.42-31,23c-2.17,1.21-13.15,7.82-23.1,11s-8.17,11-3.91,13.86,11,4.26,19.2,1.06S213.08,410.92,213.08,410.92Z" style="fill: rgb(191, 191, 191); stroke: rgb(38, 50, 56); stroke-linecap: round; stroke-linejoin: round; transform-origin: 204.442px 397.233px 0px;" id="ela4m7saimhue" class="animable"></path><path d="M201,391.56s12.13,3.93,18.56,12.13S228.86,414,228.86,414l3.56,2.5,2.15-13.92,2.49,2.86,2.5-5,2.5,5s1.43-10.71,2.5-13.56,2.5-2.86,1.43-11.07-6.43-12.13-12.85-11.06S212.8,376.93,201,391.56Z" style="fill: #FF7955; stroke: rgb(38, 50, 56); stroke-linecap: round; stroke-linejoin: round; transform-origin: 223.684px 393.039px 0px;" id="el2tr7mbl2iuw" class="animable"></path><circle cx="275.28" cy="462.65" r="3.67" style="fill: rgb(38, 50, 56); transform-origin: 275.28px 462.65px 0px;" id="elsyi78con3x8" class="animable"></circle><path d="M281.62,464.76c9.57,4.76,15.93,8.54-2.67,2.67-1.41-.44-2.67-1.19-2.67-2.67a2.68,2.68,0,0,1,2.67-2.67C280.43,462.09,280.3,464.11,281.62,464.76Z" style="fill: rgb(38, 50, 56); transform-origin: 283.587px 466.256px 0px;" id="eltpx8nld4q5j" class="animable"></path><path d="M297.52,469.47c0,1.35-11.43-2.48-12.78-2.48a2.45,2.45,0,0,1,0-4.9C286.09,462.09,297.52,468.11,297.52,469.47Z" style="fill: rgb(38, 50, 56); transform-origin: 289.907px 465.924px 0px;" id="elhrstceliced" class="animable"></path><ellipse cx="275.06" cy="466.65" rx="3.01" ry="2.56" style="fill: rgb(38, 50, 56); transform-origin: 275.06px 466.65px 0px;" id="el2w743ll0pcj" class="animable"></ellipse><path d="M262.26,476.34a3.79,3.79,0,1,1-3.79-3.79A3.79,3.79,0,0,1,262.26,476.34Z" style="fill: rgb(38, 50, 56); transform-origin: 258.47px 476.34px 0px;" id="elxlolrf5z37d" class="animable"></path><path d="M265.37,477.9c3.94,3.08,15.28,9.67-2.45,2.44-1.25-.51-2.44-1.09-2.44-2.44a2.44,2.44,0,0,1,2.44-2.45C264.28,475.45,264.31,477.06,265.37,477.9Z" style="fill: rgb(38, 50, 56); transform-origin: 266.531px 479.528px 0px;" id="elalhdbopaawe" class="animable"></path><path d="M253.46,479.52c0,1.54-6.7,1.05-8.23,1.05a2.79,2.79,0,0,1,0-5.57C246.76,475,253.46,478,253.46,479.52Z" style="fill: rgb(38, 50, 56); transform-origin: 248.033px 477.822px 0px;" id="els1mhu3fhufl" class="animable"></path><path d="M256.47,475.22a2.23,2.23,0,1,1-2.23-2.22A2.23,2.23,0,0,1,256.47,475.22Z" style="fill: rgb(38, 50, 56); transform-origin: 254.24px 475.23px 0px;" id="elzuhldy3xhv" class="animable"></path><circle cx="235.32" cy="478.56" r="1.78" style="fill: rgb(38, 50, 56); transform-origin: 235.32px 478.56px 0px;" id="el14ejln7w1nc" class="animable"></circle><circle cx="233.54" cy="478.56" r="2.56" style="fill: rgb(38, 50, 56); transform-origin: 233.54px 478.56px 0px;" id="elrju4cqas9h" class="animable"></circle><path d="M245.79,490.06c0,1.54-10.38-4.37-11.91-4.37a2.79,2.79,0,1,1,0-5.57C235.41,480.12,245.79,488.52,245.79,490.06Z" style="fill: rgb(38, 50, 56); transform-origin: 238.357px 485.216px 0px;" id="eligkf44dxxwg" class="animable"></path><path d="M262.32,484.79c0,1.54-10.39-4.37-11.92-4.37a2.79,2.79,0,0,1,0-5.57C251.93,474.85,262.32,483.25,262.32,484.79Z" style="fill: rgb(38, 50, 56); transform-origin: 255.048px 479.948px 0px;" id="elxq1ms3ti7ri" class="animable"></path><path d="M299.67,481.2c1.41.62-21.45-7.42-23-7.42s-11.49-6.37-11.49-7.91,5.65,1.68,7.18,1.68S289.37,476.65,299.67,481.2Z" style="fill: rgb(38, 50, 56); transform-origin: 282.456px 473.344px 0px;" id="elxoic3fvwloe" class="animable"></path><path d="M294.64,489.1c1.41.62-21.45-7.42-23-7.42s-11.49-6.37-11.49-7.9,5.65,1.67,7.18,1.67S284.35,484.55,294.64,489.1Z" style="fill: rgb(38, 50, 56); transform-origin: 277.426px 481.25px 0px;" id="eluy0l9mu7gnc" class="animable"></path><circle cx="241.72" cy="471.86" r="3.34" style="fill: rgb(38, 50, 56); transform-origin: 241.72px 471.86px 0px;" id="el87vaiajjc5" class="animable"></circle><path d="M268.49,464.76a4.68,4.68,0,1,1-4.67-4.67A4.68,4.68,0,0,1,268.49,464.76Z" style="fill: rgb(38, 50, 56); transform-origin: 263.81px 464.77px 0px;" id="ely29d5kju1ro" class="animable"></path><path d="M258,468.43a4.79,4.79,0,1,1-4.79-4.78A4.79,4.79,0,0,1,258,468.43Z" style="fill: rgb(38, 50, 56); transform-origin: 253.21px 468.44px 0px;" id="eluropmmxp" class="animable"></path><circle cx="270.94" cy="464.98" r="3.34" style="fill: rgb(38, 50, 56); transform-origin: 270.94px 464.98px 0px;" id="elecisp9mh8hk" class="animable"></circle><path d="M162.61,415.14s-1.77,6.8,4.27,10,11.37,4.62,21.32,6.39,19.2,5.33,24.88,7.11,18.48,5,18.48,5-1.06,14.93-.71,16,3.56,5.69,3.91,8.18,0,13.15,2.14,13.5,4.62,2.49,4.62-.71v-6.75c0-1.42,2.13-3.91,2.13-3.91s3.2.71,3.2,2.84,1.06,7.11,2.13,7.11,4.62,1.07,4.62-1.42-.71-5-1.07-7.47a29.67,29.67,0,0,0-1.06-4.62s5,.72,7.46,3.56,3.91,5.33,3.91,6.4.36,2.84,2.49,2.13a4.43,4.43,0,0,0,2.84-5.33c-.71-2.14-2.13-6.76-2.13-6.76l-6.4-3.91a52,52,0,0,1,6-2.84,4.86,4.86,0,0,1,5.69,2.49c1.42,2.84,2.49,3.55,2.49,3.55s1.07-4.62,0-8.17-3.91-3.91-7.82-3.91-6,1.07-7.82,0a51.94,51.94,0,0,1-7.82-6c-2.13-2.14-7.11-11-8.53-11.73s-13.15-9.24-25.23-16-11-5-17.42-10-6.4-6-11-6" style="fill: rgb(191, 191, 191); stroke: rgb(38, 50, 56); stroke-linecap: round; stroke-linejoin: round; transform-origin: 218.332px 443.107px 0px;" id="el98atw82jlie" class="animable"></path><path d="M181.45,411.19c6.07.67,15,1.8,18.13,2.93" style="fill: none; stroke: rgb(38, 50, 56); stroke-linecap: round; stroke-linejoin: round; transform-origin: 190.515px 412.655px 0px;" id="eley5jpr73mh" class="animable"></path><path d="M175.41,410.56l2.34.23" style="fill: none; stroke: rgb(38, 50, 56); stroke-linecap: round; stroke-linejoin: round; transform-origin: 176.58px 410.675px 0px;" id="eluxkyw36ajbg" class="animable"></path><line x1="205.91" y1="429.88" x2="203.13" y2="428.69" style="fill: none; stroke: rgb(38, 50, 56); stroke-linecap: round; stroke-linejoin: round; transform-origin: 204.52px 429.285px 0px;" id="eluf890vnw229" class="animable"></line><line x1="232.28" y1="441.13" x2="209.03" y2="431.21" style="fill: none; stroke: rgb(38, 50, 56); stroke-linecap: round; stroke-linejoin: round; transform-origin: 220.655px 436.17px 0px;" id="elnzvjxth85m" class="animable"></line><path d="M248,458.31s2.89.22,2,2.89l-1.11,3.34,1.78,2.45" style="fill: none; stroke: rgb(38, 50, 56); stroke-linecap: round; stroke-linejoin: round; transform-origin: 249.335px 462.65px 0px;" id="eld7pbo3njswj" class="animable"></path><path d="M253.58,456.3s3.11-.44,3.11,2v2.45l2.23,1.55" style="fill: none; stroke: rgb(38, 50, 56); stroke-linecap: round; stroke-linejoin: round; transform-origin: 256.25px 459.285px 0px;" id="el10kkhqdbh7k" class="animable"></path><path d="M241.11,463.87s.45,2.67,0,3.56a8.43,8.43,0,0,1-1.34,1.78l.23,4.9" style="fill: none; stroke: rgb(38, 50, 56); stroke-linecap: round; stroke-linejoin: round; transform-origin: 240.54px 468.99px 0px;" id="el0a0c6i58jy5" class="animable"></path><path d="M236.21,464.09s-.89,2.9,0,3.79a6.45,6.45,0,0,0,2.23,1.33" style="fill: none; stroke: rgb(38, 50, 56); stroke-linecap: round; stroke-linejoin: round; transform-origin: 237.127px 466.65px 0px;" id="elsp87wlamahf" class="animable"></path><polyline points="241.56 461.42 239.33 455.41 236.88 447.62" style="fill: none; stroke: rgb(38, 50, 56); stroke-linecap: round; stroke-linejoin: round; transform-origin: 239.22px 454.52px 0px;" id="eljq6th66265" class="animable"></polyline><line x1="252.02" y1="454.3" x2="246.01" y2="447.62" style="fill: none; stroke: rgb(38, 50, 56); stroke-linecap: round; stroke-linejoin: round; transform-origin: 249.015px 450.96px 0px;" id="elsg3963r35eg" class="animable"></line><line x1="244.67" y1="446.29" x2="242.89" y2="444.06" style="fill: none; stroke: rgb(38, 50, 56); stroke-linecap: round; stroke-linejoin: round; transform-origin: 243.78px 445.175px 0px;" id="eldl9gdcodogc" class="animable"></line></g><g id="freepik--character-1--inject-56" style="transform-origin: 103.629px 242.485px 0px;" class="animable"><g id="elpc4iy0u78p"><ellipse cx="103" cy="434" rx="62" ry="10.5" style="opacity: 0.3; transform-origin: 103px 434px 0px;" class="animable" id="eld2jw1ibzs2"></ellipse></g><path d="M31,177a8.94,8.94,0,0,0,2,9.5c4.25,4.25,5.75,7.25,5.75,8.5s1.25,4,1.5,5.75a46.82,46.82,0,0,0,1.5,5.5l2.5-3.5L46,207.49a64.21,64.21,0,0,1,.75-10A26.48,26.48,0,0,0,47,190c0-.75,1.5-2.75,1.5-2.75l2.25,4.5s1.75-10,2.5-11.25,4.5-7.5,2.75-11.25-14.75-9-19.25-6.5S31,177,31,177Z" style="fill: rgb(38, 50, 56); transform-origin: 43.4332px 184.795px 0px;" id="eladzyfu5xogr" class="animable"></path><path d="M156,195s-1-6.5,1-9.25,5-4.75,5.5-6,5.75-8,5.75-8,1.25,1.75,3.25,4,4.75,3.25,4.5,6.5,3,6.75,3,6.75l1.25,4.5,1.25-10,2,2.5s0-5,.25-7.75.75-6,.75-6-6-7.5-6.25-8.25-19.75,2.5-21.25,2.5-6.75,4.25-7.5,5.75-.5,3.25.5,7.5,1.5,7.25,1.75,8.75" style="fill: rgb(38, 50, 56); transform-origin: 166.782px 179.444px 0px;" id="elfwatwqq2av9" class="animable"></path><path d="M67,257v15.75s-8,47-7,54,3.5,18.5,3.5,18.5-3.75,9-3.75,13.5.75,8.5.75,10.5,1.25,5,0,7.25a21.68,21.68,0,0,0-1.75,6.25s5.25-1,5.75-2.5.25-3,.75-4.75-.25-2,.5-1.75S70,378,70,378s3.5,2,3.5,4a78.41,78.41,0,0,0,1.75,10.25c.25.75.75,3,.75,3s-2.25,1.5-2.25,3,2.25,2.5,2.5,5a18.27,18.27,0,0,0,.5,3.25s-.75,6.25-1,8.5-3,9-3,9-4.75,9.25-5,11.25,4,4.75,6.5,5,10,1.75,10,1.75,5,.25,7.25-2a15.77,15.77,0,0,0,4.75-10c.25-4.25-3.25-9.5-3.5-13.25S94.49,410.49,95,408s1-4.75-.5-7.25S90,390.49,90,389s-2-10-1.75-11.25a59.32,59.32,0,0,0,.25-6s2.5-.25,3.5-.25,3.5,5.5,3.5,5.5,1.75,2.5,1.75,3.75S99,387,99,387s.75-6.25,1.75-8.5a17.34,17.34,0,0,1,3-4.75c.75-.75.75-1,.75-3.5s0-4,.5-5a8.8,8.8,0,0,0,.5-3s-1.75-3.25-3.5-5.75A113.3,113.3,0,0,1,95.74,346c-.5-1.25-2-3.75-2-5.25v-3s-1-3-.25-9,9-42.5,9-42.5l3.25-4.5s5.25,11.25,6.75,14.5,8.5,21.25,9.75,24,3.5,5.75,3.25,7.75a25,25,0,0,1-2.25,7.25c-1.5,3.5-1,5-3,7.25s-4,7.75-4.75,8.25-1,2-1,4.25v8.25c0,5-1,9.25-1.25,15.25s1.25,6.75-.5,9.25-2,4.75-3,5.75-1-2.75-3.75-.25-6,3.25-6.5,7.75-2.25,6.25-2,7,9.25,7.75,9.25,7.75l3.25-3s.5-.5,2,4,2.25,6.75,3.25,8,9.5,6,11.75,6.25,10.75,1.5,12,2,4.5,0,6-.25a2.55,2.55,0,0,0,2.25-3.25,7,7,0,0,0-3.75-4.75,18.69,18.69,0,0,1-6-3.75,46.15,46.15,0,0,1-4-4.5c-2.75-3.25-3.5-3.25-4.25-4.75A9.35,9.35,0,0,1,128,408c0-1,.75-2.75,1.25-5.25a41.88,41.88,0,0,0,1-5c0-1,.5-2.25-1-2.25a14.25,14.25,0,0,0-3.25.25c-1.5.25-2.5.5-2.5.5l7.25-10.5s2-4,3-3.5,2.25,3.5,2.25,3.5,2.5,0,2.5,1.75a18.38,18.38,0,0,1,0,3.75c-.25,1-.5,4.75-.5,4.75s3-4.25,3.75-5.25a26,26,0,0,0,1.75-3,7.32,7.32,0,0,1-1.25-3.75c0-2-1.75-2.5,1-3.75a28.29,28.29,0,0,1,5-1.75s.5,0,.25-1.5-2.5-1.25-2-7.75-.75-7.25,1-9.75a50.59,50.59,0,0,0,3.25-5.75,32.72,32.72,0,0,1,1.75-3.25c.75-1,1-3,2.25-3s.25-2.5,2.25-10,3-9,1.5-16.5-8.25-30-11.25-37.25-10.5-39-10.5-39S138.49,239,134,230s-14.75-4.75-26.25.75-14.75,6-25.5,9.5-15.5,7.5-15.5,10.5S67,257,67,257Z" style="fill: rgb(107, 107, 107); stroke: rgb(38, 50, 56); stroke-linecap: round; stroke-linejoin: round; transform-origin: 108.986px 333.396px 0px;" id="eldh5kfagp1y" class="animable"></path><path d="M69,267.62s4.68-6.34,6.34-6.68,7,1,7,1A23.65,23.65,0,0,1,80,258.27c-.33-1,3-4.67,5.34-6.34a44.12,44.12,0,0,1,6-3.34l.91,15.65s6.1-4.3,6.77-5.3,3.67-1,3.67-2-.66-6-.66-7.35-.34-3,2.33-5.68S115,234.23,115,234.23s-1.67,11-1.67,13.36-.33,9-1,10-.67,4.68-.67,4.68,3.34-5.34,5-6a42.57,42.57,0,0,1,4.34-1.34l3.13-9.51.21,10.18,6.21-6-.87-7s2.34,3.34,4,6.34,3.67,6.68,3.67,6.68l.67,3.34,1.67-7-7-20.7s-8.69-4.68-17.37-1-33.05,13.36-36.06,14.7-10,9.35-10,9.35l-2.33,5,.66,10.35Z" style="fill: rgb(38, 50, 56); transform-origin: 103.31px 249.254px 0px;" id="elmq0aa6hcamq" class="animable"></path><path d="M105.74,281.74s7.25-3.75,14.75-7.5" style="fill: none; stroke: rgb(38, 50, 56); stroke-linecap: round; stroke-linejoin: round; transform-origin: 113.115px 277.99px 0px;" id="elxz8y9exkzwr" class="animable"></path><path d="M130.35,275.19a28.11,28.11,0,0,1,4.39-.45" style="fill: none; stroke: rgb(38, 50, 56); stroke-linecap: round; stroke-linejoin: round; transform-origin: 132.545px 274.965px 0px;" id="elfaeo9k90128" class="animable"></path><path d="M112.49,279.74s7.77-2.46,14.65-3.93" style="fill: none; stroke: rgb(38, 50, 56); stroke-linecap: round; stroke-linejoin: round; transform-origin: 119.815px 277.775px 0px;" id="eli4r8xttroc" class="animable"></path><path d="M83.47,270c4.39,1.74,10.06,4.34,13.52,7.24" style="fill: none; stroke: rgb(38, 50, 56); stroke-linecap: round; stroke-linejoin: round; transform-origin: 90.23px 273.62px 0px;" id="elh9yelsjq0mo" class="animable"></path><path d="M77.24,267.74s1,.32,2.58.88" style="fill: none; stroke: rgb(38, 50, 56); stroke-linecap: round; stroke-linejoin: round; transform-origin: 78.53px 268.18px 0px;" id="el1b0z3zdad5b" class="animable"></path><path d="M84.74,272.74S96,279.24,98,281.24" style="fill: none; stroke: rgb(38, 50, 56); stroke-linecap: round; stroke-linejoin: round; transform-origin: 91.37px 276.99px 0px;" id="elxnhys9pvq1q" class="animable"></path><path d="M92.24,264.24s5,5,7.25,10.75" style="fill: none; stroke: rgb(38, 50, 56); stroke-linecap: round; stroke-linejoin: round; transform-origin: 95.865px 269.615px 0px;" id="elx5vqgd6hze" class="animable"></path><path d="M128.16,262.41c-3,2.6-6.6,5.65-8.42,7.08" style="fill: none; stroke: rgb(38, 50, 56); stroke-linecap: round; stroke-linejoin: round; transform-origin: 123.95px 265.95px 0px;" id="elhm3wdmmuhal" class="animable"></path><path d="M133.24,258l-1.55,1.36" style="fill: none; stroke: rgb(38, 50, 56); stroke-linecap: round; stroke-linejoin: round; transform-origin: 132.465px 258.68px 0px;" id="ely0t9yppfx28" class="animable"></path><path d="M88.59,109.78s-3.2,3.53-10.9,6.41-12.5,1.61-18.6,5.46-7.69,12.5-9,14.75S37,158.52,37,158.52s7.37,6.73,10.9,10.58,4.49,5.77,4.81,8,.32,4.49.64,6.73a58.86,58.86,0,0,1,0,7.7s3.53-6.74,4.17-8.34,3.21-10.9,3.21-10.9,4.81,55.79,2.88,61.88-5.13,13.79-8,16.36-1.61,2.56-.32,3.84,1.28,2.25,1.28,3.85a34.66,34.66,0,0,1-1,6.09c-.32,1.29,0,8.66,0,8.66l.32,6.41.64,6.42s3.2-8,3.85-9,4.48-5.13,4.48-5.13V265.3c0-2.25-.64-2.57,3.53-4.17s5.45-1.93,5.45-1.93a4.18,4.18,0,0,0,2.89-2.56c1-2.25,5.13-5.13,6.09-5.77s5.45-2.25,6.73-3.85,1.29,2.88,1.29,4.81-2.25,15.39-2.25,15.39l2.25-2.89s3.85-5.13,5.45-6.09,4.49,0,4.49-2.56-1.61-5.13-1-6.74,2.88-2.56,3.84-3.85-1,3.53,1.93-1.6,6.09-5.77,7-6.73,5.13-1.28,5.13-1.28-2.24,7.69-3.53,9.94-4.16,9.61-4.16,9.61v7.06s4.49-5.77,5.45-6.73,4.49-1.29,4.49-1.29,2.24-3.84,2.24-5.45-1-7.05-1-7.05,2.56,2.56,2.88,3.85.33,3.52.65,5.13.64,5.13,1.6,3.84,4.17-4.81,4.17-4.81a21.78,21.78,0,0,1-1-3.84c0-1,0-4.17,1.92-5.45s2.56,1.6,3.21,4.48,2.88,7.06,2.88,9.3v8.66s2.25-3.85,3.21-3.85,2.56-.32,3.53,1,4.8,6.1,4.8,6.1-1.92-5.77-3.52-9.3-3.21-6.41-3.21-8.66v-7.37c0-2.89-1-31.43-1-39.76s-.64-12.51,0-15.4.64-15.07.64-15.07,5.77,11.23,6.09,13.15-.64,5.45-.64,5.45l-1.28,1.93s3.53-1.29,4.81,1.28S154,198.6,154,198.6l3.21,1.28s-.32-6.73-1.28-9.94S153.36,180,153,178.72s-1.6-.64-.64-3.21,1-3.84,2.57-5.77S160.74,138,160.74,138s-7.06-5.77-10.58-11.54-7.7-9.94-13.47-12.19a51.86,51.86,0,0,0-19.56-3.85H89.88" style="fill: #FF7955; stroke: rgb(38, 50, 56); stroke-linecap: round; stroke-linejoin: round; transform-origin: 98.87px 197.79px 0px;" id="elvj8tu0djc2f" class="animable"></path><path d="M60.7,172.31s3-8.32,4.54-13.07,3.25-10.25,3.5-11" style="fill: none; stroke: rgb(38, 50, 56); stroke-linecap: round; stroke-linejoin: round; transform-origin: 64.72px 160.275px 0px;" id="ell2ta8jr3bul" class="animable"></path><path d="M142.14,170.38s1.1-1.64-3.15-6.89-8.75-7.25-10.25-9.25" style="fill: none; stroke: rgb(38, 50, 56); stroke-linecap: round; stroke-linejoin: round; transform-origin: 135.504px 162.31px 0px;" id="elrmr03dfsc7h" class="animable"></path><path d="M92.65,191.09c4.95,2.14,10.64,4.51,14.59,5.9,8.5,3,19.75.25,23.25-3.75" style="fill: none; stroke: rgb(38, 50, 56); stroke-linecap: round; stroke-linejoin: round; transform-origin: 111.57px 194.675px 0px;" id="elcmntca325hf" class="animable"></path><path d="M82.24,186.49s1.8.82,4.52,2" style="fill: none; stroke: rgb(38, 50, 56); stroke-linecap: round; stroke-linejoin: round; transform-origin: 84.5px 187.49px 0px;" id="eluo4nokwawh" class="animable"></path><path d="M106.07,206.87c-8.59.73-12.23-4.28-22.58-8.38" style="fill: none; stroke: rgb(38, 50, 56); stroke-linecap: round; stroke-linejoin: round; transform-origin: 94.78px 202.716px 0px;" id="el8q4dcyo5uo8" class="animable"></path><path d="M132.49,195s-2,4-17.75,9.75l-.11,0" style="fill: none; stroke: rgb(38, 50, 56); stroke-linecap: round; stroke-linejoin: round; transform-origin: 123.56px 199.875px 0px;" id="el5meca0gr8ij" class="animable"></path><path d="M91.79,233.66a38.48,38.48,0,0,0-4.3,3.08" style="fill: none; stroke: rgb(38, 50, 56); stroke-linecap: round; stroke-linejoin: round; transform-origin: 89.64px 235.2px 0px;" id="elwp3336d2dn" class="animable"></path><path d="M123.53,209.47c-5.6,5.31-11.74,11.1-12.79,12s-7.61,5-13.48,8.67" style="fill: none; stroke: rgb(38, 50, 56); stroke-linecap: round; stroke-linejoin: round; transform-origin: 110.395px 219.805px 0px;" id="elmnlqjp86s8j" class="animable"></path><path d="M133.24,200.24l-5.37,5.11" style="fill: none; stroke: rgb(38, 50, 56); stroke-linecap: round; stroke-linejoin: round; transform-origin: 130.555px 202.795px 0px;" id="el6i9thdx27zq" class="animable"></path><path d="M78.45,218.25c4.2,1.47,8.88,2.86,11.29,2.74,5-.25,22.75-11.5,22.75-11.5" style="fill: none; stroke: rgb(38, 50, 56); stroke-linecap: round; stroke-linejoin: round; transform-origin: 95.47px 215.244px 0px;" id="el9mu0zup9pw6" class="animable"></path><path d="M70,215s1.53.65,3.77,1.52" style="fill: none; stroke: rgb(38, 50, 56); stroke-linecap: round; stroke-linejoin: round; transform-origin: 71.885px 215.76px 0px;" id="el13j58kkdyeja" class="animable"></path><path d="M141.24,166.49s-12-5.5-12.75-6" style="fill: none; stroke: rgb(38, 50, 56); stroke-linecap: round; stroke-linejoin: round; transform-origin: 134.865px 163.49px 0px;" id="ellry7a95fizn" class="animable"></path><path d="M61.24,170.49s4.75-9,6.25-10.5" style="fill: none; stroke: rgb(38, 50, 56); stroke-linecap: round; stroke-linejoin: round; transform-origin: 64.365px 165.24px 0px;" id="elyotucj8tsx" class="animable"></path><path d="M86.35,111.71v13.46c0,7.06,6.41,19.24,11.22,25.65s7.06,8,7.06,8,7.05-15.39,9-20.2,3.53-9,3.53-14.11-2.24-14.75-2.24-14.75a32.71,32.71,0,0,1-14.43,2.89A55,55,0,0,1,86,110.1Z" style="fill: rgb(191, 191, 191); stroke: rgb(38, 50, 56); stroke-linecap: round; stroke-linejoin: round; transform-origin: 101.58px 134.29px 0px;" id="eljq5g6f5ef38" class="animable"></path><path d="M87.05,114.56,90.41,127l2.84-1.55a41.57,41.57,0,0,0,2.83,3.09c1.81,1.81,5.16,4.39,5.16,4.39l1,4.13,2.83-7,5.16-2.32,2.58,3.35,3.88-11.61-3.36-4.9-28.12-3.87Z" style="fill: rgb(38, 50, 56); stroke: rgb(38, 50, 56); stroke-linecap: round; stroke-linejoin: round; transform-origin: 100.95px 123.885px 0px;" id="el2vayn86k1f8" class="animable"></path><path d="M90.2,118.44a39.89,39.89,0,0,1,0,13.15" style="fill: none; stroke: rgb(38, 50, 56); stroke-linecap: round; stroke-linejoin: round; transform-origin: 90.4728px 125.015px 0px;" id="elwxwqcm2k1l" class="animable"></path><path d="M111.68,124.85s1.28,6.09,1.6,9.94" style="fill: none; stroke: rgb(38, 50, 56); stroke-linecap: round; stroke-linejoin: round; transform-origin: 112.48px 129.82px 0px;" id="el3sj3b79723f" class="animable"></path><path d="M102.06,127.74V139.6" style="fill: none; stroke: rgb(38, 50, 56); stroke-linecap: round; stroke-linejoin: round; transform-origin: 102.06px 133.67px 0px;" id="el1zd4qpbtzib" class="animable"></path><path d="M92.76,140.56s6.09-1,7.7.65a18.88,18.88,0,0,1,2.88,4.16s2.89-4.49,3.85-4.49h3.21" style="fill: none; stroke: rgb(38, 50, 56); stroke-linecap: round; stroke-linejoin: round; transform-origin: 101.58px 142.815px 0px;" id="ell8coztg6vvj" class="animable"></path><path d="M77.05,81.89S72.88,75.15,71,79.64s5.13,13.47,5.13,13.47S77.69,86.7,77.05,81.89Z" style="fill: rgb(191, 191, 191); stroke: rgb(38, 50, 56); stroke-linecap: round; stroke-linejoin: round; transform-origin: 73.9419px 85.6037px 0px;" id="elog4uwjvhjz" class="animable"></path><path d="M123.54,79s3.53-6.41,6.1-1.92-1.93,12.18-1.93,12.18S122.9,80.28,123.54,79Z" style="fill: rgb(191, 191, 191); stroke: rgb(38, 50, 56); stroke-linecap: round; stroke-linejoin: round; transform-origin: 126.957px 82.372px 0px;" id="elpnc56idwdtm" class="animable"></path><path d="M123.54,76.43s-1-13.14-2.88-19.88-13.15-9.94-26.62-8S76.41,58.48,76.41,64.89s1.28,17,.32,21.16-3.21,9.62-.32,13.15a9,9,0,0,0,6.41,3.53s0,9.62,2.89,11.22,6.41,5.45,8.65,9.3,6.42,5.13,13.15,3.21,8.66-5.13,10.26-8.34,3.21-3.53,3.53-8.66.32-9.3.32-9.3,4.81-1.28,6.09-5.77,1.93-7.37.32-9.94S123.54,79.32,123.54,76.43Z" style="fill: rgb(191, 191, 191); stroke: rgb(38, 50, 56); stroke-linecap: round; stroke-linejoin: round; transform-origin: 101.985px 87.6657px 0px;" id="elh0e0vf78mlc" class="animable"></path><path d="M95.33,79a4.49,4.49,0,1,1-4.49-4.49A4.49,4.49,0,0,1,95.33,79Z" style="fill: rgb(255, 255, 255); stroke: rgb(38, 50, 56); stroke-linecap: round; stroke-linejoin: round; stroke-width: 2px; transform-origin: 90.8399px 79.0001px 0px;" id="elbgpmtkivp9k" class="animable"></path><circle cx="112" cy="79" r="6.41" style="fill: rgb(255, 255, 255); stroke: rgb(38, 50, 56); stroke-linecap: round; stroke-linejoin: round; stroke-width: 2px; transform-origin: 112px 79px 0px;" id="elq8b8v2hlwmk" class="animable"></circle><path d="M100.78,85.41s-4.49,4.81-2.89,6.1S100.46,91.18,100.78,85.41Z" style="fill: rgb(38, 50, 56); stroke: rgb(38, 50, 56); stroke-linecap: round; stroke-linejoin: round; transform-origin: 99.1627px 88.6681px 0px;" id="el9aqo6bl75p" class="animable"></path><path d="M102.68,85.41s4.48,4.81,2.88,6.1S103,91.18,102.68,85.41Z" style="fill: rgb(38, 50, 56); stroke: rgb(38, 50, 56); stroke-linecap: round; stroke-linejoin: round; transform-origin: 104.293px 88.6681px 0px;" id="elvtbpvfgh54s" class="animable"></path><path d="M96,82.21s-.32,11.54-10.9,8" style="fill: none; stroke: rgb(38, 50, 56); stroke-linecap: round; stroke-linejoin: round; transform-origin: 90.55px 86.5474px 0px;" id="eli24dp5k5iz" class="animable"></path><path d="M106.23,83.81s2.24,7,9.94,7" style="fill: none; stroke: rgb(38, 50, 56); stroke-linecap: round; stroke-linejoin: round; transform-origin: 111.2px 87.31px 0px;" id="el0g8tbjash10m" class="animable"></path><path d="M95.65,88.94s-.32,6.09-7.38,7.7" style="fill: none; stroke: rgb(38, 50, 56); stroke-linecap: round; stroke-linejoin: round; transform-origin: 91.96px 92.79px 0px;" id="elim96h1mwg2" class="animable"></path><path d="M104.3,70.66a3.59,3.59,0,0,0,3.53,0c2.25-1,4.81-2.88,8-2.24a7.9,7.9,0,0,1,4.81,3.21" style="fill: none; stroke: rgb(38, 50, 56); stroke-linecap: round; stroke-linejoin: round; transform-origin: 112.47px 69.96px 0px;" id="elmf9sm2cs6f9" class="animable"></path><path d="M100.14,66.17s-.65,3.85,1.92,5.46" style="fill: none; stroke: rgb(38, 50, 56); stroke-linecap: round; stroke-linejoin: round; transform-origin: 101.063px 68.9px 0px;" id="el55ihdxd19pq" class="animable"></path><path d="M114.89,88s5.13.32,5.77-4.49" style="fill: none; stroke: rgb(38, 50, 56); stroke-linecap: round; stroke-linejoin: round; transform-origin: 117.775px 85.7572px 0px;" id="elirbdoegkeh" class="animable"></path><path d="M84.42,83.81S86,88.3,92.12,87" style="fill: none; stroke: rgb(38, 50, 56); stroke-linecap: round; stroke-linejoin: round; transform-origin: 88.27px 85.5231px 0px;" id="elguy8fexammu" class="animable"></path><path d="M83.14,100.48s7.38,1,7.38,3.21,1,11.22,1.6,12.83" style="fill: none; stroke: rgb(38, 50, 56); stroke-linecap: round; stroke-linejoin: round; transform-origin: 87.63px 108.5px 0px;" id="el6sd4hfk78t4" class="animable"></path><path d="M92.76,107.86s2.25-4.81,9.94-5.77,11.87,5.45,10.26,6.73-2.88-2.89-9.3-1S91.16,111.71,92.76,107.86Z" style="fill: rgb(38, 50, 56); stroke: rgb(38, 50, 56); stroke-linecap: round; stroke-linejoin: round; transform-origin: 102.902px 106.025px 0px;" id="elbef168jrxga" class="animable"></path><path d="M121.62,100.16c-1.28,0-6.41,2.25-6.41,5.45s1.92,9.3,1,12.19" style="fill: none; stroke: rgb(38, 50, 56); stroke-linecap: round; stroke-linejoin: round; transform-origin: 118.415px 108.98px 0px;" id="elsqeuclvnfm" class="animable"></path><path d="M107.19,88.3s2.89,8.34,9.94,9" style="fill: none; stroke: rgb(38, 50, 56); stroke-linecap: round; stroke-linejoin: round; transform-origin: 112.16px 92.8px 0px;" id="elqopeg2lf0ld" class="animable"></path><path d="M81.22,76.43a27.54,27.54,0,0,1,8.66-3.84c5.13-1.29,7.69,1.6,8.33-3.21" style="fill: none; stroke: rgb(38, 50, 56); stroke-linecap: round; stroke-linejoin: round; transform-origin: 89.715px 72.905px 0px;" id="elcqwkj3w6gl" class="animable"></path><path d="M91.48,64.25A32.28,32.28,0,0,1,99.82,62c3.84-.32,8-.32,8-.32" style="fill: none; stroke: rgb(38, 50, 56); stroke-linecap: round; stroke-linejoin: round; transform-origin: 99.65px 62.965px 0px;" id="elw7tcbdtnnr" class="animable"></path><path d="M92.44,58.8s6.73-.64,10.26.32" style="fill: none; stroke: rgb(38, 50, 56); stroke-linecap: round; stroke-linejoin: round; transform-origin: 97.57px 58.8555px 0px;" id="ellitfrd3znb" class="animable"></path><path d="M118.09,64.79A4.79,4.79,0,0,1,120.4,64a6.61,6.61,0,0,1,2.28.34,19.62,19.62,0,0,1,2.26.56,10.29,10.29,0,0,1,2.17.91L127,66a13.05,13.05,0,0,0-2.25-.11c-.75,0-1.49,0-2.24,0a8.43,8.43,0,0,1-2.24.07,5.62,5.62,0,0,1-2.22-1Z" style="fill: rgb(38, 50, 56); transform-origin: 122.58px 65.0007px 0px;" id="elm0y5bmhs2ms" class="animable"></path><path d="M116.78,58.38a5,5,0,0,1,2-1.57,7.48,7.48,0,0,1,2.41-.41,22,22,0,0,1,2.44-.15,15.28,15.28,0,0,1,2.45.2v.2c-.79.17-1.55.35-2.3.59s-1.5.48-2.24.72a9.07,9.07,0,0,1-2.21.77,6.12,6.12,0,0,1-2.52-.16Z" style="fill: rgb(38, 50, 56); transform-origin: 121.43px 57.5218px 0px;" id="eltyn4nhurc1" class="animable"></path><path d="M112.89,50.07a3.27,3.27,0,0,1,.59-1.78c.3-.48.88-.67,1.34-1s.93-.61,1.41-.9,1-.57,1.47-.83l.14.15c-.29.49-.62.94-.93,1.41s-.65.91-1,1.34-.56,1-1.06,1.27a3.23,3.23,0,0,1-1.82.46Z" style="fill: rgb(38, 50, 56); transform-origin: 115.365px 47.8768px 0px;" id="elyatvz2ez7i" class="animable"></path><path d="M92.66,51.77a5.83,5.83,0,0,1,1-5.84A7.26,7.26,0,0,1,96,44a24,24,0,0,1,2.69-1.16,39.46,39.46,0,0,1,5.46-1.58,44.08,44.08,0,0,1,5.58-.79l0,.2c-1.81.44-3.6.94-5.35,1.55a37.11,37.11,0,0,0-5.08,2.09,16.55,16.55,0,0,0-4.19,3,8,8,0,0,0-2.29,4.49Z" style="fill: rgb(38, 50, 56); transform-origin: 101.005px 46.135px 0px;" id="el7ywr9j8y9q7" class="animable"></path><path d="M99.11,49.1a3.48,3.48,0,0,1,.82-1.76,4.41,4.41,0,0,1,1.48-.88c.51-.28,1-.55,1.55-.8s1.05-.51,1.6-.73l.13.16c-.36.48-.75.91-1.12,1.36s-.78.87-1.18,1.28-.7,1-1.25,1.2a3.44,3.44,0,0,1-1.91.33Z" style="fill: rgb(38, 50, 56); transform-origin: 101.9px 47.1063px 0px;" id="eltua1au8i089" class="animable"></path><path d="M80.9,55.37a4.28,4.28,0,0,1-2,.9,5.71,5.71,0,0,1-2-.2c-.67-.08-1.34-.18-2-.3s-1.34-.24-2-.4v-.2c.67-.16,1.34-.26,2-.4s1.33-.21,2-.3a6,6,0,0,1,2-.2,4.38,4.38,0,0,1,2,.9Z" style="fill: rgb(38, 50, 56); transform-origin: 76.9px 55.2715px 0px;" id="elg78kva8f6jl" class="animable"></path><path d="M79,59.52a8.35,8.35,0,0,1-2.89,2.57,11.44,11.44,0,0,1-3.63,1.09,18.71,18.71,0,0,0-3.37,1.11,28.27,28.27,0,0,0-3.25,1.64l-.13-.15a22.14,22.14,0,0,1,2.91-2.37,16.44,16.44,0,0,1,3.38-1.77c1.17-.41,2.14-1,3.28-1.38a20.7,20.7,0,0,1,3.59-.9Z" style="fill: rgb(38, 50, 56); transform-origin: 72.365px 62.645px 0px;" id="eljoiuch3dqsi" class="animable"></path><path d="M78.35,70.44a3.4,3.4,0,0,1-1.56,1.13,4.27,4.27,0,0,1-1.71.05l-1.73-.06c-.58,0-1.15-.08-1.74-.16l0-.19c.54-.24,1.09-.43,1.63-.64s1.09-.38,1.64-.54a4.5,4.5,0,0,1,1.66-.44,3.51,3.51,0,0,1,1.81.65Z" style="fill: rgb(38, 50, 56); transform-origin: 74.98px 70.6367px 0px;" id="el8zspcpwcju4" class="animable"></path><path d="M40.5,136.08s-5,11.91-10,17.91-8.75,10.5-7.5,14,5,11.5,7.25,14,5.5,1.5,6.75,1,4.5-3,6.75-3.5S52,174.74,52,171.24s-2.25-12.25-1.75-14.5,10.25-23.25,10.25-23.25l-17.5-2Z" style="fill: rgb(191, 191, 191); stroke: rgb(38, 50, 56); stroke-linecap: round; stroke-linejoin: round; transform-origin: 41.6289px 157.553px 0px;" id="elazpyxuzzmmg" class="animable"></path><line x1="51.51" y1="144.39" x2="44.24" y2="159.24" style="fill: none; stroke: rgb(38, 50, 56); stroke-linecap: round; stroke-linejoin: round; transform-origin: 47.875px 151.815px 0px;" id="elb2hvbd6ifil" class="animable"></line><line x1="37.49" y1="180.74" x2="41.49" y2="170.74" style="fill: none; stroke: rgb(38, 50, 56); stroke-linecap: round; stroke-linejoin: round; transform-origin: 39.49px 175.74px 0px;" id="elhku4gnuwjv" class="animable"></line><path d="M164,136.08S169,148,174,154s8.75,10.5,7.5,14-5,11.5-7.25,14-5.5,1.5-6.75,1-4.5-3-6.75-3.5-8.25-4.75-8.25-8.25,2.25-12.25,1.75-14.5S144,133.49,144,133.49l17.5-2Z" style="fill: rgb(191, 191, 191); stroke: rgb(38, 50, 56); stroke-linecap: round; stroke-linejoin: round; transform-origin: 162.871px 157.558px 0px;" id="el3db24692kst" class="animable"></path><line x1="152.98" y1="144.39" x2="160.25" y2="159.24" style="fill: none; stroke: rgb(38, 50, 56); stroke-linecap: round; stroke-linejoin: round; transform-origin: 156.615px 151.815px 0px;" id="el7ubsggglz89" class="animable"></line><line x1="167" y1="180.74" x2="163" y2="170.74" style="fill: none; stroke: rgb(38, 50, 56); stroke-linecap: round; stroke-linejoin: round; transform-origin: 165px 175.74px 0px;" id="el4oi6m4ncc3k" class="animable"></line><path d="M52.8,118s-2.9-3.23-5.32-5.64-5.8-.81-6.28-.65,1.93,6.77,2.42,7.09-1.13,6.13-1.13,7.09.8,2.26,0,2.26-3.83-.92-5-1.13-2.9,1.29-3.54,1.61,1.77,4.67,1.77,4.67,5.64,6.93,7.25,8.38,6.29,4.19,8.54,2.74,4.19-7.09,6.93-7.41,5.48.65,8.06-.8,6.12-6.61,6.12-6.61-1.29,5.15-1.61,6a2.73,2.73,0,0,0,1.77,2.9c1.13.16,3.71,1.29,4.35.48s2.58-9.66,3.71-12.56.16-6-2.58-6.13-7.57.16-8.54.16-3.55,0-6.61-3.38-6.76-7.41-6.76-7.41l-5.32.16Z" style="fill: rgb(191, 191, 191); stroke: rgb(38, 50, 56); stroke-linecap: round; stroke-linejoin: round; transform-origin: 57.5723px 127.246px 0px;" id="elshzm9nvp8l" class="animable"></path><path d="M56.53,102.73s3.85,15.71,3.85,18-7.7,2.89-7.7,2.89-2.24-10.26-2.89-12.51-3.2-9.94.33-11.22S55.25,98.88,56.53,102.73Z" style="fill: rgb(191, 191, 191); stroke: rgb(38, 50, 56); stroke-linecap: round; stroke-linejoin: round; transform-origin: 54.3354px 111.411px 0px;" id="el2r8ufizbasc" class="animable"></path><path d="M44.66,111.39c-1.6,0-7,.64-8,3.84s3.53,8.34,3.85,12.19,0,7.37,4.16,8.66,6.1.64,5.13-2.89S46,114.27,46,114.27" style="fill: rgb(191, 191, 191); stroke: rgb(38, 50, 56); stroke-linecap: round; stroke-linejoin: round; transform-origin: 43.281px 124.041px 0px;" id="elj4zxcdl3yaf" class="animable"></path><path d="M34.08,137.36a18.61,18.61,0,0,1-3.2,4.81c-1.93,1.92-2.89,2.88-1.61,5.45s2.57,7.69,4.49,5.45,2.89-1.92,1.93-4.49a26.15,26.15,0,0,1-1.29-4.49l3.53-4.17Z" style="fill: rgb(191, 191, 191); stroke: rgb(38, 50, 56); stroke-linecap: round; stroke-linejoin: round; transform-origin: 33.3087px 145.492px 0px;" id="elrw8zzh908ap" class="animable"></path><path d="M37.49,127s-7.9,3.31-7.25,4.6,2.88,3.84,3.84,5.77,2.57,6.41,4.49,7.69,7.06-1.92,5.77-3.52-2.88-2.89-3.84-5.45-2.25-6.74-2.25-8" style="fill: rgb(191, 191, 191); stroke: rgb(38, 50, 56); stroke-linecap: round; stroke-linejoin: round; transform-origin: 37.3736px 136.178px 0px;" id="elcrlth0a5in5" class="animable"></path><path d="M157.69,118s2.9-3.23,5.32-5.64,5.8-.81,6.28-.65-1.93,6.77-2.42,7.09,1.13,6.13,1.13,7.09-.8,2.26,0,2.26,3.83-.92,5-1.13,2.9,1.29,3.54,1.61-1.77,4.67-1.77,4.67-5.64,6.93-7.25,8.38-6.29,4.19-8.54,2.74-4.19-7.09-6.93-7.41-5.48.65-8.06-.8-6.12-6.61-6.12-6.61,1.29,5.15,1.61,6a2.73,2.73,0,0,1-1.77,2.9c-1.13.16-3.71,1.29-4.35.48s-2.58-9.66-3.71-12.56-.16-6,2.58-6.13,7.57.16,8.54.16,3.54,0,6.61-3.38,6.76-7.41,6.76-7.41l5.32.16Z" style="fill: rgb(191, 191, 191); stroke: rgb(38, 50, 56); stroke-linecap: round; stroke-linejoin: round; transform-origin: 152.918px 127.246px 0px;" id="elt9wnp67y0x8" class="animable"></path><path d="M154,102.73s-3.85,15.71-3.85,18,7.7,2.89,7.7,2.89,2.24-10.26,2.88-12.51,3.21-9.94-.32-11.22S155.24,98.88,154,102.73Z" style="fill: rgb(191, 191, 191); stroke: rgb(38, 50, 56); stroke-linecap: round; stroke-linejoin: round; transform-origin: 156.192px 111.411px 0px;" id="elp30fkmjsypf" class="animable"></path><path d="M165.82,111.39c1.61,0,7.06.64,8,3.84s-3.53,8.34-3.85,12.19,0,7.37-4.17,8.66-6.09.64-5.13-2.89,3.85-18.92,3.85-18.92" style="fill: rgb(191, 191, 191); stroke: rgb(38, 50, 56); stroke-linecap: round; stroke-linejoin: round; transform-origin: 167.188px 124.041px 0px;" id="elryv648mestb" class="animable"></path><path d="M176.41,137.36a18.61,18.61,0,0,0,3.2,4.81c1.93,1.92,2.89,2.88,1.61,5.45s-2.57,7.69-4.49,5.45-2.89-1.92-1.93-4.49a27.32,27.32,0,0,0,1.29-4.49l-3.53-4.17Z" style="fill: rgb(191, 191, 191); stroke: rgb(38, 50, 56); stroke-linecap: round; stroke-linejoin: round; transform-origin: 177.181px 145.492px 0px;" id="elz67tklgjmtd" class="animable"></path><path d="M173,127s7.9,3.31,7.25,4.6-2.88,3.84-3.84,5.77-2.57,6.41-4.49,7.69-7.06-1.92-5.77-3.52,2.88-2.89,3.84-5.45,2.25-6.74,2.25-8" style="fill: rgb(191, 191, 191); stroke: rgb(38, 50, 56); stroke-linecap: round; stroke-linejoin: round; transform-origin: 173.116px 136.178px 0px;" id="eli1kkuojcgwp" class="animable"></path><path d="M84.24,442s5,.25,7.25-2a15.77,15.77,0,0,0,4.75-10c.25-4.25-3.25-9.5-3.5-13.25S94.49,410.49,95,408s1-4.75-.5-7.25S90,390.49,90,389s-2-10-1.75-11.25a59.32,59.32,0,0,0,.25-6s2.5-.25,3.5-.25,3.5,5.5,3.5,5.5,1.75,2.5,1.75,3.75S99,387,99,387s.75-6.25,1.75-8.5a17.34,17.34,0,0,1,3-4.75c.75-.75.75-1,.75-3.5s0-4,.5-5a8.8,8.8,0,0,0,.5-3s-1.75-3.25-3.5-5.75A113.3,113.3,0,0,1,95.74,346c-.5-1.25-2-3.75-2-5.25v-3s-1-3-.25-9C91,331.48,90,325,88,328s-2.5,7.5-2.5,12.5-4.5,5-7.5,5A25.5,25.5,0,0,1,66.5,342a14.57,14.57,0,0,1-4.5-5l-.17.16c.87,4.44,1.66,8.08,1.66,8.08s-3.75,9-3.75,13.5.75,8.5.75,10.5,1.25,5,0,7.25a21.68,21.68,0,0,0-1.75,6.25s5.25-1,5.75-2.5.25-3,.75-4.75-.25-2,.5-1.75S70,378,70,378s3.5,2,3.5,4a78.41,78.41,0,0,0,1.75,10.25c.25.75.75,3,.75,3s-2.25,1.5-2.25,3,2.25,2.5,2.5,5a18.27,18.27,0,0,0,.5,3.25s-.75,6.25-1,8.5-3,9-3,9-4.75,9.25-5,11.25,4,4.75,6.5,5S84.24,442,84.24,442Z" style="fill: rgb(38, 50, 56); transform-origin: 82.1202px 384.598px 0px;" id="elzp7eok5aef" class="animable"></path><path d="M97.49,408a5.7,5.7,0,0,0,.11-.68A1.14,1.14,0,0,0,97.49,408Z" style="fill: rgb(255, 255, 255); stroke: rgb(38, 50, 56); stroke-linecap: round; stroke-linejoin: round; transform-origin: 97.5389px 407.66px 0px;" id="elptuznvze5f" class="animable"></path><path d="M139,433c1.25.5,4.5,0,6-.25a2.55,2.55,0,0,0,2.25-3.25,7,7,0,0,0-3.75-4.75,18.69,18.69,0,0,1-6-3.75,46.15,46.15,0,0,1-4-4.5c-2.75-3.25-3.5-3.25-4.25-4.75A9.35,9.35,0,0,1,128,408c0-1,.75-2.75,1.25-5.25a41.88,41.88,0,0,0,1-5c0-1,.5-2.25-1-2.25a14.25,14.25,0,0,0-3.25.25c-1.5.25-2.5.5-2.5.5l7.25-10.5s2-4,3-3.5,2.25,3.5,2.25,3.5,2.5,0,2.5,1.75a18.38,18.38,0,0,1,0,3.75c-.25,1-.5,4.75-.5,4.75s3-4.25,3.75-5.25a26,26,0,0,0,1.75-3,7.32,7.32,0,0,1-1.25-3.75c0-2-1.75-2.5,1-3.75a28.29,28.29,0,0,1,5-1.75s.5,0,.25-1.5-2.5-1.25-2-7.75-.75-7.25,1-9.75a50.59,50.59,0,0,0,3.25-5.75,32.72,32.72,0,0,1,1.75-3.25c.75-1,1-3,2.25-3s.25-2.5,2.25-10c1.68-6.3,2.65-8.38,2-13.33A17,17,0,0,1,156.5,327c-3.5,3-6.5-6-10-9s-23-23-23-23l14,24.5s-7.5-5-9.5-7.5c-1.69-2.12-15.59-19.66-19.79-25,1.58,3.39,3.47,7.47,4.28,9.22,1.5,3.25,8.5,21.25,9.75,24s3.5,5.75,3.25,7.75a25,25,0,0,1-2.25,7.25c-1.5,3.5-1,5-3,7.25s-4,7.75-4.75,8.25-1,2-1,4.25v8.25c0,5-1,9.25-1.25,15.25s1.25,6.75-.5,9.25-2,4.75-3,5.75-1-2.75-3.75-.25-6,3.25-6.5,7.75-2.25,6.25-2,7,9.25,7.75,9.25,7.75l3.25-3s.5-.5,2,4,2.25,6.75,3.25,8,9.5,6,11.75,6.25S137.74,432.49,139,433Z" style="fill: rgb(38, 50, 56); transform-origin: 128.335px 360.107px 0px;" id="el24ykazanwff" class="animable"></path></g><defs>     <filter id="active" height="200%">         <feMorphology in="SourceAlpha" result="DILATED" operator="dilate" radius="2"></feMorphology>                <feFlood flood-color="#32DFEC" flood-opacity="1" result="PINK"></feFlood>        <feComposite in="PINK" in2="DILATED" operator="in" result="OUTLINE"></feComposite>        <feMerge>            <feMergeNode in="OUTLINE"></feMergeNode>            <feMergeNode in="SourceGraphic"></feMergeNode>        </feMerge>    </filter>    <filter id="hover" height="200%">        <feMorphology in="SourceAlpha" result="DILATED" operator="dilate" radius="2"></feMorphology>                <feFlood flood-color="#ff0000" flood-opacity="0.5" result="PINK"></feFlood>        <feComposite in="PINK" in2="DILATED" operator="in" result="OUTLINE"></feComposite>        <feMerge>            <feMergeNode in="OUTLINE"></feMergeNode>            <feMergeNode in="SourceGraphic"></feMergeNode>        </feMerge>            <feColorMatrix type="matrix" values="0   0   0   0   0                0   1   0   0   0                0   0   0   0   0                0   0   0   1   0 "></feColorMatrix>    </filter></defs></svg>